<?xml version="1.0" encoding="iso-8859-1"?>
<!-- Generator: Adobe Illustrator 19.0.0, SVG Export Plug-In . SVG Version: 6.00 Build 0)  -->
<svg version="1.1" id="Layer_1" xmlns="http://www.w3.org/2000/svg" xmlns:xlink="http://www.w3.org/1999/xlink" x="0px" y="0px"
	 viewBox="0 0 512 512" style="enable-background:new 0 0 512 512;" xml:space="preserve">
<rect x="76.8" y="12.8" style="fill:#919CB0;" width="76.8" height="153.6"/>
<circle style="fill:#D3D7DF;" cx="256" cy="76.8" r="25.6"/>
<g>
	<rect x="358.4" y="12.8" style="fill:#919CB0;" width="76.8" height="153.6"/>
	<rect x="76.8" y="345.6" style="fill:#919CB0;" width="76.8" height="153.6"/>
	<rect x="358.4" y="345.6" style="fill:#919CB0;" width="76.8" height="153.6"/>
</g>
<circle style="fill:#D3D7DF;" cx="256" cy="435.2" r="25.6"/>
<path style="fill:#573A32;" d="M140.8,332.8H89.6c-14.14,0-25.6,11.46-25.6,25.6v128c0,14.14,11.46,25.6,25.6,25.6h51.2
	c14.14,0,25.6-11.46,25.6-25.6V448h53.555c5.299,14.865,19.379,25.6,36.045,25.6c16.666,0,30.737-10.735,36.045-25.6H345.6v38.4
	c0,14.14,11.46,25.6,25.6,25.6h51.2c14.14,0,25.6-11.46,25.6-25.6v-128c0-14.14-11.46-25.6-25.6-25.6h-51.2
	c-14.14,0-25.6,11.46-25.6,25.6v64h-53.555c-3.866-10.846-12.399-19.379-23.245-23.245v-286.31
	c10.846-3.866,19.379-12.399,23.245-23.245H345.6v64c0,14.14,11.46,25.6,25.6,25.6h51.2c14.14,0,25.6-11.46,25.6-25.6v-128
	C448,11.46,436.54,0,422.4,0h-51.2c-14.14,0-25.6,11.46-25.6,25.6V64h-53.555C286.746,49.135,272.666,38.4,256,38.4
	c-16.666,0-30.737,10.735-36.045,25.6H166.4V25.6c0-14.14-11.46-25.6-25.6-25.6H89.6C75.46,0,64,11.46,64,25.6v128
	c0,14.14,11.46,25.6,25.6,25.6h51.2c14.14,0,25.6-11.46,25.6-25.6v-64h53.555c3.866,10.846,12.399,19.379,23.245,23.245v286.319
	c-10.846,3.866-19.379,12.399-23.245,23.245H166.4V358.4C166.4,344.26,154.94,332.8,140.8,332.8z M140.8,486.4H89.6v-128h51.2V486.4
	z M371.2,358.4h51.2v128h-51.2V358.4z M371.2,25.6h51.2v128h-51.2V25.6z M140.8,153.6H89.6v-128h51.2V153.6z M256,64
	c7.066,0,12.8,5.726,12.8,12.8c0,7.066-5.734,12.8-12.8,12.8c-7.066,0-12.8-5.734-12.8-12.8C243.2,69.726,248.934,64,256,64z
	 M256,422.4c7.066,0,12.8,5.726,12.8,12.8c0,7.066-5.734,12.8-12.8,12.8c-7.066,0-12.8-5.734-12.8-12.8
	C243.2,428.126,248.934,422.4,256,422.4z"/>
<g>
</g>
<g>
</g>
<g>
</g>
<g>
</g>
<g>
</g>
<g>
</g>
<g>
</g>
<g>
</g>
<g>
</g>
<g>
</g>
<g>
</g>
<g>
</g>
<g>
</g>
<g>
</g>
<g>
</g>
</svg>
