<?xml version="1.0" encoding="iso-8859-1"?>
<!-- Generator: Adobe Illustrator 19.0.0, SVG Export Plug-In . SVG Version: 6.00 Build 0)  -->
<svg version="1.1" id="Layer_1" xmlns="http://www.w3.org/2000/svg" xmlns:xlink="http://www.w3.org/1999/xlink" x="0px" y="0px"
	 viewBox="0 0 512 512" style="enable-background:new 0 0 512 512;" xml:space="preserve">
<path style="fill:#D3D7DF;" d="M38.4,499.2V173.047L174.711,64h86.588L320,122.701v90.522l-2.611,3.43
	C277.803,268.732,256,312.252,256,339.2c0,39.484,21.965,75.955,57.318,95.181l6.682,3.635V499.2H38.4z M102.4,192
	c-7.057,0-12.8,5.743-12.8,12.8v153.6c0,7.057,5.743,12.8,12.8,12.8h51.2c7.057,0,12.8-5.743,12.8-12.8V204.8
	c0-7.057-5.743-12.8-12.8-12.8H102.4z"/>
<path style="fill:#FEDEA1;" d="M364.8,448C304.811,448,256,399.189,256,339.2c0-56.294,89.114-157.227,99.277-168.55l9.523-10.615
	l9.523,10.615C384.486,181.973,473.6,282.906,473.6,339.2C473.6,399.189,424.789,448,364.8,448z"/>
<rect x="166.4" y="12.8" style="fill:#FF877F;" width="102.4" height="51.2"/>
<g>
	<path style="fill:#573A32;" d="M153.6,179.2h-51.2c-14.14,0-25.6,11.46-25.6,25.6v153.6c0,14.14,11.46,25.6,25.6,25.6h51.2
		c14.14,0,25.6-11.46,25.6-25.6V204.8C179.2,190.66,167.74,179.2,153.6,179.2z M153.6,358.4h-51.2V204.8h51.2V358.4z"/>
	<path style="fill:#573A32;" d="M383.855,162.099C379,156.689,372.07,153.6,364.8,153.6s-14.199,3.089-19.055,8.499
		c-2.739,3.046-7.347,8.303-12.945,14.916V128c0-6.793-2.697-13.303-7.501-18.099L281.6,66.193V25.6C281.6,11.46,270.14,0,256,0
		h-76.8c-14.14,0-25.6,11.46-25.6,25.6v38.895L35.209,159.206c-6.076,4.864-9.609,12.22-9.609,19.994v307.2
		c0,14.14,11.46,25.6,25.6,25.6h256c14.14,0,25.6-11.46,25.6-25.6v-30.413c10.266,2.816,20.855,4.813,32,4.813
		c67.055,0,121.6-54.554,121.6-121.6C486.4,279.407,400.981,181.188,383.855,162.099z M179.2,25.6H256v25.6h-76.8V25.6z
		 M307.2,486.4h-256V179.2l128-102.4H256l51.2,51.2v80.905c-29.542,38.861-64,92.305-64,130.295c0,46.106,26.086,85.811,64,106.419
		V486.4z M364.8,435.2c-53.018,0-96-42.982-96-96s96-160,96-160s96,106.982,96,160S417.818,435.2,364.8,435.2z"/>
</g>
<g>
</g>
<g>
</g>
<g>
</g>
<g>
</g>
<g>
</g>
<g>
</g>
<g>
</g>
<g>
</g>
<g>
</g>
<g>
</g>
<g>
</g>
<g>
</g>
<g>
</g>
<g>
</g>
<g>
</g>
</svg>
