<?xml version="1.0" encoding="UTF-8" standalone="no"?> <!-- Created with Vectornator for iOS (http://vectornator.io/) --><!DOCTYPE svg PUBLIC "-//W3C//DTD SVG 1.1//EN" "http://www.w3.org/Graphics/SVG/1.1/DTD/svg11.dtd">
<svg height="100%" style="fill-rule:evenodd;clip-rule:evenodd;stroke-linecap:round;stroke-linejoin:round;" xmlns:xlink="http://www.w3.org/1999/xlink" xmlns="http://www.w3.org/2000/svg" xml:space="preserve" width="100%" xmlns:vectornator="http://vectornator.io" version="1.1" viewBox="0 0 1052 1051.86">
<metadata>
<vectornator:setting key="DimensionsVisible" value="0"/>
<vectornator:setting key="PencilOnly" value="0"/>
<vectornator:setting key="SnapToPoints" value="0"/>
<vectornator:setting key="OutlineMode" value="0"/>
<vectornator:setting key="CMYKEnabledKey" value="0"/>
<vectornator:setting key="RulersVisible" value="1"/>
<vectornator:setting key="SnapToEdges" value="0"/>
<vectornator:setting key="GuidesVisible" value="0"/>
<vectornator:setting key="DisplayWhiteBackground" value="0"/>
<vectornator:setting key="doHistoryDisabled" value="0"/>
<vectornator:setting key="SnapToGuides" value="1"/>
<vectornator:setting key="TimeLapseWatermarkDisabled" value="0"/>
<vectornator:setting key="Units" value="Points"/>
<vectornator:setting key="DynamicGuides" value="1"/>
<vectornator:setting key="IsolateActiveLayer" value="0"/>
<vectornator:setting key="SnapToGrid" value="0"/>
</metadata>
<defs/>
<g id="Untitled" vectornator:layerName="Untitled">
<g opacity="1">
<path stroke="#000000" stroke-width="1" d="M627.345+190.091L626.908+190.417C626.908+190.249+626.908+190.081+626.918+189.923C627.066+189.979+627.206+190.025+627.345+190.091Z" fill="#d24a43" stroke-linecap="butt" opacity="1" stroke-linejoin="miter"/>
<path stroke="#000000" stroke-width="1" d="M713.123+125.588L712.612+125.932C712.639+125.755+712.658+125.588+712.695+125.42C712.835+125.467+712.983+125.522+713.123+125.588Z" fill="#d24a43" stroke-linecap="butt" opacity="1" stroke-linejoin="miter"/>
<path stroke="#000000" stroke-width="1" d="M804.171+65.0987L804.152+65.1173L803.78+65.3594L803.037+64.6144C803.046+64.5678+803.046+64.5306+803.055+64.484C803.046+64.4747+803.055+64.4654+803.055+64.4654C803.427+64.6702+803.799+64.8751+804.171+65.0987Z" fill="#d24a43" stroke-linecap="butt" opacity="1" stroke-linejoin="miter"/>
<path stroke="#000000" stroke-width="1" d="M923.319+339.334C923.17+339.353+923.031+339.362+922.891+339.371L923.198+338.934C923.235+339.064+923.282+339.204+923.319+339.334Z" fill="#d24a43" stroke-linecap="butt" opacity="1" stroke-linejoin="miter"/>
<path stroke="#000000" stroke-width="1" d="M857.387+420.89C857.368+420.89+857.331+420.89+857.312+420.89L857.359+420.824C857.378+420.843+857.387+420.871+857.387+420.89Z" fill="#d24a43" stroke-linecap="butt" opacity="1" stroke-linejoin="miter"/>
<path d="M744.82+679.777L677.475+612.303L776.387+513.202C791.455+516.117+807.657+511.73+819.332+500.033L846.762+472.55C860.705+458.58+864.237+438.147+857.387+420.89L857.312+420.89L857.359+420.824C857.378+420.843+857.387+420.871+857.387+420.89C868.941+420.88+880.337+415.87+889.158+407.032L911.951+384.196C924.072+372.051+927.864+354.729+923.319+339.334C923.17+339.353+923.031+339.362+922.891+339.371L923.198+338.934C923.235+339.064+923.282+339.204+923.319+339.334C926.814+339.055+930.29+338.291+933.627+337.052C938.889+335.134+943.824+332.051+948.044+327.823L980.011+295.795C980.485+295.32+980.95+294.836+981.396+294.333C992.579+281.974+994.624+264.279+987.54+249.956C995.943+249.043+1004.12+244.927+1010.45+238.584L1040.92+208.056C1056.18+192.773+1055.6+167.441+1039.66+151.469L1006.64+118.389L1025.35+99.6412C1037.29+87.6831+1037.3+68.2838+1025.35+56.3163L995.358+26.2627C983.413+14.2953+964.051+14.3046+952.116+26.2627L933.404+45.0102L900.824+12.3675C884.873-3.61389+859.599-4.182+844.345+11.1009L813.875+41.6295C807.545+47.9717+803.948+56.0463+803.046+64.456C787.941+56.1953+768.635+58.4397+755.844+71.2547L723.878+103.283C717.65+109.522+713.922+117.318+712.695+125.42C712.835+125.467+712.983+125.522+713.123+125.588L712.612+125.932C712.639+125.755+712.658+125.588+712.695+125.42C696.326+118.612+676.769+121.89+663.458+135.227L640.665+158.063C631.956+166.789+627.029+178.468+626.918+189.923C627.066+189.979+627.206+190.025+627.345+190.091L626.908+190.417C626.908+190.249+626.908+190.081+626.918+189.923C609.684+183.013+589.234+186.552+575.273+200.54L547.842+228.023C536.279+239.609+531.649+256.354+534.392+271.339L435.777+370.142L369.548+303.786C364.956+299.185+357.519+299.185+352.928+303.786L250.4+406.51C245.808+411.111+245.808+418.561+250.4+423.162L280.377+453.197L216.369+517.327C203.068+530.655+203.077+552.27+216.379+565.598L252.863+602.152L11.2486+844.229C-3.75415+859.26-3.74486+883.633+11.2486+898.655L68.5359+956.052L59.7239+964.881C55.1691+969.444+55.1691+976.839+59.7239+981.402L68.4336+990.129C72.9884+994.692+80.3689+994.692+84.9236+990.129L93.7356+981.3L106.954+994.543L84.905+1016.63C80.3131+1021.23+73.5554+1021.93+69.8186+1018.19L30.4063+978.702C19.1589+991.591+8.27404+996.518+17.904+1006.17L56.6285+1044.96C67.3182+1055.67+86.6432+1053.69+99.7869+1040.52L126.316+1013.94L151.032+1038.71C166.035+1053.74+190.361+1053.75+205.364+1038.72L446.978+796.639L482.403+832.131C487.394+837.132+493.538+840.252+499.989+841.5C510.716+843.586+522.261+840.457+530.571+832.131L594.579+768.001L625.672+799.153C629.976+803.465+636.78+803.726+641.381+799.935C641.688+799.703+641.976+799.433+642.255+799.153L744.82+696.392C749.403+691.8+749.403+684.368+744.82+679.777ZM968.16+57.8716C972.714+53.3082+980.104+53.2989+984.659+57.8623L993.369+66.5888C997.923+71.1522+997.914+78.5562+993.359+83.1196L984.547+91.9485L959.348+66.7005C959.348+66.7005+968.16+57.8716+968.16+57.8716ZM855.89+43.9578C856.755+43.0916+857.666+42.3093+858.632+41.6015C867.863+34.7936+880.923+35.5852+889.27+43.9485L1006.12+161.024C1015.55+170.468+1015.72+185.62+1006.5+194.859L988.349+213.048C979.388+222.026+964.479+221.634+955.053+212.191L838.201+95.115C829.854+86.7518+828.887+73.8437+835.459+64.8193C836.138+63.8786+836.891+62.9939+837.736+62.1464C837.736+62.1464+855.89+43.9578+855.89+43.9578ZM768.04+107.259C777.261+98.0207+792.208+98.0207+801.429+107.259L944.066+250.17C953.287+259.409+953.287+274.384+944.066+283.623L926.451+301.271C917.24+310.501+902.293+310.501+893.072+301.262L750.434+158.351C741.213+149.113+741.213+134.137+750.425+124.908C750.425+124.908+768.04+107.259+768.04+107.259ZM804.171+65.0987L804.152+65.1173L803.78+65.3594L803.037+64.6144C803.046+64.5678+803.046+64.5306+803.055+64.484C803.046+64.4747+803.055+64.4654+803.055+64.4654C803.427+64.6702+803.799+64.8751+804.171+65.0987ZM678.711+167.627C687.932+158.389+702.879+158.389+712.1+167.627L879.612+335.46C888.833+344.699+888.833+359.674+879.612+368.913L861.997+386.561C852.786+395.791+837.839+395.791+828.618+386.552L661.106+218.719C651.885+209.481+651.885+194.505+661.097+185.276L678.711+167.627ZM594.942+228.517C604.237+219.204+618.905+218.794+627.689+227.595L819.75+420.023C828.543+428.834+828.134+443.53+818.839+452.843L802.544+469.169C794.299+477.43+781.258+477.942+772.409+470.715C771.823+470.24+771.247+469.718+770.698+469.169L578.637+276.74C578.089+276.191+577.569+275.613+577.094+275.027C569.891+266.17+570.402+253.104+578.647+244.843C578.647+244.843+594.942+228.517+594.942+228.517ZM747.283+494.678L653.512+588.629L459.313+394.245L553.122+300.256L747.283+494.678ZM181.465+1014.49C177.366+1018.6+170.72+1018.59+166.63+1014.49L35.4258+883.037C31.3266+878.93+31.3266+872.28+35.4258+868.173L276.901+626.236L422.94+772.555C422.94+772.555+181.465+1014.49+181.465+1014.49ZM638.156+756.62C636.269+758.51+633.201+758.51+631.314+756.62L597.925+723.167C596.038+721.276+592.971+721.276+591.084+723.167L525.617+788.76C518.18+796.21+507.565+798.501+498.168+795.642C494.04+794.394+490.146+792.15+486.855+788.909L263.804+565.43L263.813+565.421C251.515+552.745+251.627+532.48+264.147+519.935L326.194+457.77C328.081+455.879+328.081+452.806+326.194+450.915L292.805+417.462C290.918+415.572+290.918+412.498+292.805+410.608L357.268+346.021C359.155+344.13+362.223+344.13+364.11+346.021L702.619+685.179C704.506+687.069+704.506+690.143+702.619+692.033C702.619+692.033+638.156+756.62+638.156+756.62Z" opacity="1" fill="#563931"/>
<path d="M1006.5+194.859L988.349+213.048C979.388+222.026+964.479+221.634+955.053+212.191L838.201+95.115C829.854+86.7518+828.887+73.8437+835.459+64.8193C836.138+63.8786+836.891+62.9939+837.736+62.1464L855.89+43.9578C856.755+43.0916+857.666+42.3093+858.632+41.6015C867.863+34.7936+880.923+35.5852+889.27+43.9484L1006.12+161.024C1015.55+170.468+1015.72+185.62+1006.5+194.859Z" opacity="1" fill="#f8dba3"/>
<path d="M944.066+283.623L926.451+301.271C917.24+310.501+902.293+310.501+893.072+301.262L750.434+158.351C741.213+149.113+741.213+134.137+750.425+124.908L768.04+107.259C777.261+98.0207+792.208+98.0207+801.429+107.259L944.066+250.17C953.287+259.409+953.287+274.384+944.066+283.623Z" opacity="1" fill="#f8dba3"/>
<path d="M879.612+368.913L861.997+386.561C852.786+395.791+837.839+395.791+828.618+386.552L661.106+218.719C651.885+209.481+651.885+194.505+661.097+185.276L678.711+167.627C687.932+158.389+702.879+158.389+712.1+167.627L879.612+335.46C888.833+344.699+888.833+359.674+879.612+368.913Z" opacity="1" fill="#f8dba3"/>
<path d="M818.839+452.843L802.544+469.169C794.299+477.43+781.258+477.942+772.409+470.715C771.823+470.24+771.247+469.719+770.698+469.169L578.637+276.74C578.089+276.191+577.569+275.613+577.094+275.027C569.891+266.17+570.402+253.104+578.647+244.843L594.942+228.517C604.237+219.204+618.905+218.794+627.689+227.595L819.75+420.023C828.543+428.834+828.134+443.53+818.839+452.843Z" opacity="1" fill="#f8dba3"/>
<path d="M422.94+772.555L181.465+1014.49C177.366+1018.6+170.72+1018.59+166.63+1014.49L35.4258+883.037C31.3265+878.93+31.3265+872.28+35.4258+868.173L276.901+626.236L422.94+772.555Z" opacity="1" fill="#d2d6df"/>
<path d="M702.619+692.033L638.156+756.62C636.269+758.511+633.201+758.511+631.314+756.62L597.925+723.167C596.038+721.276+592.971+721.276+591.084+723.167L525.617+788.76C518.18+796.21+507.565+798.501+498.168+795.642C494.04+794.394+490.146+792.15+486.855+788.909L263.804+565.43L263.813+565.421C251.515+552.745+251.627+532.48+264.147+519.935L326.194+457.77C328.081+455.879+328.081+452.806+326.194+450.915L292.805+417.462C290.918+415.572+290.918+412.498+292.805+410.608L357.268+346.021C359.155+344.13+362.223+344.13+364.11+346.021L702.619+685.179C704.506+687.069+704.506+690.143+702.619+692.033Z" opacity="1" fill="#919bad"/>
<path d="M747.283+494.678L653.512+588.629L459.313+394.245L553.122+300.256L747.283+494.678Z" opacity="1" fill="#f8dba3"/>
<path d="M993.359+83.1196L984.547+91.9485L959.348+66.7005L968.16+57.8716C972.714+53.3082+980.104+53.2989+984.659+57.8623L993.369+66.5888C997.923+71.1522+997.914+78.5562+993.359+83.1196Z" opacity="1" fill="#919bad"/>
<path d="M803.055+64.4654C803.055+64.4654+803.046+64.4747+803.055+64.484C803.046+64.5305+803.046+64.5678+803.037+64.6144L803.78+65.3594L804.152+65.1173L804.171+65.0986C803.799+64.8751+803.427+64.6702+803.055+64.4654Z" opacity="1" fill="#563931"/>
<path stroke="#000000" stroke-width="0.25" d="M534.392+271.339L534.689+271.041" fill="none" stroke-linecap="butt" opacity="1" stroke-linejoin="miter"/>
<path d="M627.345+190.091L626.908+190.417C626.908+190.249+626.908+190.081+626.918+189.923C627.066+189.979+627.206+190.025+627.345+190.091Z" opacity="1" fill="#563931"/>
<path d="M857.387+420.89C857.368+420.89+857.331+420.89+857.312+420.89L857.359+420.824C857.378+420.843+857.387+420.871+857.387+420.89Z" opacity="1" fill="#563931"/>
<path d="M923.319+339.334C923.17+339.353+923.031+339.362+922.891+339.371L923.198+338.934C923.235+339.064+923.282+339.204+923.319+339.334Z" opacity="1" fill="#563931"/>
<path d="M857.387+420.89C857.368+420.89+857.331+420.89+857.312+420.89L857.359+420.824C857.378+420.843+857.387+420.871+857.387+420.89Z" opacity="1" fill="#563931"/>
<path d="M627.345+190.091L626.908+190.417C626.908+190.249+626.908+190.081+626.918+189.923C627.066+189.979+627.206+190.025+627.345+190.091Z" opacity="1" fill="#563931"/>
<path d="M713.123+125.588L712.612+125.932C712.639+125.755+712.658+125.588+712.695+125.42C712.835+125.467+712.983+125.522+713.123+125.588Z" opacity="1" fill="#563931"/>
<path d="M713.123+125.588L712.612+125.932C712.639+125.755+712.658+125.588+712.695+125.42C712.835+125.467+712.983+125.522+713.123+125.588Z" opacity="1" fill="#563931"/>
<path d="M804.171+65.0987L804.152+65.1173L803.78+65.3594L803.037+64.6144C803.046+64.5678+803.046+64.5306+803.055+64.484C803.046+64.4747+803.055+64.4654+803.055+64.4654C803.427+64.6702+803.799+64.8751+804.171+65.0987Z" opacity="1" fill="#563931"/>
<path d="M923.319+339.334C923.17+339.353+923.031+339.362+922.891+339.371L923.198+338.934C923.235+339.064+923.282+339.204+923.319+339.334Z" opacity="1" fill="#563931"/>
<path d="M803.055+64.4654C803.055+64.4654+803.046+64.4747+803.055+64.484C803.427+64.6889+803.78+64.8938+804.152+65.1173L804.171+65.0986C803.799+64.8751+803.427+64.6702+803.055+64.4654Z" opacity="1" fill="#563931"/>
<path d="M804.171+65.0987L804.152+65.1173L803.78+65.3594L803.037+64.6144C803.046+64.5678+803.046+64.5306+803.055+64.484C803.046+64.4747+803.055+64.4654+803.055+64.4654C803.427+64.6702+803.799+64.8751+804.171+65.0987Z" opacity="1" fill="#563931"/>
</g>
</g>
</svg>
