<?xml version="1.0" encoding="iso-8859-1"?>
<!-- Generator: Adobe Illustrator 19.0.0, SVG Export Plug-In . SVG Version: 6.00 Build 0)  -->
<svg version="1.1" id="Layer_1" xmlns="http://www.w3.org/2000/svg" xmlns:xlink="http://www.w3.org/1999/xlink" x="0px" y="0px"
	 viewBox="0 0 512 512" style="enable-background:new 0 0 512 512;" xml:space="preserve">
<path style="fill:#24272C;" d="M256,499.2C121.899,499.2,12.8,390.101,12.8,256S121.899,12.8,256,12.8S499.2,121.899,499.2,256
	S390.101,499.2,256,499.2z M256,89.6c-91.75,0-166.4,74.65-166.4,166.4S164.25,422.4,256,422.4S422.4,347.75,422.4,256
	S347.75,89.6,256,89.6z"/>
<path style="fill:#D3D7DF;" d="M276.181,240.503c-3.012-3.908-7.049-6.844-11.665-8.491L256,228.983V89.139l13.858,1.152
	c61.909,5.146,115.379,43.947,139.546,101.265l5.41,12.834l-133.129,43.255L276.181,240.503z"/>
<circle style="fill:#919CB0;" cx="256" cy="256" r="25.6"/>
<g>
	<path style="fill:#D3D7DF;" d="M147.422,381.841C110.677,350.089,89.6,304.222,89.6,256c0-12.39,1.527-25.173,4.54-38.007
		l3.183-13.551l132.941,43.196l0.239,9.037c0.137,5.026,1.664,9.796,4.429,13.807l5.137,7.458l-82.108,112.998L147.422,381.841z"/>
	<path style="fill:#D3D7DF;" d="M271.94,277.931l5.146-7.458c2.756-3.994,4.284-8.764,4.42-13.798l0.239-9.037l132.941-43.196
		l3.183,13.551c3.004,12.834,4.531,25.617,4.531,38.007c0,48.222-21.077,94.089-57.822,125.841l-10.539,9.105L271.94,277.931z"/>
	<path style="fill:#D3D7DF;" d="M256,422.4c-30.234,0-60.032-8.397-86.144-24.286l-11.87-7.219l82.159-113.075l8.67,2.569
		c2.79,0.828,5.077,1.212,7.185,1.212c2.116,0,4.403-0.384,7.202-1.212l8.67-2.56l82.142,113.067l-11.87,7.219
		C316.032,414.003,286.234,422.4,256,422.4z"/>
	<path style="fill:#D3D7DF;" d="M97.186,204.399l5.41-12.834c24.166-57.318,77.636-96.128,139.546-101.265L256,89.139v139.844
		l-8.516,3.021c-4.625,1.638-8.653,4.574-11.665,8.491l-5.513,7.151L97.186,204.399z"/>
</g>
<g>
	<path style="fill:#573A32;" d="M256,0C114.62,0,0,114.611,0,256c0,141.38,114.62,256,256,256s256-114.62,256-256
		C512,114.611,397.38,0,256,0z M256,486.4C128.956,486.4,25.6,383.044,25.6,256S128.956,25.6,256,25.6S486.4,128.956,486.4,256
		S383.044,486.4,256,486.4z"/>
	<path style="fill:#573A32;" d="M256,76.8c-98.97,0-179.2,80.23-179.2,179.2S157.03,435.2,256,435.2S435.2,354.97,435.2,256
		S354.97,76.8,256,76.8z M268.8,103.049c58.078,4.821,107.102,41.993,128.811,93.483l-111.283,36.156
		c-4.463-5.803-10.496-10.24-17.527-12.74V103.049z M256,243.2c7.057,0,12.8,5.743,12.8,12.8c0,7.057-5.743,12.8-12.8,12.8
		c-7.057,0-12.8-5.743-12.8-12.8C243.2,248.943,248.943,243.2,256,243.2z M243.2,103.049v116.898
		c-7.023,2.5-13.056,6.946-17.527,12.74l-111.283-36.156C136.098,145.041,185.122,107.87,243.2,103.049z M102.4,256
		c0-12.083,1.545-23.791,4.198-35.081l111.104,36.096c0.205,7.689,2.603,14.814,6.682,20.727l-68.599,94.404
		C123.162,343.962,102.4,302.396,102.4,256z M256,409.6c-29.116,0-56.269-8.294-79.497-22.426l68.676-94.515
		c3.456,1.024,7.04,1.741,10.82,1.741c3.789,0,7.373-0.717,10.829-1.741l68.668,94.515C312.269,401.306,285.116,409.6,256,409.6z
		 M356.207,372.147l-68.591-94.413c4.079-5.914,6.468-13.039,6.673-20.727l111.104-36.096c2.662,11.298,4.207,23.006,4.207,35.089
		C409.6,302.396,388.838,343.962,356.207,372.147z"/>
</g>
<g>
</g>
<g>
</g>
<g>
</g>
<g>
</g>
<g>
</g>
<g>
</g>
<g>
</g>
<g>
</g>
<g>
</g>
<g>
</g>
<g>
</g>
<g>
</g>
<g>
</g>
<g>
</g>
<g>
</g>
</svg>
