<?xml version="1.0" encoding="utf-8"?>
<!-- Generator: Adobe Illustrator 23.0.2, SVG Export Plug-In . SVG Version: 6.00 Build 0)  -->
<svg version="1.1" id="Слой_1" xmlns="http://www.w3.org/2000/svg" xmlns:xlink="http://www.w3.org/1999/xlink" x="0px" y="0px"
	 viewBox="0 0 708.7 708.7" style="enable-background:new 0 0 708.7 708.7;" xml:space="preserve">
<style type="text/css">
	.st0{fill:#D1D5DE;}
	.st1{fill:#553830;}
	.st2{fill:#FFFFFF;}
</style>
<path class="st0" d="M654.1,43.5l-30-35.8l-3.6-4.3C618.6,1.1,616,0,613.4,0c-2.4,0-4.8,0.9-6.8,2.9l-9.7,9.5
	c-1.5,1.5-2.5,3.3-3,5.2c0,0,0,0,0,0l0,0l4.1,4.1c1.3,1.3,1.5,3.5,0.5,5c-0.1,0.2-0.3,0.4-0.5,0.6l-0.1,0l-0.3,0.3l-7.9,7.8
	L480.3,143.2l-73.2,72l-157,154.5l-40.6,39.9c-0.1,0.1-0.2,0.2-0.3,0.3l0,0c-0.3,0.2-0.6,0.4-0.9,0.5c-0.1,0-0.1,0.1-0.2,0.1
	c-0.1,0-0.2,0.1-0.3,0.1c-1.3,0.4-2.8,0-3.8-1l-0.1-0.2l-3.5-3.5l-0.8-0.8l0,0c-1.9,0.3-3.7,1.2-5.2,2.7l-9.7,9.5
	c-4.1,4-4.5,10.7-0.9,15l33.6,40.1c0.2,0.2,0.3,0.4,0.5,0.6c3.6,3.7,9.5,3.7,13.4-0.1l9.7-9.5c2.4-2.3,3.5-5.6,3.3-8.7
	c-0.1-1.2,0.3-2.3,1.2-3.1c13.9-13.6,128.6-126.4,149.2-146.5c1.7-1.7,4.4-1.5,6,0.3l1.3,1.5l5.4,6.4l0,0c2,2,5.2,1.9,7.3-0.1
	l23.4-23c1.6-1.6,4.3-1.5,5.7,0.3l1.4,1.7l0,0l15.2,18.1c1.3,1.5,1.2,3.8-0.3,5.3L79.4,689.1c-2.5,2.5-3.7,6-3.4,9.4
	c0.1,1.3,0.6,2.4,1.5,3.3l1,1l2.4,2.4c4.4,4.5,11.6,4.5,16.1,0.1l389-384c4.5-4.4,4.5-11.6,0.1-16.1l-4.1-4.2
	c-0.1-0.1-0.2-0.2-0.2-0.2l-4.6-5.4l-17.9-21.4c-1.3-1.5-1.2-3.8,0.3-5.3l23.8-23.4c2.3-2.2,2.5-6,0.5-8.4l-2.5-3l-0.1-0.1l-2.4-2.9
	l-1.3-1.5c-0.1-0.1-0.2-0.3-0.4-0.4c-1.5-1.5-1.4-4,0.1-5.5L631.9,71.8c0.9-0.9,2.1-1.3,3.3-1.1c2.9,0.5,5.9-0.4,8.2-2.8l9.7-9.5
	C657.2,54.5,657.6,47.7,654.1,43.5z"/>
<path class="st0" d="M598.5,26.8c-0.1,0.2-0.3,0.4-0.5,0.6l-0.1,0l-0.3,0.3l-7.9,7.8L480.3,143.2l-73.2,72l-157,154.5l-40.6,39.9
	c-0.1,0.1-0.2,0.2-0.3,0.3l0,0c-0.3,0.2-0.6,0.4-0.9,0.5c-0.1,0-0.1,0.1-0.2,0.1c-0.1,0-0.2,0.1-0.3,0.1c-1.3,0.3-2.8,0-3.8-1
	l-0.1-0.2l-4.4-4.3v0l0.7-0.6L593.6,17.9l0.2-0.2l0,0l0,0c0,0,0,0,0,0l0,0l4.1,4.1C599.4,23.1,599.6,25.2,598.5,26.8z"/>
<path class="st0" d="M250.1,369.6l-40.5,39.9c-0.1,0.1-0.2,0.2-0.3,0.3l0,0c-0.3,0.2-0.6,0.4-1,0.6c0.3-0.1,0.6-0.3,0.9-0.5l0,0
	c0.1-0.1,0.2-0.2,0.3-0.3L250.1,369.6z"/>
<path class="st0" d="M593.9,17.6L593.9,17.6C593.9,17.6,593.9,17.6,593.9,17.6L593.9,17.6z"/>
<polygon class="st0" points="598,27.4 597.6,27.8 589.8,35.5 597.7,27.7 "/>
<path class="st1" d="M654.1,43.5l-30-35.8l-3.6-4.3C618.6,1.1,616,0,613.4,0c-2.4,0-4.8,0.9-6.8,2.9l-9.7,9.5
	c-1.5,1.5-2.5,3.3-3,5.2c0,0,0,0,0,0l0,0l0,0l1.1,1.1l3.1,3.1c1.3,1.4,1.5,3.5,0.4,5c-0.1,0.2-0.3,0.4-0.5,0.6l-0.1,0l-0.3,0.3
	l-7.9,7.8L480.3,143.2l-73.2,72l-157,154.5l-40.6,39.9c-0.1,0.1-0.2,0.2-0.3,0.3l0,0c-0.3,0.2-0.6,0.4-0.9,0.5
	c-0.1,0-0.1,0.1-0.2,0.1c-0.1,0-0.2,0.1-0.3,0.1c-1.3,0.4-2.8,0-3.8-1l-0.1-0.2l-3.5-3.5l-0.8-0.8l0,0c-1.9,0.3-3.7,1.2-5.2,2.7
	l-9.7,9.5c-4.1,4-4.5,10.7-0.9,15l33.6,40.1c0.2,0.2,0.3,0.4,0.5,0.6c3.6,3.7,9.5,3.7,13.4-0.1l9.7-9.5c2.4-2.3,3.5-5.6,3.3-8.7
	c-0.1-1.2,0.3-2.3,1.2-3.1c13.9-13.6,128.6-126.4,149.2-146.5c1.7-1.7,4.4-1.5,6,0.3l1.3,1.5l5.4,6.4l0,0c2,2,5.2,1.9,7.3-0.1
	l23.4-23c1.6-1.6,4.3-1.5,5.7,0.3l1.4,1.7l0,0l15.2,18.1c1.3,1.5,1.2,3.8-0.3,5.3L79.4,689.1c-2.5,2.5-3.7,6-3.4,9.4
	c0.1,1.3,0.6,2.4,1.5,3.3l1,1l2.4,2.4c4.4,4.5,11.6,4.5,16.1,0.1l389-384c4.5-4.4,4.5-11.6,0.1-16.1l-4.1-4.2
	c-0.1-0.1-0.2-0.2-0.2-0.2l-4.6-5.4l-17.9-21.4c-1.3-1.5-1.2-3.8,0.3-5.3l23.8-23.4c2.3-2.2,2.5-6,0.5-8.4l-2.5-3l-0.1-0.1l-2.4-2.9
	l-1.3-1.5c-0.1-0.1-0.2-0.3-0.4-0.4c-1.5-1.5-1.4-4,0.1-5.5L631.9,71.8c0.9-0.9,2.1-1.3,3.3-1.1c2.9,0.5,5.9-0.4,8.2-2.8l9.7-9.5
	C657.2,54.5,657.6,47.7,654.1,43.5z M616.1,56.6L233.5,433.4c-1.3,1.3-3.4,1.3-4.6-0.1c0,0,0,0,0,0l-0.4-0.4l-0.2-0.2
	c-0.1-0.1-0.1-0.2-0.2-0.2l-1.1-1.3l0,0l0-0.1l-0.1-0.1l-0.5-0.7c0,0,0,0-0.1-0.1l-1.5-1.7c-0.1-0.1-0.2-0.3-0.3-0.5
	c-0.9-1.4-0.6-3.3,0.6-4.5L607.7,46.7c1.3-1.3,3.3-1.3,4.5,0c0,0,0,0,0,0c0,0,0,0,0.1,0.1l0,0l0.4,0.4c0.1,0.1,0.2,0.2,0.3,0.3
	l1,1.1c0,0,0,0,0,0l0.1,0.1c0,0,0.1,0,0.1,0.1l0.1,0.1l0.5,0.5l0.1,0.2l1,1.2c0,0,0,0,0,0l0.5,0.5c0.1,0.2,0.3,0.3,0.3,0.5
	c0,0,0,0,0,0C617.5,53.6,617.3,55.5,616.1,56.6z"/>
<path class="st2" d="M616.1,56.6L233.5,433.4c-1.3,1.3-3.4,1.3-4.6-0.1c0,0,0,0,0,0l-0.4-0.4l-0.2-0.2c-0.1-0.1-0.1-0.2-0.2-0.2
	l-1.1-1.3l0,0l0-0.1l-0.1-0.1l-0.5-0.7c0,0,0,0-0.1-0.1l-1.5-1.7c-0.1-0.1-0.2-0.3-0.3-0.5c-0.9-1.4-0.6-3.3,0.6-4.5L607.7,46.7
	c1.3-1.3,3.3-1.3,4.5,0c0,0,0,0,0,0c0,0,0,0,0.1,0.1l0,0l0.4,0.4c0.1,0.1,0.2,0.2,0.3,0.3l1,1.1c0,0,0,0,0,0l0.1,0.1
	c0,0,0.1,0,0.1,0.1l0.1,0.1l0.5,0.5l0.1,0.2l1,1.2c0,0,0,0,0,0l0.5,0.5c0.1,0.2,0.3,0.3,0.3,0.5c0,0,0,0,0,0
	C617.5,53.6,617.3,55.5,616.1,56.6z"/>
</svg>
