<?xml version="1.0" encoding="iso-8859-1"?>
<!-- Generator: Adobe Illustrator 19.0.0, SVG Export Plug-In . SVG Version: 6.00 Build 0)  -->
<svg version="1.1" id="Layer_1" xmlns="http://www.w3.org/2000/svg" xmlns:xlink="http://www.w3.org/1999/xlink" x="0px" y="0px"
	 viewBox="0 0 512.006 512.006" style="enable-background:new 0 0 512.006 512.006;" xml:space="preserve">
<path style="fill:#A7B0C0;" d="M49.424,499.169c-9.097,0-17.502-3.78-24.96-11.247c-27.153-27.179,0.085-54.434,18.108-72.474
	l215.595-215.765c-25.924-49.451-17.152-109.705,22.852-149.743c23.919-23.927,55.987-37.111,90.291-37.111
	c2.33,0,4.634,0.06,6.938,0.179l15.59,14.609l-71.817,71.885l14.473,76.16l76.075,14.473l71.834-71.902l14.609,15.625
	c1.903,36.446-11.546,71.91-36.907,97.289c-24.098,24.124-56.158,37.41-90.266,37.41c-20.77,0-41.088-5.001-59.358-14.541
	L96.894,469.797C82.465,484.235,67.54,499.169,49.424,499.169z"/>
<path style="fill:#573A32;" d="M495.41,110.603c-2.987-1.143-6.093-1.707-9.173-1.707c-6.673,0-13.218,2.611-18.116,7.509
	l-59.81,59.861l-60.868-11.58l-11.571-60.911l59.819-59.861c7.151-7.159,9.421-17.86,5.803-27.307
	c-3.627-9.446-12.467-15.881-22.571-16.41c-2.526-0.128-5.052-0.196-7.578-0.196l0,0c-37.751,0-73.045,14.515-99.379,40.875
	c-41.728,41.762-52.582,103.518-29.286,156.169L75.536,364.316l-42.027,42.061c-17.63,17.647-54.323,54.366-18.108,90.615
	c12.399,12.407,25.344,15.01,34.022,15.01c23.415,0,41.003-17.604,56.525-33.135l209.186-209.357
	c17.783,7.808,37.069,11.878,56.713,11.878c37.521,0,72.798-14.618,99.319-41.156c27.921-27.938,42.735-66.953,40.644-107.034
	C511.273,123.088,504.856,114.23,495.41,110.603z M453.05,222.108c-22.443,22.46-51.814,33.655-81.212,33.655
	c-21.367,0-42.743-5.914-61.483-17.715c-79.957,80.026-185.293,185.438-222.524,222.694c-12.809,12.817-25.609,25.634-38.417,25.634
	c-5.299,0-10.607-2.202-15.915-7.509c-18.108-18.125,0-36.241,18.108-54.366c37.231-37.257,142.558-142.669,222.524-222.694
	c-28.006-44.553-22.827-104.013,15.932-142.805c22.451-22.468,51.84-33.365,81.271-33.365c2.082,0,4.156,0.051,6.238,0.162
	L308.18,95.243l17.357,91.366l91.298,17.374l69.393-69.453C487.875,166.027,477.089,198.044,453.05,222.108z"/>
<g>
</g>
<g>
</g>
<g>
</g>
<g>
</g>
<g>
</g>
<g>
</g>
<g>
</g>
<g>
</g>
<g>
</g>
<g>
</g>
<g>
</g>
<g>
</g>
<g>
</g>
<g>
</g>
<g>
</g>
</svg>
