<?xml version="1.0" encoding="UTF-8" standalone="no"?>
<!DOCTYPE svg PUBLIC "-//W3C//DTD SVG 1.1//EN" "http://www.w3.org/Graphics/SVG/1.1/DTD/svg11.dtd">
<!-- Created with Vectornator (http://vectornator.io/) -->
<svg height="100%" stroke-miterlimit="10" style="fill-rule:nonzero;clip-rule:evenodd;stroke-linecap:round;stroke-linejoin:round;" version="1.1" viewBox="0 0 24 24" width="100%" xml:space="preserve" xmlns="http://www.w3.org/2000/svg" xmlns:xlink="http://www.w3.org/1999/xlink">
<defs/>
<g id="Untitled">
<g fill="currentColor" opacity="1" stroke="none">
<path d="M4.64966 16L2.24341 16C1.89608 16 1.64811 15.9221 1.49951 15.7664C1.35091 15.6106 1.27661 15.3626 1.27661 15.0225L1.27661 9.10352C1.27661 8.75618 1.3527 8.50643 1.50488 8.35425C1.65706 8.20207 1.90324 8.12598 2.24341 8.12598L4.79468 8.12598C5.17065 8.12598 5.4965 8.14925 5.77222 8.1958C6.04793 8.24235 6.295 8.33187 6.51343 8.46436C6.69963 8.57536 6.86434 8.7159 7.00757 8.88599C7.1508 9.05607 7.26001 9.24406 7.33521 9.44995C7.4104 9.65584 7.448 9.87337 7.448 10.1025C7.448 10.8903 7.05412 11.4668 6.26636 11.832C7.30119 12.1615 7.8186 12.8024 7.8186 13.7549C7.8186 14.1953 7.70581 14.5919 7.48022 14.9446C7.25464 15.2973 6.95028 15.5578 6.56714 15.7261C6.32723 15.8263 6.05151 15.8971 5.73999 15.9382C5.42847 15.9794 5.06502 16 4.64966 16ZM4.53149 12.5034L2.87183 12.5034L2.87183 14.8022L4.58521 14.8022C5.663 14.8022 6.2019 14.4137 6.2019 13.6367C6.2019 13.2393 6.06226 12.951 5.78296 12.772C5.50366 12.5929 5.08651 12.5034 4.53149 12.5034ZM2.87183 9.32373L2.87183 11.3594L4.33276 11.3594C4.73022 11.3594 5.03727 11.3218 5.25391 11.2466C5.47054 11.1714 5.63615 11.0282 5.75073 10.8169C5.84025 10.6665 5.88501 10.4982 5.88501 10.312C5.88501 9.91455 5.74357 9.65047 5.46069 9.51978C5.17782 9.38908 4.74634 9.32373 4.16626 9.32373L2.87183 9.32373Z"/>
<path d="M10.9553 15.1621L10.9553 12.6646L9.03247 9.68359C8.86418 9.41504 8.74512 9.20557 8.67529 9.05518C8.60547 8.90479 8.57056 8.77409 8.57056 8.66309C8.57056 8.48047 8.64128 8.32292 8.78271 8.19043C8.92415 8.05794 9.09871 7.9917 9.3064 7.9917C9.52482 7.9917 9.69043 8.05347 9.80322 8.177C9.91602 8.30054 10.0852 8.54671 10.3108 8.91553L11.7825 11.3057L13.2703 8.91553C13.3598 8.76872 13.435 8.64518 13.4958 8.54492C13.5567 8.44466 13.6239 8.35067 13.6973 8.26294C13.7707 8.17521 13.8521 8.10807 13.9417 8.06152C14.0312 8.01497 14.1404 7.9917 14.2693 7.9917C14.4698 7.9917 14.6372 8.05705 14.7715 8.18774C14.9058 8.31844 14.9729 8.46973 14.9729 8.6416C14.9729 8.78125 14.9389 8.9209 14.8708 9.06055C14.8028 9.2002 14.6864 9.39355 14.5217 9.64062L12.5505 12.6646L12.5505 15.1621C12.5505 15.488 12.4753 15.7314 12.325 15.8926C12.1746 16.0537 11.983 16.1343 11.7502 16.1343C11.5139 16.1343 11.3223 16.0546 11.1755 15.8953C11.0287 15.7359 10.9553 15.4915 10.9553 15.1621Z"/>
<path d="M18.1526 8.94775L21.2195 13.5884L21.2195 8.90479C21.2195 8.60042 21.2848 8.37215 21.4155 8.21997C21.5462 8.06779 21.7226 7.9917 21.9446 7.9917C22.1737 7.9917 22.3546 8.06779 22.4871 8.21997C22.6195 8.37215 22.6858 8.60042 22.6858 8.90479L22.6858 15.0977C22.6858 15.7887 22.3993 16.1343 21.8264 16.1343C21.6832 16.1343 21.5543 16.1137 21.4397 16.0725C21.3251 16.0313 21.2177 15.966 21.1174 15.8765C21.0172 15.7869 20.9241 15.6822 20.8381 15.5623C20.7522 15.4423 20.6663 15.3197 20.5803 15.1943L17.5886 10.6074L17.5886 15.2212C17.5886 15.522 17.5188 15.7493 17.3792 15.9033C17.2395 16.0573 17.0605 16.1343 16.842 16.1343C16.6165 16.1343 16.4356 16.0564 16.2996 15.9006C16.1635 15.7449 16.0955 15.5184 16.0955 15.2212L16.0955 9.14648C16.0955 8.88867 16.1241 8.68636 16.1814 8.53955C16.2494 8.37842 16.3622 8.24683 16.5198 8.14478C16.6773 8.04272 16.8474 7.9917 17.03 7.9917C17.1733 7.9917 17.2959 8.01497 17.3979 8.06152C17.5 8.10807 17.5895 8.17074 17.6665 8.24951C17.7435 8.32829 17.8223 8.43034 17.9028 8.55566C17.9834 8.68099 18.0667 8.81169 18.1526 8.94775Z"/>
</g>
</g>
</svg>
