<svg xmlns="http://www.w3.org/2000/svg" height="24" viewBox="0 96 960 960" width="24"><path fill="currentColor" d="M400 944.131q-19.152 0-32.326-13.174T354.5 898.63V741.239l-50.391 31.739q-22.87 14.674-46.239 1.12-23.37-13.554-23.37-40.902 0-12.435 5.717-22.631 5.718-10.195 15.913-16.152l98.37-61.326v-82.282l-50.63 31.739q-22.631 13.913-46 1.239-23.37-12.674-23.37-40.022 0-12.435 5.598-22.511 5.598-10.076 15.032-16.033l99.37-62.326V253.37q0-19.153 13.174-32.327T400 207.869q19.152 0 32.326 13.174T445.5 253.37v132.825l90.63-56.739q22.631-14.674 46-1.619 23.37 13.054 23.37 40.402 0 12.435-5.717 22.511-5.718 10.076-15.913 16.033L445.5 494.109v82.282l90.63-56.739q22.631-13.913 46-1.239 23.37 12.674 23.37 40.022 0 12.435-5.717 22.511-5.718 10.076-15.913 16.032L445.5 684.304v168.109q69.217-1.913 120.511-47 51.293-45.087 64.532-111.978 3.718-17.913 16.272-29.109 12.555-11.196 29.228-11.196 20.87 0 34.544 14.913 13.674 14.914 10.957 34.305Q704.87 806.5 625.913 875.315 546.957 944.131 440 944.131h-40Z"/></svg>