<svg xmlns="http://www.w3.org/2000/svg" height="24" viewBox="0 96 960 960" width="24"><path fill="currentColor" d="M566.239 944.131q-9.435 0-17.891-3.598-8.457-3.598-15.413-10.555L292.652 677.544q-7.956-7.957-13.054-21.631t-5.098-25.109q0-24.913 17.696-42.608 17.695-17.696 42.608-17.696h86.87q49.174 0 85.282-30.554 36.109-30.555 44.348-76.533H280q-19.152 0-32.326-13.174T234.5 417.913q0-19.152 13.174-32.326T280 372.413h260.739q-16.043-32.848-48.587-53.196Q459.609 298.87 420 298.87H280q-19.152 0-32.326-13.174T234.5 253.37q0-19.153 13.174-32.327T280 207.869h400q19.152 0 32.326 13.174T725.5 253.37q0 19.152-13.174 32.326T680 298.87h-81.869q12.565 14.847 23.326 33.891 10.761 19.043 16.521 39.652H680q19.152 0 32.326 13.174t13.174 32.326q0 19.152-13.174 32.326T680 463.413h-35.978q-8.718 84.044-70.239 140.348-61.522 56.304-147.087 57.261h-23.5l196.348 205.543q20.63 21.87 8.576 49.718-12.055 27.848-41.881 27.848Z"/></svg>