<?xml version="1.0" encoding="UTF-8" standalone="no"?>
<svg
   height="100%"
   viewBox="0 96 960 960"
   version="1.1"
   xmlns="http://www.w3.org/2000/svg"
   xmlns:svg="http://www.w3.org/2000/svg">
  <path fill="currentColor"
     d="m 512.76631,455.85696 v 229.36402 c 0,12.06892 9.77531,21.84421 21.84424,21.84421 h 65.53251 c 12.06893,0 21.84424,-9.77529 21.84424,-21.84421 V 455.85696 c 0,-102.54483 -83.13078,-185.67566 -185.67563,-185.67566 H 206.94759 c -18.08972,0 -32.76629,14.66293 -32.76629,32.76629 V 859.9745 c 0,12.06892 9.77529,21.8442 21.84419,21.8442 h 65.53259 c 12.06891,0 21.84419,-9.77528 21.84419,-21.8442 V 379.40227 h 152.9094 c 42.22748,0 76.45464,34.22712 76.45464,76.45469 z M 763.97445,270.1813 h -65.53251 c -12.06892,0 -21.84413,9.77529 -21.84413,21.84419 v 404.11758 c 0,42.22757 -34.22717,76.45469 -76.45474,76.45469 H 447.23369 V 466.77905 c 0,-12.06892 -9.77531,-21.84419 -21.84424,-21.84419 h -65.53248 c -12.06893,0 -21.84422,9.77527 -21.84422,21.84419 v 382.27338 c 0,18.08971 14.67658,32.76627 32.76629,32.76627 h 229.36403 c 102.54485,0 185.67563,-83.13082 185.67563,-185.67563 V 292.02549 c 0,-12.0689 -9.77531,-21.84419 -21.84425,-21.84419 z"
     id="path1-5"
     style="stroke-width:1.36526" />
</svg>