<?xml version="1.0" encoding="UTF-8" standalone="no"?>
<!DOCTYPE svg PUBLIC "-//W3C//DTD SVG 1.1//EN" "http://www.w3.org/Graphics/SVG/1.1/DTD/svg11.dtd">
<!-- Created with Vectornator (http://vectornator.io/) -->
<svg height="100%" stroke-miterlimit="10" style="fill-rule:nonzero;clip-rule:evenodd;stroke-linecap:round;stroke-linejoin:round;" version="1.1" viewBox="0 0 24 24" width="100%" xml:space="preserve" xmlns="http://www.w3.org/2000/svg" xmlns:xlink="http://www.w3.org/1999/xlink">
<defs/>
<g id="Layer-1">
<path fill="currentColor" d="M6.2245 3C5.54823 3 5 3.54823 5 4.2245L5 4.375L5 4.5255C5 5.20177 5.54823 5.75 6.2245 5.75L12 5.75L17.7755 5.75C18.4518 5.75 19 5.20177 19 4.5255L19 4.375L19 4.2245C19 3.54823 18.4518 3 17.7755 3L12 3L6.2245 3ZM6.2245 6.59375C5.54823 6.59375 5 7.14198 5 7.81825L5 7.96875L5 8.1505C5 8.82677 5.54823 9.375 6.2245 9.375L10.625 9.375L10.625 13.8125L10.625 19.625C10.625 20.3872 11.2378 21 12 21C12.7622 21 13.375 20.3872 13.375 19.625L13.375 13.8125L13.375 9.375L17.7755 9.375C18.4518 9.375 19 8.82677 19 8.1505L19 7.96875L19 7.81825C19 7.14198 18.4518 6.59375 17.7755 6.59375L12 6.59375L6.2245 6.59375Z" fill-rule="nonzero" opacity="1" stroke="none"/>
</g>
</svg>
