<svg xmlns="http://www.w3.org/2000/svg" height="24" viewBox="0 96 960 960" width="24"><path fill="currentColor" d="M439.565 939.587V852.87q-54.913-12.479-93.891-47.794-38.978-35.315-56.739-99.228l80.935-32.152q14.76 48.956 43.902 73.478 29.141 24.522 75.706 24.522 40.283 0 67.228-17.424 26.946-17.424 26.946-54.272 0-33.326-22.239-53.706-22.239-20.381-101.761-45.664-85.043-26.521-117.522-65.097-32.478-38.576-32.478-93.533 0-64.043 41.402-101.239t88.511-43.631v-84.717h83.587v84.717q50.957 8.957 84.174 38.413 33.218 29.457 48.696 72.37l-80.457 34.391q-11.761-31.521-33.88-47.76-22.12-16.24-59.402-16.24-42.326 0-63.772 18.066-21.446 18.065-21.446 44.913 0 31.326 28.207 49.608 28.206 18.283 103.163 39.761 69.956 20.478 106.293 64.576Q671.065 639.326 671.065 698q0 71.957-42.478 109.674-42.478 37.717-105.435 47.196v84.717h-83.587Z"/></svg>