<svg xmlns="http://www.w3.org/2000/svg" height="24" viewBox="0 96 960 960" width="24"><path fill="currentColor" d="M480 944.131q-19.152 0-32.326-13.174T434.5 898.63V787H280q-19.152 0-32.326-13.174T234.5 741.5q0-19.152 13.174-32.326T280 696h154.5v-74.5H280q-19.152 0-32.326-13.174T234.5 576q0-19.152 13.174-32.326T280 530.5h112.956L232.782 277.478q-14.673-22.869-1.739-46.239 12.935-23.37 40.283-23.37 12.435 0 22.631 5.718 10.195 5.717 16.152 15.913L480 497.717 649.891 229.5q5.957-10.196 16.152-15.913 10.196-5.718 22.631-5.718 27.348 0 40.283 23.87 12.934 23.87-1.739 46.739L567.044 530.5H680q19.152 0 32.326 13.174T725.5 576q0 19.152-13.174 32.326T680 621.5H525.5V696H680q19.152 0 32.326 13.174T725.5 741.5q0 19.152-13.174 32.326T680 787H525.5v111.63q0 19.153-13.174 32.327T480 944.131Z"/></svg>