<?xml version="1.0" encoding="UTF-8" standalone="no"?> <!-- Created with Vectornator for iOS (http://vectornator.io/) --><!DOCTYPE svg PUBLIC "-//W3C//DTD SVG 1.1//EN" "http://www.w3.org/Graphics/SVG/1.1/DTD/svg11.dtd">
<svg style="fill-rule:evenodd;clip-rule:evenodd;stroke-linecap:round;stroke-linejoin:round;" xmlns:vectornator="http://vectornator.io" xmlns:xlink="http://www.w3.org/1999/xlink" xmlns="http://www.w3.org/2000/svg" xml:space="preserve" version="1.1" viewBox="0 0 3370.82 2384.24">
<metadata>
<vectornator:setting key="DisplayWhiteBackground" value="0"/>
<vectornator:setting key="RulersVisible" value="1"/>
<vectornator:setting key="Units" value="Millimeters"/>
<vectornator:setting key="New" value="1"/>
<vectornator:setting key="DynamicGuides" value="0"/>
<vectornator:setting key="GuidesVisible" value="1"/>
<vectornator:setting key="SnapToPoints" value="0"/>
<vectornator:setting key="SnapToGrid" value="0"/>
<vectornator:setting key="SnapToGuides" value="1"/>
<vectornator:setting key="DimensionsVisible" value="1"/>
<vectornator:setting key="SnapToEdges" value="0"/>
</metadata>
<defs/>
<g id="Layer 1" vectornator:layerName="Layer 1">
<path d="M2246.18+1263.77L2240.27+1262.8C2239.93+1261.61+2239.45+1260.47+2238.86+1259.4L2242.31+1254.48C2242.59+1254.08+2242.54+1253.54+2242.2+1253.2L2238.31+1249.31C2237.96+1248.96+2237.42+1248.92+2237.02+1249.21L2232.18+1252.69C2231.09+1252.08+2229.94+1251.61+2228.74+1251.26L2227.71+1245.37C2227.63+1244.9+2227.21+1244.55+2226.73+1244.55L2221.23+1244.55C2220.74+1244.55+2220.32+1244.9+2220.24+1245.38L2219.29+1251.24C2218.09+1251.58+2216.93+1252.06+2215.85+1252.65L2211.02+1249.2C2210.62+1248.92+2210.08+1248.96+2209.73+1249.31L2205.84+1253.19C2205.5+1253.54+2205.45+1254.08+2205.73+1254.47L2209.13+1259.34C2208.52+1260.43+2208.04+1261.59+2207.69+1262.8L2201.86+1263.77C2201.38+1263.85+2201.02+1264.27+2201.02+1264.75L2201.02+1270.25C2201.02+1270.74+2201.37+1271.15+2201.85+1271.24L2207.68+1272.27C2208.03+1273.48+2208.51+1274.63+2209.12+1275.73L2205.68+1280.55C2205.39+1280.94+2205.44+1281.49+2205.78+1281.83L2209.67+1285.73C2210.01+1286.07+2210.56+1286.12+2210.95+1285.84L2215.82+1282.43C2216.92+1283.03+2218.07+1283.5+2219.27+1283.85L2220.24+1289.71C2220.32+1290.19+2220.74+1290.55+2221.23+1290.55L2226.73+1290.55C2227.21+1290.55+2227.63+1290.2+2227.71+1289.72L2228.76+1283.83C2229.96+1283.48+2231.11+1283+2232.19+1282.4L2237.09+1285.84C2237.49+1286.12+2238.03+1286.07+2238.37+1285.73L2242.26+1281.83C2242.61+1281.49+2242.65+1280.94+2242.37+1280.54L2238.87+1275.69C2239.46+1274.61+2239.93+1273.46+2240.28+1272.28L2246.19+1271.24C2246.67+1271.15+2247.02+1270.74+2247.02+1270.25L2247.02+1264.75C2247.02+1264.26+2246.67+1263.85+2246.18+1263.77ZM2224.02+1274.55C2220.16+1274.55+2217.02+1271.41+2217.02+1267.55C2217.02+1263.68+2220.16+1260.55+2224.02+1260.55C2227.89+1260.55+2231.02+1263.68+2231.02+1267.55C2231.02+1271.41+2227.89+1274.55+2224.02+1274.55Z" opacity="1" fill="#000000"/>
</g>
</svg>
