<?xml version="1.0" encoding="UTF-8" standalone="no"?>
<!DOCTYPE svg PUBLIC "-//W3C//DTD SVG 1.1//EN" "http://www.w3.org/Graphics/SVG/1.1/DTD/svg11.dtd">
<!-- Created with Vectornator (http://vectornator.io/) -->
<svg height="100%" stroke-miterlimit="10" style="fill-rule:nonzero;clip-rule:evenodd;stroke-linecap:round;stroke-linejoin:round;" version="1.1" viewBox="0 0 1024 1024" width="100%" xml:space="preserve" xmlns="http://www.w3.org/2000/svg" xmlns:xlink="http://www.w3.org/1999/xlink">
<defs/>
<g id="Layer-1">
<g opacity="1">
<path d="M193.461 88.4636L285.711 88.4636C305.524 88.4636 321.586 104.525 321.586 124.339L321.586 216.589C321.586 236.402 305.524 252.464 285.711 252.464L193.461 252.464C173.648 252.464 157.586 236.402 157.586 216.589L157.586 124.339C157.586 104.525 173.648 88.4636 193.461 88.4636Z" fill="currentColor" fill-rule="nonzero" opacity="1" stroke="none"/>
<path d="M262.53 115.797L216.697 115.797C196.788 115.797 184.919 127.66 184.919 147.558L184.919 193.314C184.919 213.268 196.788 225.13 216.697 225.13L262.475 225.13C282.384 225.13 294.253 213.268 294.253 193.369L294.253 147.558C294.307 127.66 282.439 115.797 262.53 115.797ZM228.182 193.369C228.182 196.868 225.338 199.71 221.783 199.71C218.283 199.71 215.439 196.868 215.439 193.369L215.439 175.548C215.439 172.049 218.283 169.206 221.783 169.206C225.338 169.206 228.182 172.049 228.182 175.548L228.182 193.369ZM263.788 193.369C263.788 196.868 260.944 199.71 257.444 199.71C253.888 199.71 251.044 196.868 251.044 193.369L251.044 147.558C251.044 144.06 253.888 141.217 257.444 141.217C260.944 141.217 263.788 144.06 263.788 147.558L263.788 193.369Z" fill="#ffffff" fill-rule="nonzero" opacity="1" stroke="none"/>
</g>
<g opacity="1">
<path d="M785.507 132.588L877.757 132.588C897.57 132.588 913.632 148.65 913.632 168.463L913.632 260.713C913.632 280.526 897.57 296.588 877.757 296.588L785.507 296.588C765.694 296.588 749.632 280.526 749.632 260.713L749.632 168.463C749.632 148.65 765.694 132.588 785.507 132.588Z" fill="currentColor" fill-rule="nonzero" opacity="1" stroke="none"/>
<g opacity="1">
<path d="M825.878 260.048L825.878 169.128C825.878 160.497 822.195 157.044 813.045 157.044L789.798 157.044C780.648 157.044 776.965 160.497 776.965 169.128L776.965 260.048C776.965 268.679 780.648 272.132 789.798 272.132L813.045 272.132C822.195 272.132 825.878 268.679 825.878 260.048Z" fill="#ffffff" fill-rule="nonzero" opacity="1" stroke="none"/>
<path d="M886.299 208.258L886.299 169.128C886.299 160.497 882.616 157.044 873.466 157.044L850.219 157.044C841.069 157.044 837.386 160.497 837.386 169.128L837.386 208.258C837.386 216.89 841.069 220.342 850.219 220.342L873.466 220.342C882.616 220.342 886.299 216.89 886.299 208.258Z" fill="#ffffff" fill-rule="nonzero" opacity="1" stroke="none"/>
<path d="M886.299 260.048L886.299 243.935C886.299 235.304 882.616 231.851 873.466 231.851L850.219 231.851C841.069 231.851 837.386 235.304 837.386 243.935L837.386 260.048C837.386 268.679 841.069 272.132 850.219 272.132L873.466 272.132C882.616 272.132 886.299 268.679 886.299 260.048Z" fill="#ffffff" fill-rule="nonzero" opacity="1" stroke="none"/>
</g>
</g>
<g opacity="1">
<path d="M794.56 740.975L886.81 740.975C906.624 740.975 922.685 757.037 922.685 776.85L922.685 869.1C922.685 888.913 906.624 904.975 886.81 904.975L794.56 904.975C774.747 904.975 758.685 888.913 758.685 869.1L758.685 776.85C758.685 757.037 774.747 740.975 794.56 740.975Z" fill="currentColor" fill-rule="nonzero" opacity="1" stroke="none"/>
<g opacity="1">
<path d="M862.55 766.639C860.191 764.28 856.105 765.891 856.105 769.171L856.105 789.254C856.105 797.655 863.241 804.618 871.93 804.618C877.397 804.676 884.992 804.676 891.495 804.676C894.775 804.676 896.501 800.82 894.199 798.519C885.913 790.175 871.067 775.156 862.55 766.639Z" fill="#ffffff" fill-rule="nonzero" opacity="1" stroke="none"/>
<path d="M889.598 812.559L872.968 812.559C859.33 812.559 848.224 801.453 848.224 787.815L848.224 771.185C848.224 768.02 845.634 765.431 842.469 765.431L818.071 765.431C800.347 765.431 786.019 776.94 786.019 797.483L786.019 848.467C786.019 869.01 800.347 880.519 818.071 880.519L863.3 880.519C881.024 880.519 895.352 869.01 895.352 848.467L895.352 818.314C895.352 815.149 892.763 812.559 889.598 812.559ZM837.808 856.062L814.791 856.062C812.431 856.062 810.475 854.106 810.475 851.747C810.475 849.387 812.431 847.431 814.791 847.431L837.808 847.431C840.168 847.431 842.124 849.387 842.124 851.747C842.124 854.106 840.168 856.062 837.808 856.062ZM849.317 833.045L814.791 833.045C812.431 833.045 810.475 831.088 810.475 828.729C810.475 826.37 812.431 824.413 814.791 824.413L849.317 824.413C851.676 824.413 853.633 826.37 853.633 828.729C853.633 831.088 851.676 833.045 849.317 833.045Z" fill="#ffffff" fill-rule="nonzero" opacity="1" stroke="none"/>
</g>
</g>
<g opacity="1">
<path d="M218.123 743.575L310.373 743.575C330.186 743.575 346.248 759.637 346.248 779.45L346.248 871.7C346.248 891.513 330.186 907.575 310.373 907.575L218.123 907.575C198.31 907.575 182.248 891.513 182.248 871.7L182.248 779.45C182.248 759.637 198.31 743.575 218.123 743.575Z" fill="currentColor" fill-rule="nonzero" opacity="1" stroke="none"/>
<g opacity="1">
<path d="M310.188 802.198L267.104 827.153C265.369 828.16 263.187 828.16 261.396 827.153L218.312 802.198C215.234 800.407 214.451 796.211 216.801 793.581C218.424 791.734 220.27 790.224 222.228 789.161L252.556 772.374C259.046 768.737 269.566 768.737 276.056 772.374L306.383 789.161C308.342 790.224 310.188 791.79 311.811 793.581C314.049 796.211 313.266 800.407 310.188 802.198Z" fill="#ffffff" fill-rule="nonzero" opacity="1" stroke="none"/>
<path d="M261.059 837.561L261.059 875.721C261.059 879.974 256.751 882.771 252.946 880.925C241.419 875.274 222.003 864.698 222.003 864.698C215.177 860.837 209.582 851.101 209.582 843.1L209.582 814.228C209.582 809.807 214.226 807.01 218.031 809.192L258.262 832.525C259.94 833.588 261.059 835.49 261.059 837.561Z" fill="#ffffff" fill-rule="nonzero" opacity="1" stroke="none"/>
<path d="M267.437 837.561L267.437 875.721C267.437 879.974 271.746 882.771 275.55 880.925C287.077 875.274 306.493 864.698 306.493 864.698C313.319 860.837 318.915 851.101 318.915 843.1L318.915 814.228C318.915 809.807 314.271 807.01 310.466 809.192L270.235 832.525C268.556 833.588 267.437 835.49 267.437 837.561Z" fill="#ffffff" fill-rule="nonzero" opacity="1" stroke="none"/>
</g>
</g>
<g opacity="1">
<path d="M488.592 414.578L580.842 414.578C600.655 414.578 616.717 430.64 616.717 450.453L616.717 542.703C616.717 562.516 600.655 578.578 580.842 578.578L488.592 578.578C468.779 578.578 452.717 562.516 452.717 542.703L452.717 450.453C452.717 430.64 468.779 414.578 488.592 414.578Z" fill="currentColor" fill-rule="nonzero" opacity="1" stroke="none"/>
<g opacity="1">
<g opacity="1">
<path d="M518.457 442.024C504.163 442.024 492.543 453.644 492.543 467.937C492.543 481.958 503.509 493.305 517.802 493.796C518.238 493.741 518.675 493.741 519.002 493.796C519.111 493.796 519.166 493.796 519.275 493.796C519.33 493.796 519.33 493.796 519.384 493.796C533.35 493.305 544.315 481.958 544.37 467.937C544.37 453.644 532.75 442.024 518.457 442.024Z" fill="#ffffff" fill-rule="nonzero" opacity="1" stroke="none"/>
<path d="M546.17 508.307C530.95 498.16 506.127 498.16 490.797 508.307C483.869 512.944 480.05 519.218 480.05 525.928C480.05 532.638 483.869 538.857 490.743 543.44C498.38 548.568 508.418 551.132 518.456 551.132C528.495 551.132 538.533 548.568 546.17 543.44C553.044 538.803 556.863 532.584 556.863 525.819C556.808 519.109 553.044 512.889 546.17 508.307Z" fill="#ffffff" fill-rule="nonzero" opacity="1" stroke="none"/>
<path d="M578.411 471.156C579.284 481.74 571.756 491.014 561.336 492.269C561.281 492.269 561.281 492.269 561.227 492.269L561.063 492.269C560.736 492.269 560.408 492.269 560.136 492.378C554.844 492.651 549.989 490.96 546.333 487.85C551.953 482.831 555.171 475.302 554.517 467.119C554.135 462.7 552.607 458.663 550.316 455.226C552.389 454.19 554.789 453.535 557.244 453.317C567.937 452.39 577.484 460.355 578.411 471.156Z" fill="#ffffff" fill-rule="nonzero" opacity="1" stroke="none"/>
<path d="M589.324 521.618C588.888 526.91 585.505 531.492 579.831 534.602C574.376 537.603 567.502 539.021 560.683 538.857C564.611 535.311 566.902 530.892 567.339 526.201C567.884 519.436 564.665 512.944 558.228 507.761C554.573 504.87 550.318 502.579 545.68 500.887C557.737 497.396 572.903 499.742 582.232 507.27C587.251 511.307 589.815 516.381 589.324 521.618Z" fill="#ffffff" fill-rule="nonzero" opacity="1" stroke="none"/>
</g>
</g>
</g>
<g opacity="1">
<path d="M136.957 426.636L229.207 426.636C249.02 426.636 265.082 442.697 265.082 462.511L265.082 554.761C265.082 574.574 249.02 590.636 229.207 590.636L136.957 590.636C117.144 590.636 101.082 574.574 101.082 554.761L101.082 462.511C101.082 442.697 117.144 426.636 136.957 426.636Z" fill="currentColor" fill-rule="nonzero" opacity="1" stroke="none"/>
<g opacity="1">
<path d="M211.935 459.648L211.935 450.172C211.935 447.682 209.87 445.617 207.379 445.617C204.889 445.617 202.824 447.682 202.824 450.172L202.824 459.284L163.342 459.284L163.342 450.172C163.342 447.682 161.277 445.617 158.787 445.617C156.297 445.617 154.231 447.682 154.231 450.172L154.231 459.648C137.831 461.167 129.874 470.946 128.66 485.463C128.538 487.224 129.996 488.682 131.697 488.682L234.47 488.682C236.231 488.682 237.689 487.164 237.507 485.463C236.292 470.946 228.335 461.167 211.935 459.648Z" fill="#ffffff" fill-rule="nonzero" opacity="1" stroke="none"/>
<path d="M231.674 497.794L134.489 497.794C131.149 497.794 128.415 500.527 128.415 503.868L128.415 541.284C128.415 559.506 137.526 571.655 158.786 571.655L207.378 571.655C228.637 571.655 237.749 559.506 237.749 541.284L237.749 503.868C237.749 500.527 235.015 497.794 231.674 497.794ZM200.332 529.075L197.295 532.173L197.234 532.173L178.83 550.578C178.04 551.367 176.4 552.218 175.246 552.339L167.046 553.554C164.07 553.979 162.005 551.853 162.43 548.937L163.584 540.677C163.766 539.523 164.556 537.943 165.346 537.093L183.811 518.689L186.848 515.591C188.852 513.586 191.1 512.129 193.529 512.129C195.594 512.129 197.842 513.1 200.332 515.591C205.799 521.058 204.037 525.37 200.332 529.075Z" fill="#ffffff" fill-rule="nonzero" opacity="1" stroke="none"/>
</g>
</g>
</g>
</svg>
