<svg width="24" height="24" viewBox="0 0 24 24" fill="none" xmlns="http://www.w3.org/2000/svg">
<path d="M22 7.81007V16.1901C22 19.4001 19.4 22.0001 16.19 22.0001H7.81C4.6 22.0001 2 19.4001 2 16.1901V7.81007C2 5.32007 3.02 3.51007 4.83 2.63007C5.49 2.31007 6.25 2.81007 6.25 3.54007V12.4201C6.25 13.6101 6.71 14.5601 7.54 15.0401C8.38 15.5101 9.44 15.4101 10.52 14.7601L11.82 13.9801C11.9 13.9401 12.1 13.9401 12.16 13.9701L13.48 14.7601C14.2 15.1901 14.82 15.3301 15.32 15.3301C15.84 15.3301 16.24 15.1701 16.48 15.0301C17.29 14.5601 17.75 13.6101 17.75 12.4201V3.54007C17.75 2.81007 18.52 2.31007 19.17 2.63007C20.98 3.51007 22 5.32007 22 7.81007Z" fill="currentColor"/>
<path d="M15.25 2C15.8 2 16.25 2.45 16.25 3V12.42C16.25 13.06 16.06 13.54 15.73 13.73C15.39 13.93 14.85 13.83 14.25 13.47L12.93 12.68C12.42 12.37 11.58 12.37 11.07 12.68L9.75 13.47C9.15 13.83 8.61 13.92 8.27 13.73C7.94 13.54 7.75 13.06 7.75 12.42V3C7.75 2.45 8.2 2 8.75 2H15.25Z" fill="currentColor"/>
</svg>
