<svg width="24" height="24" viewBox="0 0 24 24" fill="none" xmlns="http://www.w3.org/2000/svg">
<path d="M16.7502 3.56V2C16.7502 1.59 16.4102 1.25 16.0002 1.25C15.5902 1.25 15.2502 1.59 15.2502 2V3.5H8.75023V2C8.75023 1.59 8.41023 1.25 8.00023 1.25C7.59023 1.25 7.25023 1.59 7.25023 2V3.56C4.55023 3.81 3.24023 5.42 3.04023 7.81C3.02023 8.1 3.26023 8.34 3.54023 8.34H20.4602C20.7502 8.34 20.9902 8.09 20.9602 7.81C20.7602 5.42 19.4502 3.81 16.7502 3.56Z" fill="currentColor"/>
<path d="M20 9.84009H4C3.45 9.84009 3 10.2901 3 10.8401V17.0001C3 20.0001 4.5 22.0001 8 22.0001H16C19.5 22.0001 21 20.0001 21 17.0001V10.8401C21 10.2901 20.55 9.84009 20 9.84009ZM14.84 14.9901L14.34 15.5001H14.33L11.3 18.5301C11.17 18.6601 10.9 18.8001 10.71 18.8201L9.36 19.0201C8.87 19.0901 8.53 18.7401 8.6 18.2601L8.79 16.9001C8.82 16.7101 8.95 16.4501 9.08 16.3101L12.12 13.2801L12.62 12.7701C12.95 12.4401 13.32 12.2001 13.72 12.2001C14.06 12.2001 14.43 12.3601 14.84 12.7701C15.74 13.6701 15.45 14.3801 14.84 14.9901Z" fill="currentColor"/>
</svg>
