<?xml version="1.0" encoding="UTF-8" standalone="no"?>
<!DOCTYPE svg PUBLIC "-//W3C//DTD SVG 1.1//EN" "http://www.w3.org/Graphics/SVG/1.1/DTD/svg11.dtd">
<!-- Created with Vectornator (http://vectornator.io/) -->
<svg height="100%" stroke-miterlimit="10" style="fill-rule:nonzero;clip-rule:evenodd;stroke-linecap:round;stroke-linejoin:round;" version="1.1" viewBox="0 0 24 24" width="100%" xml:space="preserve" xmlns="http://www.w3.org/2000/svg" xmlns:xlink="http://www.w3.org/1999/xlink">
<defs/>
<g id="Untitled">
<path d="M15.7997 2.20999C15.3897 1.79999 14.6797 2.07999 14.6797 2.64999L14.6797 6.13999C14.6797 7.59999 15.9197 8.80999 17.4297 8.80999C18.3797 8.81999 19.6997 8.81999 20.8297 8.81999C21.3997 8.81999 21.6997 8.14999 21.2997 7.74999C19.8597 6.29999 17.2797 3.68999 15.7997 2.20999Z" fill="currentColor" fill-rule="nonzero" opacity="1" stroke="none"/>
<path d="M8.0625 2C4.9825 2 2.5 3.9925 2.5 7.5625L2.5 16.4375C2.5 20.0075 4.9825 22 8.0625 22L15.9375 22C19.0175 22 21.5 20.0075 21.5 16.4375L21.5 11.1875C21.5 10.6375 21.05 10.1875 20.5 10.1875L17.625 10.1875C15.255 10.1875 13.3125 8.245 13.3125 5.875L13.3125 3C13.3125 2.45 12.8625 2 12.3125 2L8.0625 2ZM12.1562 13.4688C12.6872 13.4688 13.1564 13.6248 13.5312 13.9062C13.9061 14.1877 14.1068 14.5895 14.125 15.125L13.0938 15.125C13.0755 14.8219 12.9648 14.5964 12.7188 14.4688C12.5547 14.3844 12.3376 14.3438 12.0938 14.3438C11.8226 14.3438 11.5993 14.3906 11.4375 14.5C11.2757 14.6094 11.2188 14.7728 11.2188 14.9688C11.2188 15.1488 11.278 15.2861 11.4375 15.375C11.54 15.4342 11.7588 15.514 12.0938 15.5938L12.9688 15.7812C13.3493 15.8724 13.6501 16.0036 13.8438 16.1562C14.1445 16.3932 14.2812 16.7386 14.2812 17.1875C14.2812 17.6478 14.1021 18.0396 13.75 18.3438C13.3979 18.6479 12.8926 18.7812 12.25 18.7812C11.5937 18.7812 11.0947 18.6434 10.7188 18.3438C10.3428 18.0441 10.1562 17.6178 10.1562 17.0938L11.1562 17.0938C11.1882 17.3239 11.2503 17.5111 11.3438 17.625C11.5146 17.8324 11.804 17.9375 12.2188 17.9375C12.4671 17.9375 12.6576 17.8984 12.8125 17.8438C13.1064 17.7389 13.2812 17.5348 13.2812 17.25C13.2812 17.0837 13.2083 16.9661 13.0625 16.875C12.9167 16.7861 12.6872 16.7246 12.375 16.6562L11.8125 16.5312C11.2884 16.4128 10.9505 16.264 10.75 16.125C10.4105 15.8926 10.2188 15.5257 10.2188 15.0312C10.2188 14.5801 10.3906 14.2048 10.7188 13.9062C11.0469 13.6077 11.5205 13.4688 12.1562 13.4688ZM7.40625 13.5312C8.25391 13.5312 8.85807 13.7878 9.25 14.3438C9.46647 14.6559 9.5778 14.998 9.59375 15.3125L8.53125 15.3125C8.46289 15.071 8.38835 14.873 8.28125 14.75C8.08984 14.5312 7.81348 14.4375 7.4375 14.4375C7.05469 14.4375 6.75228 14.5662 6.53125 14.875C6.31022 15.1838 6.1875 15.6224 6.1875 16.1875C6.1875 16.7526 6.29769 17.1873 6.53125 17.4688C6.76481 17.7502 7.07747 17.875 7.4375 17.875C7.80664 17.875 8.08757 17.7728 8.28125 17.5312C8.38835 17.4014 8.46061 17.1973 8.53125 16.9375L9.59375 16.9375C9.5026 17.4867 9.27995 17.9372 8.90625 18.2812C8.53027 18.6253 8.02311 18.8125 7.4375 18.8125C6.71289 18.8125 6.16471 18.5586 5.75 18.0938C5.33529 17.6266 5.125 17.001 5.125 16.1875C5.125 15.3079 5.34082 14.6325 5.8125 14.1562C6.22266 13.7415 6.77279 13.5312 7.40625 13.5312ZM14.6875 13.625L15.8125 13.625L16.9062 17.4375L18 13.625L19.0938 13.625L17.375 18.6562L16.375 18.6562L14.6875 13.625Z" fill="currentColor" fill-rule="nonzero" opacity="1" stroke="none"/>
</g>
</svg>
