<?xml version="1.0" encoding="UTF-8" standalone="no"?>
<!DOCTYPE svg PUBLIC "-//W3C//DTD SVG 1.1//EN" "http://www.w3.org/Graphics/SVG/1.1/DTD/svg11.dtd">
<!-- Created with Vectornator (http://vectornator.io/) -->
<svg height="100%" stroke-miterlimit="10" style="fill-rule:nonzero;clip-rule:evenodd;stroke-linecap:round;stroke-linejoin:round;" version="1.1" viewBox="0 0 24 24" width="100%" xml:space="preserve" xmlns="http://www.w3.org/2000/svg" xmlns:xlink="http://www.w3.org/1999/xlink">
<defs/>
<g id="Untitled">
<g opacity="1">
<path d="M19.0277 4.97692C17.0877 3.03692 15.1877 2.98692 13.1977 4.97692L11.9877 6.18692C11.8877 6.28692 11.8477 6.44692 11.8877 6.58693C12.6477 9.23692 14.7677 11.3569 17.4177 12.1169C17.4577 12.1269 17.4977 12.1369 17.5377 12.1369C17.6477 12.1369 17.7477 12.0969 17.8277 12.0169L19.0277 10.8069C20.0177 9.82692 20.4977 8.87692 20.4977 7.91692C20.5077 6.92692 20.0277 5.96692 19.0277 4.97692Z" fill="currentColor" fill-rule="nonzero" opacity="1" stroke="none"/>
<path d="M15.6184 13.0269C15.3284 12.8869 15.0484 12.7469 14.7784 12.5869C14.5584 12.4569 14.3484 12.3169 14.1384 12.1669C13.9684 12.0569 13.7684 11.8969 13.5784 11.7369C13.5584 11.7269 13.4884 11.6669 13.4084 11.5869C13.0784 11.3069 12.7084 10.9469 12.3784 10.5469C12.3484 10.5269 12.2984 10.4569 12.2284 10.3669C12.1284 10.2469 11.9584 10.0469 11.8084 9.81694C11.6884 9.66693 11.5484 9.44693 11.4184 9.22693C11.2584 8.95693 11.1184 8.68693 10.9784 8.40693C10.9572 8.36153 10.9367 8.31637 10.9169 8.27146C10.7693 7.93815 10.3346 7.8407 10.0769 8.09846L4.34837 13.8269C4.21837 13.9569 4.09837 14.2069 4.06837 14.3769L3.52837 18.2069C3.42837 18.8869 3.61837 19.5269 4.03837 19.9569C4.39837 20.3069 4.89837 20.4969 5.43837 20.4969C5.55837 20.4969 5.67837 20.4869 5.79837 20.4669L9.63837 19.9269C9.81837 19.8969 10.0684 19.7769 10.1884 19.6469L15.9097 13.9256C16.1693 13.6661 16.0714 13.2206 15.7338 13.0766C15.6958 13.0603 15.6573 13.0438 15.6184 13.0269Z" fill="currentColor" fill-rule="nonzero" opacity="1" stroke="none"/>
</g>
</g>
</svg>
