<?xml version="1.0" encoding="UTF-8" standalone="no"?>
<!DOCTYPE svg PUBLIC "-//W3C//DTD SVG 1.1//EN" "http://www.w3.org/Graphics/SVG/1.1/DTD/svg11.dtd">
<!-- Created with Vectornator (http://vectornator.io/) -->
<svg height="100%" stroke-miterlimit="10" style="fill-rule:nonzero;clip-rule:evenodd;stroke-linecap:round;stroke-linejoin:round;" version="1.1" viewBox="0 0 24 24" width="100%" xml:space="preserve" xmlns="http://www.w3.org/2000/svg" xmlns:xlink="http://www.w3.org/1999/xlink">
<defs/>
<g id="Untitled">
<path d="M11.9352 1.39968C5.89774 1.39968 1.01702 6.31639 1.01702 12.399C1.01702 17.2612 4.14427 21.3769 8.48259 22.8336C9.02499 22.9431 9.22367 22.5969 9.22367 22.3057C9.22367 22.0507 9.20579 21.1767 9.20579 20.266C6.16861 20.9217 5.53614 18.9548 5.53614 18.9548C5.04805 17.68 4.32484 17.3524 4.32484 17.3524C3.33078 16.6786 4.39725 16.6786 4.39725 16.6786C5.49994 16.7514 6.07854 17.8076 6.07854 17.8076C7.05451 19.4829 8.62719 19.0095 9.25988 18.7181C9.35017 18.0079 9.63958 17.5162 9.94687 17.2431C7.5245 16.9881 4.97586 16.0412 4.97586 11.8162C4.97586 10.6143 5.40943 9.63092 6.09642 8.86615C5.98803 8.59305 5.60833 7.46377 6.20504 5.95233C6.20504 5.95233 7.12692 5.6609 9.20557 7.08138C10.0955 6.84061 11.0133 6.71813 11.9352 6.7171C12.8571 6.7171 13.7969 6.84471 14.6647 7.08138C16.7435 5.6609 17.6654 5.95233 17.6654 5.95233C18.2621 7.46377 17.8822 8.59305 17.7738 8.86615C18.4789 9.63092 18.8946 10.6143 18.8946 11.8162C18.8946 16.0412 16.346 16.9698 13.9055 17.2431C14.3033 17.5891 14.6466 18.2445 14.6466 19.2826C14.6466 20.7576 14.6287 21.9415 14.6287 22.3055C14.6287 22.5969 14.8276 22.9431 15.3698 22.8338C19.7081 21.3767 22.8353 17.2612 22.8353 12.399C22.8532 6.31639 17.9546 1.39968 11.9352 1.39968Z" fill="currentColor" fill-rule="evenodd" opacity="1" stroke="none"/>
</g>
</svg>
