<?xml version="1.0" encoding="UTF-8" standalone="no"?>
<!DOCTYPE svg PUBLIC "-//W3C//DTD SVG 1.1//EN" "http://www.w3.org/Graphics/SVG/1.1/DTD/svg11.dtd">
<!-- Created with Vectornator (http://vectornator.io/) -->
<svg height="100%" stroke-miterlimit="10" style="fill-rule:nonzero;clip-rule:evenodd;stroke-linecap:round;stroke-linejoin:round;" version="1.1" viewBox="0 0 24 24" width="100%" xml:space="preserve" xmlns="http://www.w3.org/2000/svg" xmlns:xlink="http://www.w3.org/1999/xlink">
<defs/>
<g id="Untitled">
<path d="M15.7997 2.20999C15.3897 1.79999 14.6797 2.07999 14.6797 2.64999L14.6797 6.13999C14.6797 7.59999 15.9197 8.80999 17.4297 8.80999C18.3797 8.81999 19.6997 8.81999 20.8297 8.81999C21.3997 8.81999 21.6997 8.14999 21.2997 7.74999C19.8597 6.29999 17.2797 3.68999 15.7997 2.20999Z" fill="currentColor" fill-rule="nonzero" opacity="1" stroke="none"/>
<path d="M8.0625 2C4.9825 2 2.5 3.9925 2.5 7.5625L2.5 16.4375C2.5 20.0075 4.9825 22 8.0625 22L15.9375 22C19.0175 22 21.5 20.0075 21.5 16.4375L21.5 11.1875C21.5 10.6375 21.05 10.1875 20.5 10.1875L17.625 10.1875C15.255 10.1875 13.3125 8.245 13.3125 5.875L13.3125 3C13.3125 2.45 12.8625 2 12.3125 2L8.0625 2ZM7.5 13.7188C7.61733 13.7134 7.72183 13.7187 7.8125 13.7188C8.44183 13.7188 8.93458 13.8351 9.28125 14.0938C9.62792 14.3524 9.78125 14.7883 9.78125 15.375C9.78125 15.967 9.63058 16.3922 9.28125 16.6562C8.93192 16.9203 8.42125 17.0625 7.78125 17.0625L7.4375 17.0625L7.4375 18.7188L6.4375 18.7188L6.4375 13.8438C6.5335 13.8224 6.66125 13.7973 6.78125 13.7812C6.90125 13.7652 7.00233 13.758 7.125 13.75C7.24767 13.742 7.38267 13.7241 7.5 13.7188ZM11.625 13.7188C11.9503 13.7188 12.2619 13.7477 12.5312 13.8438C12.8006 13.9398 13.0321 14.1072 13.2188 14.3125C13.4054 14.5178 13.5522 14.7764 13.6562 15.0938C13.7603 15.4111 13.8125 15.802 13.8125 16.25C13.8125 16.7087 13.7397 17.0836 13.625 17.4062C13.5103 17.7289 13.3589 17.9848 13.1562 18.1875C12.9536 18.3902 12.7175 18.5629 12.4375 18.6562C12.1575 18.7496 11.836 18.7813 11.5 18.7812C11.324 18.7812 11.168 18.7687 11 18.75C10.832 18.7313 10.6295 18.6989 10.4375 18.6562L10.4375 13.8438C10.6615 13.7958 10.8964 13.766 11.0938 13.75C11.2911 13.734 11.4543 13.7187 11.625 13.7188ZM14.5312 13.7812L17.5625 13.7812L17.5625 14.5938L15.5 14.5938L15.5 15.7812L17.2812 15.7812L17.2812 16.5938L15.5 16.5938L15.5 18.7188L14.5312 18.7188L14.5312 13.7812ZM7.6875 14.5625C7.5835 14.5652 7.49616 14.5831 7.4375 14.5938L7.4375 16.1875L7.84375 16.1875C8.15842 16.1875 8.37125 16.1253 8.53125 16C8.69125 15.8747 8.78125 15.679 8.78125 15.375C8.78125 15.087 8.71983 14.87 8.5625 14.75C8.40517 14.63 8.16758 14.5625 7.90625 14.5625C7.84758 14.5625 7.7915 14.5598 7.6875 14.5625ZM11.5625 14.5625C11.5092 14.5652 11.4802 14.5831 11.4375 14.5938L11.4375 17.9062C11.4642 17.9116 11.4993 17.9375 11.5312 17.9375C11.5632 17.9375 11.5671 17.9375 11.5938 17.9375C11.8178 17.9375 12.0355 17.8978 12.1875 17.8125C12.3395 17.7272 12.4379 17.5868 12.5312 17.4375C12.6246 17.2882 12.71 17.1116 12.75 16.9062C12.79 16.7009 12.8125 16.4953 12.8125 16.25C12.8125 16.0367 12.782 15.8277 12.75 15.625C12.718 15.4223 12.6737 15.2484 12.5938 15.0938C12.5138 14.9391 12.3887 14.8121 12.25 14.7188C12.1113 14.6254 11.9374 14.5625 11.7188 14.5625C11.6761 14.5625 11.6158 14.5598 11.5625 14.5625Z" fill="currentColor" fill-rule="nonzero" opacity="1" stroke="none"/>
</g>
</svg>
