<svg xmlns="http://www.w3.org/2000/svg" height="24" viewBox="0 96 960 960" width="24"><path fill="currentColor" d="M441.913 987.718q-36.354 0-62.242-25.889-25.889-25.888-25.889-62.242V744.131H244.783q-37.783 0-64.392-26.609-26.609-26.609-26.609-64.392V382.696q0-75.326 51.544-126.87 51.544-51.544 126.87-51.544h474.022V653.13q0 37.783-26.609 64.392-26.609 26.609-64.392 26.609H606.218v155.456q0 36.354-25.889 62.242-25.888 25.889-62.242 25.889h-76.174ZM244.783 493.13h470.434V295.283h-40v154.021h-80V295.283h-40v80h-80v-80H332.196q-37.783 0-62.598 24.815-24.815 24.815-24.815 62.598V493.13Zm0 160h470.434v-80H244.783v80Zm0-80v80-80Z"/></svg>