<svg width="24" height="24" viewBox="0 0 24 24" fill="none" xmlns="http://www.w3.org/2000/svg">
<path d="M20.2112 7.81994L12.5112 12.2799C12.2012 12.4599 11.8112 12.4599 11.4912 12.2799L3.79119 7.81994C3.24119 7.49994 3.10119 6.74994 3.52119 6.27994C3.81119 5.94994 4.14119 5.67994 4.49119 5.48994L9.91119 2.48994C11.0712 1.83994 12.9512 1.83994 14.1112 2.48994L19.5312 5.48994C19.8812 5.67994 20.2112 5.95994 20.5012 6.27994C20.9012 6.74994 20.7612 7.49994 20.2112 7.81994Z" fill="currentColor"/>
<path d="M11.431 14.1399V20.9599C11.431 21.7199 10.661 22.2199 9.98096 21.8899C7.92096 20.8799 4.45096 18.9899 4.45096 18.9899C3.23096 18.2999 2.23096 16.5599 2.23096 15.1299V9.96988C2.23096 9.17988 3.06096 8.67988 3.74096 9.06988L10.931 13.2399C11.231 13.4299 11.431 13.7699 11.431 14.1399Z" fill="currentColor"/>
<path d="M12.5708 14.1399V20.9599C12.5708 21.7199 13.3408 22.2199 14.0208 21.8899C16.0808 20.8799 19.5508 18.9899 19.5508 18.9899C20.7708 18.2999 21.7708 16.5599 21.7708 15.1299V9.96988C21.7708 9.17988 20.9408 8.67988 20.2608 9.06988L13.0708 13.2399C12.7708 13.4299 12.5708 13.7699 12.5708 14.1399Z" fill="currentColor"/>
</svg>
