<svg xmlns="http://www.w3.org/2000/svg" height="24" viewBox="0 96 960 960" width="24"><path fill="currentColor" d="M323.587 943.413h-160q-37.538 0-64.269-26.731-26.731-26.731-26.731-64.269V432.63q0-28.108 15.413-51.097 15.413-22.99 41.522-33.185l316.413-126.566q16.152-6.717 34.065-6.717 17.913 0 34.065 6.717l316.413 126.566q26.109 10.195 41.522 33.185 15.413 22.989 15.413 51.097v419.783q0 37.538-26.731 64.269-26.731 26.731-64.269 26.731h-160V630.587H323.587v312.826Zm40 0v-80h80v80h-80Zm76.413-120v-80h80v80h-80Zm76.413 120v-80h80v80h-80Z"/></svg>