<?xml version="1.0" encoding="UTF-8" standalone="no"?>
<!DOCTYPE svg PUBLIC "-//W3C//DTD SVG 1.1//EN" "http://www.w3.org/Graphics/SVG/1.1/DTD/svg11.dtd">
<!-- Created with Vectornator (http://vectornator.io/) -->
<svg height="100%" stroke-miterlimit="10" style="fill-rule:nonzero;clip-rule:evenodd;stroke-linecap:round;stroke-linejoin:round;" version="1.1" viewBox="0 0 24 24" width="100%" xml:space="preserve" xmlns="http://www.w3.org/2000/svg" xmlns:xlink="http://www.w3.org/1999/xlink">
<defs/>
<g id="Untitled">
<path d="M7.8125 2C4.1725 2 2 4.1725 2 7.8125L2 16.1875C2 19.8275 4.1725 22 7.8125 22L16.1875 22C19.8275 22 22 19.8275 22 16.1875L22 7.8125C22 4.1725 19.8275 2 16.1875 2L7.8125 2ZM7.28125 6.09375L9.0625 6.09375C9.70995 6.09375 10.2187 6.63041 10.2188 7.28125L10.2188 7.40625L14.3438 7.40625L14.3438 7.375C14.3438 6.98449 14.674 6.6875 15.0625 6.6875L17.1875 6.6875C17.576 6.6875 17.875 6.98449 17.875 7.375L17.875 8.34375C17.875 8.73426 17.576 9.03125 17.1875 9.03125L15.0625 9.03125C14.674 9.03125 14.3438 8.73426 14.3438 8.34375L14.3438 8.3125L12.75 8.3125L12.75 11.8438L14.3438 11.8438L14.3438 11.8125C14.3438 11.422 14.674 11.125 15.0625 11.125L17.1875 11.125C17.576 11.125 17.875 11.422 17.875 11.8125L17.875 12.7812C17.875 13.1718 17.576 13.4688 17.1875 13.4688L15.0625 13.4688C14.674 13.4688 14.3438 13.1718 14.3438 12.7812L14.3438 12.75L12.75 12.75L12.75 15.5625C12.75 15.9708 13.0626 16.2812 13.4688 16.2812L14.3438 16.2812L14.3438 16.25C14.3438 15.8595 14.674 15.5625 15.0625 15.5625L17.1875 15.5625C17.576 15.5625 17.875 15.8595 17.875 16.25L17.875 17.2188C17.875 17.6093 17.576 17.9062 17.1875 17.9062L15.0625 17.9062C14.674 17.9062 14.3438 17.6093 14.3438 17.2188L14.3438 17.1875L13.4688 17.1875C12.5741 17.1875 11.8438 16.4618 11.8438 15.5625L11.8438 8.3125L10.2188 8.3125L10.2188 8.4375C10.2188 9.08834 9.70995 9.625 9.0625 9.625L7.28125 9.625C6.6338 9.625 6.125 9.08835 6.125 8.4375L6.125 7.28125C6.125 6.6304 6.63381 6.09375 7.28125 6.09375Z" fill="currentColor" fill-rule="nonzero" opacity="1" stroke="none"/>
</g>
</svg>
