<svg width="24" height="24" viewBox="0 0 24 24" fill="none" xmlns="http://www.w3.org/2000/svg">
<path d="M9 2C6.38 2 4.25 4.13 4.25 6.75C4.25 9.32 6.26 11.4 8.88 11.49C8.96 11.48 9.04 11.48 9.1 11.49C9.12 11.49 9.13 11.49 9.15 11.49C9.16 11.49 9.16 11.49 9.17 11.49C11.73 11.4 13.74 9.32 13.75 6.75C13.75 4.13 11.62 2 9 2Z" fill="currentColor"/>
<path d="M14.08 14.1499C11.29 12.2899 6.73996 12.2899 3.92996 14.1499C2.65996 14.9999 1.95996 16.1499 1.95996 17.3799C1.95996 18.6099 2.65996 19.7499 3.91996 20.5899C5.31996 21.5299 7.15996 21.9999 8.99996 21.9999C10.84 21.9999 12.68 21.5299 14.08 20.5899C15.34 19.7399 16.04 18.5999 16.04 17.3599C16.03 16.1299 15.34 14.9899 14.08 14.1499Z" fill="currentColor"/>
<path d="M19.9899 7.3401C20.1499 9.2801 18.7699 10.9801 16.8599 11.2101C16.8499 11.2101 16.8499 11.2101 16.8399 11.2101H16.8099C16.7499 11.2101 16.6899 11.2101 16.6399 11.2301C15.6699 11.2801 14.7799 10.9701 14.1099 10.4001C15.1399 9.4801 15.7299 8.1001 15.6099 6.6001C15.5399 5.7901 15.2599 5.0501 14.8399 4.4201C15.2199 4.2301 15.6599 4.1101 16.1099 4.0701C18.0699 3.9001 19.8199 5.3601 19.9899 7.3401Z" fill="currentColor"/>
<path d="M21.9902 16.5899C21.9102 17.5599 21.2902 18.3999 20.2502 18.9699C19.2502 19.5199 17.9902 19.7799 16.7402 19.7499C17.4602 19.0999 17.8802 18.2899 17.9602 17.4299C18.0602 16.1899 17.4702 14.9999 16.2902 14.0499C15.6202 13.5199 14.8402 13.0999 13.9902 12.7899C16.2002 12.1499 18.9802 12.5799 20.6902 13.9599C21.6102 14.6999 22.0802 15.6299 21.9902 16.5899Z" fill="currentColor"/>
</svg>
