<?xml version="1.0" encoding="UTF-8" standalone="no"?> <!-- Created with Vectornator for iOS (http://vectornator.io/) --><!DOCTYPE svg PUBLIC "-//W3C//DTD SVG 1.1//EN" "http://www.w3.org/Graphics/SVG/1.1/DTD/svg11.dtd">
<svg height="100%" style="fill-rule:evenodd;clip-rule:evenodd;stroke-linecap:round;stroke-linejoin:round;" xmlns:xlink="http://www.w3.org/1999/xlink" xmlns="http://www.w3.org/2000/svg" xml:space="preserve" width="100%" xmlns:vectornator="http://vectornator.io" version="1.1" viewBox="0 0 512 512">
<metadata>
<vectornator:setting key="DynamicGuides" value="1"/>
<vectornator:setting key="Units" value="Points"/>
<vectornator:setting key="GuidesVisible" value="1"/>
<vectornator:setting key="RulersVisible" value="1"/>
<vectornator:setting key="SnapToGuides" value="1"/>
<vectornator:setting key="GridSpacing" value="36"/>
</metadata>
<defs/>
<g id="Untitled" vectornator:layerName="Untitled">
<path d="M12.8+153.6L12.8+140.8C12.8+119.629+30.029+102.4+51.2+102.4L460.8+102.4C481.971+102.4+499.2+119.629+499.2+140.8L499.2+153.6L12.8+153.6Z" opacity="1" fill="none"/>
<path d="M12.8125+153.594L12.8125+422.406C12.8125+443.577+30.0165+460.812+51.1875+460.812L460.812+460.812C481.984+460.813+499.188+443.577+499.188+422.406L499.188+153.594L12.8125+153.594ZM384+256L409.594+256L409.594+294.406L448+294.406L448+320L409.594+320L409.594+358.406L384+358.406L384+320L345.594+320L345.594+294.406L384+294.406L384+256ZM64+294.406L166.406+294.406L166.406+320L64+320L64+294.406Z" opacity="1" fill="#4b4848"/>
<path d="M64+51.2L166.4+51.2L166.4+51.2L166.4+102.4L166.4+102.4L64+102.4L64+102.4L64+51.2L64+51.2Z" opacity="1" fill="#4b4848"/>
<path d="M345.6+51.2L448+51.2L448+51.2L448+102.4L448+102.4L345.6+102.4L345.6+102.4L345.6+51.2L345.6+51.2Z" opacity="1" fill="#4b4848"/>
</g>
<g id="Layer 1" vectornator:layerName="Layer 1">
<g opacity="1">
<path d="M460.8+89.6L460.8+64C460.8+49.86+449.34+38.4+435.2+38.4L358.4+38.4C344.26+38.4+332.8+49.86+332.8+64L332.8+89.6L179.2+89.6L179.2+64C179.2+49.86+167.74+38.4+153.6+38.4L76.8+38.4C62.66+38.4+51.2+49.86+51.2+64L51.2+89.6C22.972+89.6+0+112.563+0+140.8L0+422.4C0+450.628+22.972+473.6+51.2+473.6L460.8+473.6C489.028+473.6+512+450.628+512+422.4L512+140.8C512+112.563+489.028+89.6+460.8+89.6ZM358.4+64L435.2+64L435.2+89.6L358.4+89.6L358.4+64ZM76.8+64L153.6+64L153.6+89.6L76.8+89.6L76.8+64ZM486.4+422.4C486.4+436.54+474.94+448+460.8+448L51.2+448C37.06+448+25.6+436.54+25.6+422.4L25.6+166.4L486.4+166.4C486.4+166.4+486.4+422.4+486.4+422.4ZM25.6+140.8C25.6+126.66+37.06+115.2+51.2+115.2L460.8+115.2C474.94+115.2+486.4+126.66+486.4+140.8L25.6+140.8Z" opacity="1" fill="#4b4848"/>
</g>
</g>
</svg>
