<?xml version="1.0" encoding="utf-8"?>
<!-- Generator: Adobe Illustrator 23.0.2, SVG Export Plug-In . SVG Version: 6.00 Build 0)  -->
<svg version="1.1" id="Слой_1" xmlns="http://www.w3.org/2000/svg" xmlns:xlink="http://www.w3.org/1999/xlink" x="0px" y="0px"
	 viewBox="0 0 503.5 452.4" style="enable-background:new 0 0 503.5 452.4;" xml:space="preserve">
<style type="text/css">
	.st0{fill:#919BAD;}
</style>
<path class="st0" d="M347.9,63.5c0.2,0.1,0.3,0.3,0.3,0.5v-0.3C348.1,63.6,348,63.6,347.9,63.5z M347.9,388.4
	c0.1-0.1,0.2-0.1,0.3-0.2v-0.3C348.2,388,348,388.2,347.9,388.4z M348.2,290.6L348.2,290.6c0-0.1,0-0.2,0.1-0.4
	C348.2,290.3,348.2,290.5,348.2,290.6z M348.2,159.2L348.2,159.2c0,0.5,0.1,0.9,0.2,1.3C348.3,160,348.2,159.6,348.2,159.2z
	 M385,179c0.4,0,0.7,0.3,0.7,0.7V179H385z M385,271.6h0.7v-0.7C385.7,271.3,385.3,271.6,385,271.6z M408.1,176.9L408.1,176.9
	c0-0.3-0.1-0.5-0.1-0.8c0.1,0.4,0.1,0.9,0.1,1.3L408.1,176.9z M347.9,63.5c0.2,0.1,0.3,0.3,0.3,0.5v-0.3
	C348.1,63.6,348,63.6,347.9,63.5z M347.9,388.4c0.1-0.1,0.2-0.1,0.3-0.2v-0.3C348.2,388,348,388.2,347.9,388.4z M348.2,290.6
	L348.2,290.6c0-0.1,0-0.2,0.1-0.4C348.2,290.3,348.2,290.5,348.2,290.6z M348.2,159.2L348.2,159.2c0,0.5,0.1,0.9,0.2,1.3
	C348.3,160,348.2,159.6,348.2,159.2z M385,179c0.4,0,0.7,0.3,0.7,0.7V179H385z M385,271.6h0.7v-0.7
	C385.7,271.3,385.3,271.6,385,271.6z M347.9,63.5c0.2,0.1,0.3,0.3,0.3,0.5v-0.3C348.1,63.6,348,63.6,347.9,63.5z M347.9,388.4
	c0.1-0.1,0.2-0.1,0.3-0.2v-0.3C348.2,388,348,388.2,347.9,388.4z M348.2,290.6L348.2,290.6c0-0.1,0-0.2,0.1-0.4
	C348.2,290.3,348.2,290.5,348.2,290.6z M348.2,159.2L348.2,159.2c0,0.5,0.1,0.9,0.2,1.3C348.3,160,348.2,159.6,348.2,159.2z
	 M385,179c0.4,0,0.7,0.3,0.7,0.7V179H385z M385,271.6h0.7v-0.7C385.7,271.3,385.3,271.6,385,271.6z M408.1,176.9L408.1,176.9
	c0-0.3-0.1-0.5-0.1-0.8c0.1,0.4,0.1,0.9,0.1,1.3L408.1,176.9z M408.1,176.9L408.1,176.9c0-0.3-0.1-0.5-0.1-0.8
	c0.1,0.4,0.1,0.9,0.1,1.3L408.1,176.9z M347.9,63.5c0.2,0.1,0.3,0.3,0.3,0.5v-0.3C348.1,63.6,348,63.6,347.9,63.5z M347.9,388.4
	c0.1-0.1,0.2-0.1,0.3-0.2v-0.3C348.2,388,348,388.2,347.9,388.4z M348.2,290.6L348.2,290.6c0-0.1,0-0.2,0.1-0.4
	C348.2,290.3,348.2,290.5,348.2,290.6z M348.2,159.2L348.2,159.2c0,0.5,0.1,0.9,0.2,1.3C348.3,160,348.2,159.6,348.2,159.2z
	 M385,179c0.4,0,0.7,0.3,0.7,0.7V179H385z M385,271.6h0.7v-0.7C385.7,271.3,385.3,271.6,385,271.6z M408.1,176.9L408.1,176.9
	c0-0.3-0.1-0.5-0.1-0.8c0.1,0.4,0.1,0.9,0.1,1.3L408.1,176.9z M347.9,63.5c0.2,0.1,0.3,0.3,0.3,0.5v-0.3
	C348.1,63.6,348,63.6,347.9,63.5z M347.9,388.4c0.1-0.1,0.2-0.1,0.3-0.2v-0.3C348.2,388,348,388.2,347.9,388.4z M348.2,290.6
	L348.2,290.6c0-0.1,0-0.2,0.1-0.4C348.2,290.3,348.2,290.5,348.2,290.6z M348.2,159.2L348.2,159.2c0,0.5,0.1,0.9,0.2,1.3
	C348.3,160,348.2,159.6,348.2,159.2z M385,179c0.4,0,0.7,0.3,0.7,0.7V179H385z M385,271.6h0.7v-0.7
	C385.7,271.3,385.3,271.6,385,271.6z M347.9,63.5c0.2,0.1,0.3,0.3,0.3,0.5v-0.3C348.1,63.6,348,63.6,347.9,63.5z M347.9,388.4
	c0.1-0.1,0.2-0.1,0.3-0.2v-0.3C348.2,388,348,388.2,347.9,388.4z M348.2,290.6L348.2,290.6c0-0.1,0-0.2,0.1-0.4
	C348.2,290.3,348.2,290.5,348.2,290.6z M348.2,159.2L348.2,159.2c0,0.5,0.1,0.9,0.2,1.3C348.3,160,348.2,159.6,348.2,159.2z
	 M385,179c0.4,0,0.7,0.3,0.7,0.7V179H385z M385,271.6h0.7v-0.7C385.7,271.3,385.3,271.6,385,271.6z M408.1,176.9L408.1,176.9
	c0-0.3-0.1-0.5-0.1-0.8c0.1,0.4,0.1,0.9,0.1,1.3L408.1,176.9z M408.1,176.9L408.1,176.9c0-0.3-0.1-0.5-0.1-0.8
	c0.1,0.4,0.1,0.9,0.1,1.3L408.1,176.9z M347.9,63.5c0.2,0.1,0.3,0.3,0.3,0.5v-0.3C348.1,63.6,348,63.6,347.9,63.5z M347.9,388.4
	c0.1-0.1,0.2-0.1,0.3-0.2v-0.3C348.2,388,348,388.2,347.9,388.4z M348.2,290.6L348.2,290.6c0-0.1,0-0.2,0.1-0.4
	C348.2,290.3,348.2,290.5,348.2,290.6z M348.2,159.2L348.2,159.2c0,0.5,0.1,0.9,0.2,1.3C348.3,160,348.2,159.6,348.2,159.2z
	 M385,179c0.4,0,0.7,0.3,0.7,0.7V179H385z M385,271.6h0.7v-0.7C385.7,271.3,385.3,271.6,385,271.6z"/>
<path d="M388.5,5.1C388.5,5,388.5,5,388.5,5.1c-0.4-0.3-0.8-0.6-1.2-0.8c-4-2.7-8.8-4.2-14-4.2c-13.9,0-25.2,11.3-25.2,25.2V35
	c0,0.5-0.6,0.9-1.1,0.6C315.4,15.4,278.3,2.9,238.5,0.7C104.8-6.7-6.7,104.4,0.3,238.1C6.5,357.3,105.1,452,225.8,452
	c44.6,0,86.2-12.9,121.3-35.3c0.5-0.3,1.1,0,1.1,0.6v9.9c0,13.9,11.3,25.2,25.3,25.2c5.2,0,10.1-1.6,14.1-4.3c0.3-0.2,0.7-0.5,1-0.7
	c69.6-48.8,115-129.7,115-221.2C503.5,134.7,458.1,53.9,388.5,5.1z M356.1,276.7c-0.5,0.5-1.1,0.9-1.6,1.4c-0.3,0.3-0.6,0.6-0.9,1
	c-0.1,0.1-0.3,0.3-0.4,0.5c-0.1,0.2-0.3,0.4-0.4,0.5c-0.3,0.3-0.5,0.7-0.8,1c-0.3,0.4-0.5,0.7-0.7,1.1c-0.1,0.2-0.2,0.3-0.3,0.5
	c-0.1,0.1-0.2,0.3-0.2,0.4c-0.1,0.2-0.3,0.5-0.4,0.7c-0.1,0.3-0.3,0.5-0.4,0.8c-0.4,0.8-0.7,1.7-1,2.5c-0.2,0.5-0.3,1.1-0.5,1.7
	c0,0,0,0,0,0c-0.1,0.3-0.1,0.6-0.2,0.9c0,0.1-0.1,0.3-0.1,0.5c0,0.1,0,0.3-0.1,0.5v97.5c-0.1,0.1-0.2,0.1-0.3,0.2
	c-3.1,2.3-6.3,4.6-9.5,6.8c-0.8,0.6-1.7,1.1-2.6,1.7c0,0-0.1,0.1-0.1,0.1h0c-0.7,0.5-1.5,0.9-2.2,1.4c-2.3,1.5-4.7,2.9-7,4.2
	c-0.3,0.2-0.5,0.3-0.8,0.5c0,0-0.1,0.1-0.2,0.1c-0.4,0.2-0.8,0.4-1.1,0.7c-0.4,0.2-0.8,0.4-1.2,0.6c-0.3,0.2-0.6,0.4-1,0.5
	c0,0-0.1,0.1-0.2,0.1c-0.7,0.4-1.3,0.7-2,1.1c-0.1,0.1-0.3,0.2-0.4,0.2c-0.3,0.2-0.7,0.3-1,0.5c0,0-0.1,0.1-0.1,0.1
	c-0.7,0.4-1.5,0.8-2.2,1.1c-1.3,0.7-2.7,1.3-4,2c-0.1,0.1-0.2,0.1-0.3,0.1c-0.5,0.3-1.1,0.5-1.7,0.8c-0.5,0.3-1.1,0.5-1.7,0.8
	c-0.9,0.4-1.8,0.8-2.7,1.2c-2.6,1.1-5.3,2.2-7.9,3.2c-0.9,0.3-1.8,0.7-2.8,1c-1.3,0.5-2.6,0.9-3.8,1.4c-1,0.3-2,0.7-3,1
	c-0.3,0.1-0.6,0.2-0.9,0.3c-1.1,0.3-2.2,0.7-3.3,1c-1.4,0.4-2.8,0.8-4.2,1.2c-0.8,0.2-1.5,0.4-2.3,0.6c-3.8,1-7.5,1.9-11.4,2.7
	c-0.9,0.2-1.8,0.4-2.8,0.5c-0.1,0-0.3,0-0.4,0.1c-1.2,0.2-2.5,0.5-3.7,0.7c-1.2,0.2-2.4,0.4-3.6,0.6c-0.6,0.1-1.2,0.2-1.9,0.3
	c-0.2,0-0.5,0.1-0.7,0.1c-1,0.1-1.9,0.3-2.9,0.4c-0.4,0.1-0.9,0.1-1.3,0.2c-1,0.1-2,0.2-3,0.3c-0.4,0-0.8,0.1-1.3,0.1
	c-0.2,0-0.5,0-0.7,0.1c-0.4,0-0.9,0.1-1.3,0.1c-0.5,0-0.9,0.1-1.4,0.1c-0.7,0.1-1.3,0.1-1.9,0.1c-0.7,0-1.3,0.1-2,0.1
	c-2,0.1-4,0.2-6,0.3c-0.6,0-1.2,0-1.8,0c-1.3,0-2.6,0-3.9,0c-112.3,0-203.3-91-203.3-203.3c0-112.3,91-203.3,203.3-203.3
	c1.3,0,2.6,0,3.9,0c0.6,0,1.2,0,1.8,0c2,0,4,0.1,6,0.3c0.6,0,1.3,0.1,2,0.1c0.6,0,1.3,0.1,1.9,0.1c0.5,0,0.9,0.1,1.4,0.1
	c0.5,0,0.9,0.1,1.3,0.1c0.2,0,0.5,0,0.7,0.1c0.4,0,0.8,0.1,1.3,0.1c1,0.1,2,0.2,3,0.3c0.4,0,0.8,0.1,1.3,0.1c1,0.1,1.9,0.2,2.9,0.4
	c0.2,0,0.5,0.1,0.7,0.1c0.6,0.1,1.2,0.2,1.9,0.3c1.2,0.2,2.4,0.4,3.6,0.6c1.3,0.2,2.5,0.4,3.7,0.7c0.1,0,0.3,0,0.4,0.1
	c0.9,0.2,1.8,0.3,2.8,0.5c6.1,1.2,12.1,2.7,17.9,4.5c1.1,0.3,2.2,0.7,3.3,1c0.1,0,0.3,0.1,0.4,0.1c1.2,0.4,2.3,0.8,3.5,1.1
	c0.1,0,0.1,0,0.2,0.1c1.2,0.4,2.4,0.9,3.6,1.3c1.3,0.5,2.5,0.9,3.8,1.4c1,0.4,2,0.8,2.9,1.2c0.5,0.2,1,0.4,1.6,0.6
	c1.1,0.5,2.3,1,3.4,1.5c0.6,0.3,1.3,0.5,1.9,0.8c1.5,0.7,3,1.3,4.5,2.1c0.5,0.2,1,0.5,1.5,0.7c0.7,0.3,1.3,0.7,2,1
	c0.5,0.3,1,0.5,1.6,0.8c0.5,0.3,1,0.5,1.5,0.8c0.6,0.3,1.2,0.6,1.8,1c0.4,0.2,0.8,0.4,1.2,0.7c0.9,0.5,1.8,1,2.7,1.5
	c0.1,0.1,0.3,0.1,0.4,0.2c0.7,0.4,1.3,0.8,2,1.1c1,0.6,2,1.2,3,1.8c0.3,0.2,0.6,0.3,0.8,0.5c0.6,0.4,1.3,0.8,1.9,1.2
	c0.1,0,0.2,0.1,0.3,0.2c0.5,0.3,1,0.6,1.5,1h0c0,0,0.1,0,0.1,0.1c0.9,0.5,1.7,1.1,2.6,1.7c3.3,2.2,6.4,4.4,9.5,6.8
	c0.1,0.1,0.2,0.1,0.3,0.2v95.5c0,0.4,0.1,0.9,0.2,1.3c0.7,3.9,2.4,7.4,4.8,10.4c0.6,0.7,1.2,1.4,1.9,2c0.3,0.3,0.6,0.5,0.9,0.8
	c0.2,0.2,0.4,0.3,0.6,0.5c0.1,0.1,0.2,0.2,0.4,0.3c0.2,0.1,0.4,0.3,0.6,0.4c0.2,0.1,0.3,0.3,0.5,0.4c0.2,0.1,0.4,0.3,0.6,0.4
	c0,0,0,0,0,0c0.3,0.2,0.5,0.3,0.8,0.5c0,0,0,0,0,0c0.1,0.1,0.2,0.1,0.3,0.1c0,0,0.1,0.1,0.1,0.1c0.3,0.2,0.7,0.4,1,0.5
	c2.9,1.4,6.2,2.2,9.7,2.2h15.1v92.6h-15.2C365,271.6,360,273.5,356.1,276.7z M477.8,229.6c0,1.1,0,2.1-0.1,3.2c0,0.8,0,1.6-0.1,2.4
	c0,0.2,0,0.4,0,0.6c0,0.9-0.1,1.8-0.1,2.7c0,0.5-0.1,1-0.1,1.5c0,0.6-0.1,1.3-0.1,1.9c0,0.5,0,0.9-0.1,1.4c0,0.8-0.1,1.5-0.2,2.3
	c-0.3,3.4-0.6,6.8-1,10.2c-0.1,0.7-0.2,1.5-0.3,2.2c-0.1,1-0.3,2.1-0.4,3.1c-0.1,0.7-0.2,1.4-0.3,2.1c-0.1,0.5-0.1,0.9-0.2,1.4
	c-0.1,0.8-0.3,1.6-0.4,2.4c-0.1,0.4-0.2,0.8-0.2,1.3c-0.2,1.1-0.4,2.2-0.6,3.2c-0.2,1.2-0.5,2.5-0.7,3.7c-0.5,2.5-1.1,5.1-1.7,7.6
	c-0.2,1-0.5,2-0.7,3c-0.1,0.3-0.2,0.7-0.3,1.1c-0.3,1-0.5,2-0.8,3c-0.6,2.4-1.3,4.8-2.1,7.2c-1,3.3-2.1,6.6-3.2,9.9
	c-0.3,0.8-0.5,1.5-0.8,2.3c-0.3,0.8-0.6,1.6-0.9,2.3c-0.3,0.9-0.7,1.9-1.1,2.8c-0.1,0.2-0.1,0.3-0.2,0.5c-0.4,0.9-0.7,1.8-1.1,2.8
	c-0.1,0.2-0.2,0.4-0.2,0.6c-0.5,1.1-0.9,2.2-1.4,3.3c0,0.1-0.1,0.2-0.1,0.3c-0.9,2.2-1.9,4.3-2.9,6.5c-0.5,1.1-1,2.1-1.5,3.2
	c-0.1,0.2-0.1,0.3-0.2,0.4c-0.5,1-1,2-1.5,3c-1.1,2.2-2.2,4.4-3.4,6.5c-1.1,2.1-2.3,4.3-3.6,6.4c-0.6,1.1-1.2,2.1-1.9,3.2
	c-0.8,1.3-1.5,2.5-2.3,3.8c-0.5,0.8-1,1.6-1.5,2.4c-0.6,0.9-1.1,1.8-1.7,2.7c-2.6,3.9-5.3,7.8-8.1,11.6c-0.4,0.6-0.9,1.2-1.3,1.7
	c-0.4,0.5-0.8,1.1-1.2,1.6c-0.9,1.2-1.8,2.4-2.8,3.5c-0.6,0.7-1.2,1.5-1.7,2.2c-0.1,0.1-0.2,0.3-0.4,0.4c-0.7,0.9-1.5,1.8-2.2,2.7
	c-1.4,1.7-2.9,3.4-4.3,5c-0.6,0.6-1.1,1.3-1.7,1.9c-0.6,0.7-1.2,1.4-1.8,2c-0.5,0.5-1,1.1-1.5,1.6c-0.7,0.7-1.3,1.4-2,2.1
	c-0.5,0.5-0.9,0.9-1.3,1.4c-3.1,3.1-6.2,6.1-9.4,9.1c-0.8,0.7-1.6,1.4-2.3,2.1c-1,0.9-2.1,1.6-3.2,2.2c-8.2,4.2-18.3-0.1-21.1-8.7v0
	c-0.5-1.5-0.7-3-0.7-4.7v-88.2c0-8.3,6.7-15,15-15c0.4,0,0.8,0,1.2,0c0.3,0,0.7,0,1-0.1c0.3,0,0.6-0.1,0.9-0.1
	c0.3,0,0.6-0.1,0.9-0.1c4.1-0.9,5.6-1.7,6.1-2c0.5-0.2,1-0.5,1.4-0.8c0.1-0.1,0.3-0.2,0.4-0.3c0.5-0.3,0.9-0.6,1.3-0.9
	c0.2-0.1,0.4-0.3,0.5-0.4c0.2-0.1,0.4-0.3,0.6-0.5c0.2-0.2,0.4-0.3,0.6-0.5c0.5-0.4,0.9-0.8,1.3-1.2c0.2-0.2,0.4-0.4,0.6-0.7
	c0.4-0.5,0.8-0.9,1.2-1.4c0.1-0.1,0.1-0.2,0.2-0.3c0.4-0.5,0.8-1.1,1.1-1.6c0,0,0-0.1,0.1-0.1c0-0.1,0.1-0.1,0.1-0.2
	c0.1-0.2,0.3-0.5,0.4-0.7c0.2-0.4,0.5-0.9,0.7-1.3c0.1-0.2,0.2-0.4,0.3-0.6c0.4-0.9,0.7-1.8,1-2.7c0.1-0.2,0.1-0.4,0.2-0.7
	c0.1-0.5,0.3-1.1,0.3-1.7c0-0.2,0-0.3,0.1-0.5c0.1-0.6,0.2-1.2,0.2-1.9v-1.4l-0.1-92.5v0l0-1.4c0-0.1,0-0.1,0-0.2
	c0-0.4,0-0.9-0.1-1.3c-0.1-0.5-0.2-1.1-0.3-1.6c0-0.3-0.1-0.5-0.2-0.8c-0.1-0.3-0.1-0.5-0.2-0.8c-0.2-0.5-0.3-1-0.5-1.5
	c-0.1-0.3-0.2-0.5-0.3-0.8c-0.1-0.3-0.2-0.5-0.3-0.8c-0.1-0.2-0.2-0.4-0.3-0.6c-0.5-1-1-1.9-1.6-2.8c-0.1-0.2-0.2-0.3-0.3-0.5
	c-0.8-1-1.6-2-2.5-2.9c-0.2-0.2-0.4-0.4-0.6-0.6c-0.2-0.2-0.4-0.4-0.6-0.5c-0.2-0.1-0.3-0.3-0.5-0.4c-0.7-0.5-1.4-1-2.1-1.5
	c-0.2-0.1-0.3-0.2-0.5-0.3c-0.3-0.2-0.6-0.4-0.9-0.5c-0.2-0.1-0.5-0.3-0.7-0.4c-0.2-0.1-0.5-0.2-0.7-0.3c-0.8-0.3-1.5-0.6-2.3-0.9
	c-0.3-0.1-0.5-0.2-0.8-0.2c-1.9-0.5-3.8-0.8-5.8-0.8h-0.1c-8.3,0-15-6.7-15-15V53.7c0-1.2,0.1-2.3,0.4-3.3
	c2.2-9.8,13.6-14.8,22.3-9.7c0.8,0.5,1.6,1,2.3,1.7c0,0,0,0,0,0c4,3.6,8,7.3,11.8,11.2c0.4,0.5,0.9,0.9,1.3,1.4
	c0.6,0.7,1.3,1.3,1.9,2c0.8,0.8,1.5,1.6,2.2,2.4c0.7,0.8,1.4,1.5,2.1,2.3c1,1.1,2,2.2,2.9,3.3c1.5,1.7,3,3.5,4.4,5.2
	c0.1,0.1,0.2,0.3,0.4,0.4c0.6,0.7,1.2,1.4,1.7,2.2c0.3,0.3,0.5,0.6,0.7,0.9c0.6,0.8,1.2,1.5,1.8,2.3c0.6,0.8,1.3,1.6,1.9,2.5
	c3.1,4.2,6.1,8.4,9,12.8c0.6,0.9,1.2,1.8,1.7,2.7c0.5,0.8,1,1.6,1.5,2.4c0.8,1.3,1.6,2.5,2.3,3.8c0.6,1,1.3,2.1,1.9,3.2
	c1.2,2.1,2.4,4.3,3.6,6.4c1.2,2.2,2.3,4.3,3.4,6.5c0.5,1,1,2,1.5,3c0.1,0.1,0.1,0.3,0.2,0.4c0.5,1.1,1,2.1,1.5,3.2
	c1,2.1,2,4.3,2.9,6.5c0,0.1,0.1,0.2,0.1,0.3c0.5,1.1,0.9,2.2,1.4,3.3c0.1,0.2,0.2,0.4,0.2,0.6c0.4,0.9,0.7,1.8,1.1,2.8
	c0.1,0.2,0.1,0.3,0.2,0.5c0.4,0.9,0.7,1.9,1.1,2.8c0.3,0.8,0.6,1.6,0.9,2.4c0.3,0.8,0.6,1.5,0.8,2.3c1.2,3.3,2.3,6.7,3.3,10
	c0.7,2.3,1.4,4.7,2,7.1c0.3,1.1,0.6,2.2,0.9,3.3c0.1,0.2,0.1,0.4,0.2,0.6c0.3,1,0.5,2.1,0.8,3.2c0.9,3.8,1.8,7.7,2.5,11.6
	c0.2,1,0.4,2,0.5,3c0.1,0.3,0.1,0.7,0.2,1c0.1,0.8,0.3,1.7,0.4,2.5c0.1,0.5,0.1,0.9,0.2,1.4c0.1,0.7,0.2,1.4,0.3,2.1
	c0.2,1.1,0.3,2.1,0.5,3.2c0.1,0.7,0.2,1.3,0.3,2c0.4,3.4,0.8,6.9,1,10.3c0.1,0.8,0.1,1.5,0.2,2.3c0.1,0.5,0.1,0.9,0.1,1.4
	c0,0.6,0.1,1.3,0.1,1.9c0,0.5,0.1,1,0.1,1.5c0,0.9,0.1,1.8,0.1,2.7c0,0.2,0,0.4,0,0.6c0,0.8,0.1,1.6,0.1,2.4c0,1.1,0.1,2.1,0.1,3.2
	c0,0.1,0,0.2,0,0.3c0,1.3,0,2.6,0,3.9c0,1.3,0,2.6,0,3.9C477.8,229.4,477.8,229.5,477.8,229.6z"/>
<path d="M370.5,179c-3.5,0-6.7-0.8-9.7-2.2c-0.3-0.2-0.7-0.3-1-0.5c0,0-0.1,0-0.1-0.1c-0.1,0-0.2-0.1-0.3-0.1c0,0,0,0,0,0
	c-0.3-0.1-0.5-0.3-0.8-0.5c0,0,0,0,0,0c-0.2-0.1-0.4-0.3-0.6-0.4c-0.2-0.1-0.3-0.2-0.5-0.4c-0.2-0.1-0.4-0.3-0.6-0.4
	c-0.1-0.1-0.2-0.2-0.4-0.3c-0.2-0.2-0.4-0.3-0.6-0.5c-0.3-0.3-0.6-0.5-0.9-0.8c-0.7-0.6-1.3-1.3-1.9-2c-2.4-2.9-4.1-6.5-4.8-10.4
	c-0.1-0.4-0.1-0.9-0.2-1.3V63.7c-0.1-0.1-0.2-0.1-0.3-0.2c-3.1-2.3-6.3-4.6-9.5-6.8c-0.8-0.6-1.7-1.1-2.6-1.7c0,0-0.1-0.1-0.1-0.1h0
	c-0.5-0.3-1-0.6-1.5-1c-0.1-0.1-0.2-0.1-0.3-0.2c-0.6-0.4-1.3-0.8-1.9-1.2c-0.3-0.2-0.6-0.3-0.8-0.5c-1-0.6-2-1.2-3-1.8
	c-0.7-0.4-1.3-0.8-2-1.1c-0.1-0.1-0.3-0.2-0.4-0.2c-0.9-0.5-1.8-1-2.7-1.5c-0.4-0.2-0.8-0.4-1.2-0.7c-0.6-0.3-1.2-0.7-1.8-1
	c-0.5-0.3-1-0.6-1.5-0.8c-0.5-0.3-1-0.5-1.6-0.8c-0.7-0.3-1.3-0.7-2-1c-0.5-0.3-1-0.5-1.5-0.7c-1.5-0.7-3-1.4-4.5-2.1
	c-0.6-0.3-1.3-0.6-1.9-0.8c-1.1-0.5-2.3-1-3.4-1.5c-0.5-0.2-1-0.4-1.6-0.6c-1-0.4-2-0.8-2.9-1.2c-1.3-0.5-2.5-1-3.8-1.4
	c-1.2-0.4-2.4-0.9-3.6-1.3c-0.1,0-0.1,0-0.2-0.1c-1.2-0.4-2.3-0.8-3.5-1.1c-0.1,0-0.3-0.1-0.4-0.1c-1.1-0.4-2.2-0.7-3.3-1
	c-5.9-1.8-11.8-3.3-17.9-4.5c-0.9-0.2-1.8-0.4-2.8-0.5c-0.1,0-0.3,0-0.4-0.1c-1.2-0.2-2.5-0.5-3.7-0.7c-1.2-0.2-2.4-0.4-3.6-0.6
	c-0.6-0.1-1.2-0.2-1.9-0.3c-0.2,0-0.5-0.1-0.7-0.1c-1-0.1-1.9-0.3-2.9-0.4c-0.4,0-0.9-0.1-1.3-0.1c-1-0.1-2-0.2-3-0.3
	c-0.4,0-0.8-0.1-1.3-0.1c-0.2,0-0.5,0-0.7-0.1c-0.4,0-0.9-0.1-1.3-0.1c-0.5,0-0.9-0.1-1.4-0.1c-0.7,0-1.3-0.1-1.9-0.1
	c-0.7,0-1.3-0.1-2-0.1c-2-0.1-4-0.2-6-0.3c-0.6,0-1.2,0-1.8,0c-1.3,0-2.6,0-3.9,0c-112.3,0-203.3,91-203.3,203.3
	c0,112.3,91,203.3,203.3,203.3c1.3,0,2.6,0,3.9,0c0.6,0,1.2,0,1.8,0c2-0.1,4-0.1,6-0.3c0.6,0,1.3-0.1,2-0.1c0.6,0,1.3-0.1,1.9-0.1
	c0.5,0,0.9-0.1,1.4-0.1c0.5,0,0.9-0.1,1.3-0.1c0.2,0,0.5,0,0.7-0.1c0.4,0,0.8-0.1,1.3-0.1c1-0.1,2-0.2,3-0.3c0.4,0,0.8-0.1,1.3-0.2
	c1-0.1,1.9-0.2,2.9-0.4c0.2,0,0.5-0.1,0.7-0.1c0.6-0.1,1.2-0.2,1.9-0.3c1.2-0.2,2.4-0.4,3.6-0.6c1.3-0.2,2.5-0.4,3.7-0.7
	c0.1,0,0.3,0,0.4-0.1c0.9-0.2,1.8-0.3,2.8-0.5c3.8-0.8,7.6-1.7,11.4-2.7c0.8-0.2,1.6-0.4,2.3-0.6c1.4-0.4,2.8-0.8,4.2-1.2
	c1.1-0.3,2.2-0.7,3.3-1c0.3-0.1,0.6-0.2,0.9-0.3c1-0.3,2-0.7,3-1c1.3-0.4,2.6-0.9,3.8-1.4c0.9-0.3,1.8-0.7,2.8-1
	c2.7-1,5.3-2.1,7.9-3.2c0.9-0.4,1.8-0.8,2.7-1.2c0.6-0.3,1.1-0.5,1.7-0.8c0.6-0.2,1.1-0.5,1.7-0.8c0.1,0,0.2-0.1,0.3-0.1
	c1.3-0.6,2.7-1.3,4-2c0.7-0.4,1.5-0.7,2.2-1.1c0,0,0.1,0,0.1-0.1c0.3-0.2,0.6-0.3,1-0.5c0.1-0.1,0.3-0.1,0.4-0.2
	c0.7-0.3,1.3-0.7,2-1.1c0.1,0,0.1,0,0.2-0.1c0.3-0.2,0.6-0.3,1-0.5c0.4-0.2,0.8-0.4,1.2-0.6c0.4-0.2,0.8-0.4,1.1-0.7
	c0.1,0,0.1,0,0.2-0.1c0.3-0.1,0.5-0.3,0.8-0.5c2.4-1.3,4.7-2.8,7-4.2c0.7-0.5,1.5-0.9,2.2-1.4h0c0,0,0.1,0,0.1-0.1
	c0.9-0.5,1.7-1.1,2.6-1.7c3.3-2.2,6.4-4.4,9.5-6.8c0.1-0.1,0.2-0.1,0.3-0.2v-97.5c0-0.1,0-0.3,0.1-0.5c0-0.2,0.1-0.3,0.1-0.5
	c0.1-0.3,0.1-0.6,0.2-0.9c0,0,0,0,0,0c0.1-0.6,0.3-1.1,0.5-1.7c0.3-0.9,0.6-1.7,1-2.5c0.1-0.3,0.3-0.5,0.4-0.8
	c0.1-0.2,0.2-0.5,0.4-0.7c0.1-0.1,0.1-0.3,0.2-0.4c0.1-0.2,0.2-0.3,0.3-0.5c0.2-0.4,0.5-0.7,0.7-1.1c0.2-0.4,0.5-0.7,0.8-1
	c0.1-0.2,0.3-0.4,0.4-0.5c0.1-0.2,0.3-0.3,0.4-0.5c0.3-0.3,0.6-0.7,0.9-1c0.5-0.5,1-1,1.6-1.4c3.9-3.2,8.9-5.2,14.3-5.2h15.2V179
	H370.5z M353,240.8l-2.5,1l-26.3,10.7v0c-0.8,2.9-1.7,5.7-2.7,8.6c-0.3,0.9-0.7,1.8-1,2.8c0,0,0,0.1,0,0.1c-0.4,0.9-0.7,1.8-1.1,2.7
	c-0.3,0.7-0.6,1.5-1,2.2c-0.1,0.3-0.3,0.7-0.5,1l-0.2,0.4c-0.3,0.6-0.6,1.2-0.9,1.8l0.9,1.7c0,0,0,0,0,0l12.2,22.4l1.3,2.3v0l-1.7,2
	c0,0,0,0,0,0l-14.5,17.3c0,0,0,0,0,0l-1.7,2v0l-1.9-0.6l-0.2-0.1h0c0,0,0,0,0,0c0,0,0,0,0,0c-0.1,0-0.2-0.1-0.3-0.1l-25.2-8.1
	l-1.8-0.6c-0.7,0.5-1.4,1-2.2,1.5c-0.7,0.4-1.3,0.9-2,1.3c-0.1,0.1-0.3,0.2-0.4,0.3c-0.4,0.3-0.9,0.5-1.3,0.8
	c-2.6,1.6-5.2,3-7.9,4.3c-0.6,0.3-1.3,0.6-2,0.9c-0.2,0.1-0.4,0.2-0.5,0.3c-0.6,0.3-1.2,0.6-1.9,0.8l-0.4,1.9c0,0,0,0,0,0v0
	c0,0,0,0,0,0v0c0,0,0,0,0,0l0,0.2l-0.6,2.9l-4.5,22c0,0,0,0,0,0c0,0,0,0,0,0.1l0,0l0,0.3l-0.1,0.4l-0.4,1.8l-2.4,0.4c0,0,0,0,0,0
	c0,0,0,0,0,0c0,0-0.1,0-0.1,0c0,0,0,0,0,0h0c0,0,0,0,0,0h0l-19.9,3.6l-2.2,0.4l-2.6,0.5l-1.4-2.2c0,0,0,0,0,0l-14.1-22.4l-1-1.6h0
	c-0.6-0.1-1.3-0.1-1.9-0.2c-0.1,0-0.1,0-0.2,0c-0.4,0-0.8-0.1-1.2-0.1c-0.5-0.1-1-0.1-1.5-0.2c-1-0.1-2.1-0.3-3.1-0.5
	c-0.6-0.1-1.2-0.2-1.7-0.3c-1.2-0.2-2.5-0.5-3.7-0.8c-0.7-0.1-1.4-0.3-2.1-0.5c0,0-0.1,0-0.1,0c-0.7-0.1-1.3-0.3-2-0.5
	c-0.3-0.1-0.7-0.2-1-0.3c0,0-0.1,0-0.1,0c-0.7-0.2-1.3-0.4-1.9-0.5l-1.6,1.3l-20,15.9c-0.1,0.1-0.2,0.1-0.3,0.2c0,0,0,0,0,0h0
	l-0.2,0.2l-1.6,1.3l0,0l-2.2-1.3c0,0,0,0-0.1,0c0,0,0,0,0,0l-19.5-11.3c0,0,0,0,0,0l-2.3-1.3l0.3-2.3c0-0.1,0-0.2,0-0.3l0.9-6.7
	l0.4-3.1l0.8-5.5l1-7.1l0.5-3.8c0-0.1,0-0.2,0-0.3l0.2-1.7c-0.5-0.5-0.9-0.9-1.4-1.4c-0.3-0.3-0.5-0.6-0.8-0.9
	c-0.4-0.4-0.8-0.8-1.1-1.2c-0.5-0.5-0.9-1-1.3-1.5c-0.3-0.4-0.7-0.7-1-1.1c-0.9-1.1-1.9-2.2-2.7-3.4c-0.2-0.3-0.5-0.6-0.7-0.9
	c-0.4-0.5-0.8-1-1.1-1.5c-0.1-0.1-0.1-0.2-0.2-0.3c-0.3-0.4-0.6-0.9-1-1.3c-0.2-0.3-0.5-0.7-0.7-1c0,0,0-0.1-0.1-0.1
	c-0.7-1-1.8-1.7-3-1.7l-25.7-0.7l-2.7-0.1l-0.9-2.5L98.7,256l1.9-1.7l19.7-17.8l1.4-1.3c-0.1-0.6-0.1-1.3-0.2-1.9c0-0.1,0-0.2,0-0.3
	c-0.1-0.8-0.1-1.7-0.1-2.5c0-0.7-0.1-1.4-0.1-2.1v-0.1c0-1.2,0-2.5,0-3.7c0-0.5,0-1,0-1.5c0-0.5,0-1,0.1-1.5c0-0.3,0-0.6,0-1
	c0-0.6,0.1-1.3,0.1-1.9v-0.1c0-0.7,0.1-1.4,0.2-2.2c0-0.1,0-0.1,0-0.2c0.1-0.7,0.1-1.3,0.2-2h0v0l-1.5-1.3l0,0L101.3,196l-2-1.8
	l0.9-2.5l4.9-13.6l1-2.8l1.7-4.7c0,0,0,0,0,0l0.9-2.5l2.7-0.1l28.4-1.1l0,0c0.6-0.8,1.2-1.7,1.8-2.5c0.5-0.6,0.9-1.2,1.4-1.8
	c0.4-0.5,0.9-1.1,1.3-1.6c0.3-0.4,0.6-0.8,0.9-1.1c0.3-0.4,0.7-0.8,1-1.2c0.1-0.1,0.1-0.2,0.2-0.2c0.5-0.6,1.1-1.3,1.7-1.9
	c0.6-0.6,1.2-1.3,1.8-1.9c0.5-0.5,0.9-1,1.4-1.4c0.2-0.2,0.5-0.5,0.7-0.7c0.1-0.1,0.1-0.1,0.2-0.2c0.5-0.5,1-0.9,1.5-1.4v0l-0.3-1.9
	V149c0,0,0,0,0-0.1l-3.8-25c0,0,0,0,0-0.1v0l-0.4-2.5l2.3-1.3c0,0,0,0,0,0l19.5-11.3l2.3-1.3l2.1,1.6l20.8,16.2l1.5,1.2
	c0.6-0.2,1.2-0.3,1.9-0.5c0.8-0.2,1.6-0.4,2.5-0.6c0.4-0.1,0.9-0.2,1.3-0.3c1.7-0.3,3.3-0.7,5-0.9c0.7-0.1,1.4-0.2,2.1-0.3
	c0.8-0.1,1.5-0.2,2.3-0.3c0.2,0,0.4-0.1,0.6-0.1c0.7-0.1,1.4-0.2,2.1-0.2c0.1,0,0.1,0,0.2,0c0.9-0.1,1.7-0.1,2.6-0.2h0l0.9-1.5
	c0,0,0,0,0-0.1c0,0,0,0,0.1-0.1c0,0,0,0,0,0c0,0,0-0.1,0-0.1l13.3-21.7l1.4-2.3l2.6,0.5h0l22.2,3.9c0,0,0,0,0,0l2.6,0.4l0.6,2.6
	l5.6,25.9v0c0,0,0,0,0,0.1c0,0,0,0,0,0c0,0,0,0,0,0l0.4,1.8c0.6,0.3,1.2,0.5,1.8,0.8c0.5,0.2,0.9,0.5,1.4,0.7
	c0.5,0.2,0.9,0.5,1.4,0.7c0.1,0.1,0.3,0.1,0.4,0.2c0.5,0.3,1.1,0.6,1.7,0.9c0.3,0.2,0.6,0.3,0.9,0.5c1.4,0.8,2.8,1.6,4.1,2.4
	c0.6,0.4,1.2,0.8,1.8,1.2c0.3,0.2,0.7,0.4,1,0.7c0.2,0.1,0.4,0.3,0.6,0.4c0.4,0.3,0.8,0.5,1.2,0.8c0,0,0.1,0.1,0.1,0.1
	c0.5,0.4,1.1,0.8,1.6,1.2l1.9-0.6h0l24-8l2.7-0.9l0.8,0.9l15.5,18.4l0,0c0,0,0,0,0,0c0,0,0,0,0,0l0,0c0,0,0,0,0,0c0,0,0,0,0,0
	l1.6,1.9l-1.2,2.2c0,0,0,0,0,0l0,0c0,0,0,0,0,0c0,0,0,0,0,0.1l-12.4,23.4l-0.9,1.7c0.3,0.6,0.5,1.2,0.8,1.8c0.2,0.4,0.4,0.8,0.5,1.2
	c0.2,0.4,0.4,0.9,0.6,1.3c0.1,0.3,0.2,0.5,0.3,0.8c0.2,0.5,0.4,1.1,0.6,1.6c0.6,1.6,1.2,3.3,1.8,4.9c0.2,0.5,0.3,0.9,0.5,1.4
	c0.1,0.3,0.2,0.6,0.3,0.9c0.1,0.5,0.3,0.9,0.4,1.3c0.1,0.3,0.2,0.6,0.3,1c0.1,0.4,0.2,0.8,0.3,1.3c0,0.1,0,0.1,0.1,0.2
	c0.2,0.6,0.3,1.3,0.5,2l1.9,0.7l23.8,9.4c0,0,0,0,0,0c0,0,0,0,0,0l0,0c0,0,0,0,0,0l2.4,0.9h0v2.7l0,22.5V240.8z"/>
<path d="M252.9,149.3c-42.1-15.2-88.5,6.5-103.7,48.6c-15.2,42,6.5,88.5,48.6,103.7c42,15.2,88.5-6.5,103.7-48.6
	C316.7,211,294.9,164.5,252.9,149.3z M225.3,273.2c-26.4,0-47.7-21.4-47.7-47.7c0-26.3,21.4-47.7,47.7-47.7
	c26.4,0,47.7,21.4,47.7,47.7C273,251.8,251.7,273.2,225.3,273.2z"/>
</svg>
