<?xml version="1.0" encoding="UTF-8" standalone="no"?> <!-- Created with Vectornator for iOS (http://vectornator.io/) --><!DOCTYPE svg PUBLIC "-//W3C//DTD SVG 1.1//EN" "http://www.w3.org/Graphics/SVG/1.1/DTD/svg11.dtd">
<svg style="fill-rule:evenodd;clip-rule:evenodd;stroke-linecap:round;stroke-linejoin:round;" xmlns:vectornator="http://vectornator.io" xmlns:xlink="http://www.w3.org/1999/xlink" xmlns="http://www.w3.org/2000/svg" xml:space="preserve" version="1.1" viewBox="0 0 512 512">
<metadata>
<vectornator:setting key="DynamicGuides" value="1"/>
<vectornator:setting key="Units" value="Points"/>
<vectornator:setting key="GuidesVisible" value="1"/>
<vectornator:setting key="RulersVisible" value="1"/>
<vectornator:setting key="SnapToGuides" value="1"/>
<vectornator:setting key="GridSpacing" value="36"/>
</metadata>
<defs/>
<g id="Untitled" vectornator:layerName="Untitled">
<path d="M208.205+440.132C90.539+393.284+12.8+362.334+12.8+256C12.8+149.666+90.539+118.716+208.205+71.868L235.29+61.056L241.05+69.7C295.604+151.535+295.604+360.465+241.05+442.299L235.29+450.943L208.205+440.132Z" opacity="1" fill="#000000"/>
<g opacity="1">
<path d="M345.6+102.4L499.2+102.4C506.274+102.4+512+96.674+512+89.6C512+82.526+506.274+76.8+499.2+76.8L345.6+76.8C338.526+76.8+332.8+82.526+332.8+89.6C332.8+96.674+338.526+102.4+345.6+102.4Z" opacity="1" fill="#000000"/>
<path d="M499.2+243.2L345.6+243.2C338.526+243.2+332.8+248.926+332.8+256C332.8+263.074+338.526+268.8+345.6+268.8L499.2+268.8C506.274+268.8+512+263.074+512+256C512+248.926+506.274+243.2+499.2+243.2Z" opacity="1" fill="#000000"/>
<path d="M499.2+409.6L345.6+409.6C338.526+409.6+332.8+415.326+332.8+422.4C332.8+429.474+338.526+435.2+345.6+435.2L499.2+435.2C506.274+435.2+512+429.474+512+422.4C512+415.326+506.274+409.6+499.2+409.6Z" opacity="1" fill="#000000"/>
<path d="M499.2+326.4L345.6+326.4C338.526+326.4+332.8+332.126+332.8+339.2C332.8+346.274+338.526+352+345.6+352L499.2+352C506.274+352+512+346.274+512+339.2C512+332.126+506.274+326.4+499.2+326.4Z" opacity="1" fill="#000000"/>
<path d="M499.2+160L345.6+160C338.526+160+332.8+165.726+332.8+172.8C332.8+179.874+338.526+185.6+345.6+185.6L499.2+185.6C506.274+185.6+512+179.874+512+172.8C512+165.726+506.274+160+499.2+160Z" opacity="1" fill="#000000"/>
<path d="M230.391+51.2C227.208+51.2+223.991+51.797+220.893+53.035L203.476+59.981C85.35+107.008+0+140.979+0+256C0+371.021+85.35+404.992+203.469+452.019L220.886+458.965C223.992+460.211+227.209+460.8+230.392+460.8C238.755+460.8+246.836+456.695+251.7+449.399C308.336+364.45+308.336+147.549+251.7+62.6C246.835+55.305+238.754+51.2+230.391+51.2ZM230.4+435.2C102.4+384+25.6+358.4+25.6+256C25.6+153.6+102.4+128+230.4+76.8C281.6+153.6+281.6+358.4+230.4+435.2Z" opacity="1" fill="#000000"/>
</g>
</g>
</svg>
