<?xml version="1.0" encoding="UTF-8" standalone="no"?> <!-- Created with Vectornator for iOS (http://vectornator.io/) --><!DOCTYPE svg PUBLIC "-//W3C//DTD SVG 1.1//EN" "http://www.w3.org/Graphics/SVG/1.1/DTD/svg11.dtd">
<svg height="100%" style="fill-rule:evenodd;clip-rule:evenodd;stroke-linecap:round;stroke-linejoin:round;" xmlns:xlink="http://www.w3.org/1999/xlink" xmlns="http://www.w3.org/2000/svg" xml:space="preserve" width="100%" xmlns:vectornator="http://vectornator.io" version="1.1" viewBox="0 0 512 512">
<metadata>
<vectornator:setting key="DynamicGuides" value="1"/>
<vectornator:setting key="Units" value="Points"/>
<vectornator:setting key="GuidesVisible" value="1"/>
<vectornator:setting key="RulersVisible" value="1"/>
<vectornator:setting key="SnapToGuides" value="1"/>
<vectornator:setting key="GridSpacing" value="36"/>
</metadata>
<defs/>
<g id="Untitled" vectornator:layerName="Untitled">
<path d="M76.8+12.8L153.6+12.8L153.6+12.8L153.6+166.4L153.6+166.4L76.8+166.4L76.8+166.4L76.8+12.8L76.8+12.8Z" opacity="1" fill="none"/>
<path d="M230.4+76.8C230.4+62.6615+241.862+51.2+256+51.2C270.138+51.2+281.6+62.6615+281.6+76.8C281.6+90.9385+270.138+102.4+256+102.4C241.862+102.4+230.4+90.9385+230.4+76.8Z" opacity="1" fill="none"/>
<g opacity="1">
<path d="M358.4+12.8L435.2+12.8L435.2+12.8L435.2+166.4L435.2+166.4L358.4+166.4L358.4+166.4L358.4+12.8L358.4+12.8Z" opacity="1" fill="none"/>
<path d="M76.8+345.6L153.6+345.6L153.6+345.6L153.6+499.2L153.6+499.2L76.8+499.2L76.8+499.2L76.8+345.6L76.8+345.6Z" opacity="1" fill="none"/>
<path d="M358.4+345.6L435.2+345.6L435.2+345.6L435.2+499.2L435.2+499.2L358.4+499.2L358.4+499.2L358.4+345.6L358.4+345.6Z" opacity="1" fill="none"/>
</g>
<path d="M230.4+435.2C230.4+421.062+241.862+409.6+256+409.6C270.138+409.6+281.6+421.062+281.6+435.2C281.6+449.339+270.138+460.8+256+460.8C241.862+460.8+230.4+449.339+230.4+435.2Z" opacity="1" fill="none"/>
<path d="M140.8+332.8L89.6+332.8C75.46+332.8+64+344.26+64+358.4L64+486.4C64+500.54+75.46+512+89.6+512L140.8+512C154.94+512+166.4+500.54+166.4+486.4L166.4+448L219.955+448C225.254+462.865+239.334+473.6+256+473.6C272.666+473.6+286.737+462.865+292.045+448L345.6+448L345.6+486.4C345.6+500.54+357.06+512+371.2+512L422.4+512C436.54+512+448+500.54+448+486.4L448+358.4C448+344.26+436.54+332.8+422.4+332.8L371.2+332.8C357.06+332.8+345.6+344.26+345.6+358.4L345.6+422.4L292.045+422.4C288.179+411.554+279.646+403.021+268.8+399.155L268.8+112.845C279.646+108.979+288.179+100.446+292.045+89.6L345.6+89.6L345.6+153.6C345.6+167.74+357.06+179.2+371.2+179.2L422.4+179.2C436.54+179.2+448+167.74+448+153.6L448+25.6C448+11.46+436.54+0+422.4+0L371.2+0C357.06+0+345.6+11.46+345.6+25.6L345.6+64L292.045+64C286.746+49.135+272.666+38.4+256+38.4C239.334+38.4+225.263+49.135+219.955+64L166.4+64L166.4+25.6C166.4+11.46+154.94+0+140.8+0L89.6+0C75.46+0+64+11.46+64+25.6L64+153.6C64+167.74+75.46+179.2+89.6+179.2L140.8+179.2C154.94+179.2+166.4+167.74+166.4+153.6L166.4+89.6L219.955+89.6C223.821+100.446+232.354+108.979+243.2+112.845L243.2+399.164C232.354+403.03+223.821+411.563+219.955+422.409L166.4+422.409L166.4+358.4C166.4+344.26+154.94+332.8+140.8+332.8ZM140.8+486.4L89.6+486.4L89.6+358.4L140.8+358.4C140.8+358.4+140.8+486.4+140.8+486.4ZM371.2+358.4L422.4+358.4L422.4+486.4L371.2+486.4L371.2+358.4ZM371.2+25.6L422.4+25.6L422.4+153.6L371.2+153.6L371.2+25.6ZM140.8+153.6L89.6+153.6L89.6+25.6L140.8+25.6C140.8+25.6+140.8+153.6+140.8+153.6ZM256+64C263.066+64+268.8+69.726+268.8+76.8C268.8+83.866+263.066+89.6+256+89.6C248.934+89.6+243.2+83.866+243.2+76.8C243.2+69.726+248.934+64+256+64ZM256+422.4C263.066+422.4+268.8+428.126+268.8+435.2C268.8+442.266+263.066+448+256+448C248.934+448+243.2+442.266+243.2+435.2C243.2+428.126+248.934+422.4+256+422.4Z" opacity="1" fill="#000000"/>
</g>
</svg>
