<?xml version="1.0" encoding="UTF-8" standalone="no"?> <!-- Created with Vectornator for iOS (http://vectornator.io/) --><!DOCTYPE svg PUBLIC "-//W3C//DTD SVG 1.1//EN" "http://www.w3.org/Graphics/SVG/1.1/DTD/svg11.dtd">
<svg height="100%" style="fill-rule:evenodd;clip-rule:evenodd;stroke-linecap:round;stroke-linejoin:round;" xmlns:xlink="http://www.w3.org/1999/xlink" xmlns="http://www.w3.org/2000/svg" xml:space="preserve" width="100%" xmlns:vectornator="http://vectornator.io" version="1.1" viewBox="0 0 512 512">
<metadata>
<vectornator:setting key="DynamicGuides" value="1"/>
<vectornator:setting key="Units" value="Points"/>
<vectornator:setting key="GuidesVisible" value="1"/>
<vectornator:setting key="RulersVisible" value="1"/>
<vectornator:setting key="SnapToGuides" value="1"/>
<vectornator:setting key="GridSpacing" value="36"/>
</metadata>
<defs/>
<g id="Untitled" vectornator:layerName="Untitled">
<path d="M140.812+76.8125C133.738+76.8125+128+82.5197+128+89.5938C128+96.6678+133.738+102.406+140.812+102.406L217.594+102.406L217.594+128L76.8125+128C62.6725+128+51.1875+139.454+51.1875+153.594L51.1875+243.188L25.5938+243.188L25.5938+166.406C25.5938+159.332+19.8865+153.594+12.8125+153.594C5.7385+153.594+6.35783e-07+159.332-0+166.406L-0+345.594C0+352.668+5.7385+358.406+12.8125+358.406C19.8865+358.406+25.5937+352.668+25.5938+345.594L25.5938+268.812L51.1875+268.812L51.1875+358.406C51.1875+372.546+62.6725+384+76.8125+384L168.594+384L212.281+427.688C217.085+432.492+223.613+435.187+230.406+435.188L486.406+435.188C500.546+435.188+512+423.734+512+409.594L512+281.594C512+267.454+500.546+256+486.406+256L486.406+153.594C486.406+139.454+474.952+128+460.812+128L243.188+128L243.188+102.406L320+102.406C327.074+102.406+332.813+96.6677+332.812+89.5938C332.812+82.5197+327.074+76.8125+320+76.8125L140.812+76.8125ZM140.281+178.375C161.607+178.375+178.938+195.737+178.938+217.062C178.938+238.388+161.607+255.75+140.281+255.75C118.955+255.75+101.594+238.388+101.594+217.062C101.594+195.737+118.955+178.375+140.281+178.375ZM226.219+178.375C247.545+178.375+264.906+195.737+264.906+217.062C264.906+238.388+247.545+255.75+226.219+255.75C204.893+255.75+187.531+238.388+187.531+217.062C187.531+195.737+204.893+178.375+226.219+178.375ZM312.188+178.375C333.513+178.375+350.875+195.737+350.875+217.062C350.875+238.388+333.513+255.75+312.188+255.75C290.862+255.75+273.5+238.388+273.5+217.062C273.5+195.737+290.862+178.375+312.188+178.375ZM398.156+178.375C419.482+178.375+436.813+195.737+436.812+217.062C436.812+238.388+419.482+255.75+398.156+255.75C376.83+255.75+359.469+238.388+359.469+217.062C359.469+195.737+376.83+178.375+398.156+178.375ZM101.594+307.312L462.625+307.312L462.625+333.125L101.594+333.125L101.594+307.312ZM243.406+358.906C250.527+358.906+256.313+364.66+256.312+371.781C256.312+378.902+250.527+384.687+243.406+384.688C236.285+384.688+230.531+378.902+230.531+371.781C230.531+364.66+236.285+358.906+243.406+358.906ZM295+358.906C302.121+358.906+307.875+364.66+307.875+371.781C307.875+378.902+302.121+384.687+295+384.688C287.879+384.688+282.094+378.902+282.094+371.781C282.094+364.66+287.879+358.906+295+358.906ZM346.562+358.906C353.683+358.906+359.469+364.66+359.469+371.781C359.469+378.902+353.683+384.687+346.562+384.688C339.442+384.688+333.688+378.902+333.688+371.781C333.688+364.66+339.442+358.906+346.562+358.906ZM398.156+358.906C405.277+358.906+411.031+364.66+411.031+371.781C411.031+378.902+405.277+384.687+398.156+384.688C391.035+384.688+385.25+378.902+385.25+371.781C385.25+364.66+391.035+358.906+398.156+358.906ZM449.719+358.906C456.84+358.906+462.625+364.66+462.625+371.781C462.625+378.902+456.84+384.687+449.719+384.688C442.598+384.688+436.812+378.902+436.812+371.781C436.812+364.66+442.598+358.906+449.719+358.906Z" opacity="1" fill="#000000"/>
</g>
</svg>
