<?xml version="1.0" encoding="UTF-8" standalone="no"?> <!-- Created with Vectornator for iOS (http://vectornator.io/) --><!DOCTYPE svg PUBLIC "-//W3C//DTD SVG 1.1//EN" "http://www.w3.org/Graphics/SVG/1.1/DTD/svg11.dtd">
<svg height="100%" style="fill-rule:evenodd;clip-rule:evenodd;stroke-linecap:round;stroke-linejoin:round;" xmlns:xlink="http://www.w3.org/1999/xlink" xmlns="http://www.w3.org/2000/svg" xml:space="preserve" width="100%" xmlns:vectornator="http://vectornator.io" version="1.1" viewBox="0 0 512 512">
<metadata>
<vectornator:setting key="DynamicGuides" value="1"/>
<vectornator:setting key="Units" value="Points"/>
<vectornator:setting key="GuidesVisible" value="1"/>
<vectornator:setting key="RulersVisible" value="1"/>
<vectornator:setting key="SnapToGuides" value="1"/>
<vectornator:setting key="GridSpacing" value="36"/>
</metadata>
<defs/>
<g id="Untitled" vectornator:layerName="Untitled">
<path d="M225.101+422.4L173.901+371.2L64+371.2L64+140.8L473.6+140.8L473.6+268.8L499.2+268.8L499.2+422.4C499.2+422.4+225.101+422.4+225.101+422.4ZM396.8+192C382.686+192+371.2+203.486+371.2+217.6C371.2+231.714+382.686+243.2+396.8+243.2C410.914+243.2+422.4+231.714+422.4+217.6C422.4+203.486+410.914+192+396.8+192ZM311.467+192C297.353+192+285.867+203.486+285.867+217.6C285.867+231.714+297.353+243.2+311.467+243.2C325.581+243.2+337.067+231.714+337.067+217.6C337.067+203.486+325.581+192+311.467+192ZM226.133+192C212.019+192+200.533+203.486+200.533+217.6C200.533+231.714+212.019+243.2+226.133+243.2C240.247+243.2+251.733+231.714+251.733+217.6C251.733+203.486+240.247+192+226.133+192ZM140.8+192C126.686+192+115.2+203.486+115.2+217.6C115.2+231.714+126.686+243.2+140.8+243.2C154.914+243.2+166.4+231.714+166.4+217.6C166.4+203.486+154.914+192+140.8+192Z" opacity="1" fill="none"/>
<g opacity="1">
<path d="M115.2+217.6C115.2+203.462+126.662+192+140.8+192C154.938+192+166.4+203.462+166.4+217.6C166.4+231.738+154.938+243.2+140.8+243.2C126.662+243.2+115.2+231.738+115.2+217.6Z" opacity="1" fill="none"/>
<path d="M200.533+217.6C200.533+203.462+211.995+192+226.133+192C240.271+192+251.733+203.462+251.733+217.6C251.733+231.738+240.271+243.2+226.133+243.2C211.995+243.2+200.533+231.738+200.533+217.6Z" opacity="1" fill="none"/>
<path d="M285.867+217.6C285.867+203.462+297.329+192+311.467+192C325.606+192+337.067+203.462+337.067+217.6C337.067+231.738+325.606+243.2+311.467+243.2C297.329+243.2+285.867+231.738+285.867+217.6Z" opacity="1" fill="none"/>
<path d="M371.2+217.6C371.2+203.462+382.661+192+396.8+192C410.938+192+422.4+203.462+422.4+217.6C422.4+231.738+410.938+243.2+396.8+243.2C382.661+243.2+371.2+231.738+371.2+217.6Z" opacity="1" fill="none"/>
</g>
<g opacity="1">
<path d="M486.4+256L486.4+153.6C486.4+139.46+474.94+128+460.8+128L243.2+128L243.2+102.4L320+102.4C327.074+102.4+332.8+96.674+332.8+89.6C332.8+82.526+327.074+76.8+320+76.8L140.8+76.8C133.726+76.8+128+82.526+128+89.6C128+96.674+133.726+102.4+140.8+102.4L217.6+102.4L217.6+128L76.8+128C62.66+128+51.2+139.46+51.2+153.6L51.2+243.2L25.6+243.2L25.6+166.4C25.6+159.326+19.874+153.6+12.8+153.6C5.726+153.6+0+159.326+0+166.4L0+345.6C0+352.674+5.726+358.4+12.8+358.4C19.874+358.4+25.6+352.674+25.6+345.6L25.6+268.8L51.2+268.8L51.2+358.4C51.2+372.54+62.66+384+76.8+384L168.593+384L212.292+427.699C217.096+432.503+223.607+435.2+230.4+435.2L486.4+435.2C500.54+435.2+512+423.74+512+409.6L512+281.6C512+267.46+500.54+256+486.4+256ZM486.4+409.6L230.4+409.6L179.2+358.4L76.8+358.4L76.8+153.6L460.8+153.6L460.8+281.6L486.4+281.6C486.4+281.6+486.4+409.6+486.4+409.6Z" opacity="1" fill="#000000"/>
<path d="M140.8+256C161.971+256+179.2+238.771+179.2+217.6C179.2+196.429+161.971+179.2+140.8+179.2C119.629+179.2+102.4+196.429+102.4+217.6C102.4+238.771+119.629+256+140.8+256ZM140.8+204.8C147.866+204.8+153.6+210.526+153.6+217.6C153.6+224.666+147.866+230.4+140.8+230.4C133.734+230.4+128+224.666+128+217.6C128+210.526+133.734+204.8+140.8+204.8Z" opacity="1" fill="#000000"/>
<path d="M226.133+256C247.304+256+264.533+238.771+264.533+217.6C264.533+196.429+247.304+179.2+226.133+179.2C204.962+179.2+187.733+196.429+187.733+217.6C187.733+238.771+204.962+256+226.133+256ZM226.133+204.8C233.207+204.8+238.933+210.526+238.933+217.6C238.933+224.666+233.207+230.4+226.133+230.4C219.067+230.4+213.333+224.666+213.333+217.6C213.333+210.526+219.068+204.8+226.133+204.8Z" opacity="1" fill="#000000"/>
<path d="M311.467+256C332.638+256+349.867+238.771+349.867+217.6C349.867+196.429+332.638+179.2+311.467+179.2C290.296+179.2+273.067+196.429+273.067+217.6C273.067+238.771+290.296+256+311.467+256ZM311.467+204.8C318.533+204.8+324.267+210.526+324.267+217.6C324.267+224.666+318.533+230.4+311.467+230.4C304.393+230.4+298.667+224.666+298.667+217.6C298.667+210.526+304.401+204.8+311.467+204.8Z" opacity="1" fill="#000000"/>
<path d="M396.8+256C417.971+256+435.2+238.771+435.2+217.6C435.2+196.429+417.971+179.2+396.8+179.2C375.629+179.2+358.4+196.429+358.4+217.6C358.4+238.771+375.629+256+396.8+256ZM396.8+204.8C403.866+204.8+409.6+210.526+409.6+217.6C409.6+224.666+403.866+230.4+396.8+230.4C389.734+230.4+384+224.666+384+217.6C384+210.526+389.734+204.8+396.8+204.8Z" opacity="1" fill="#000000"/>
<path d="M102.4+307.2L460.8+307.2L460.8+307.2L460.8+332.8L460.8+332.8L102.4+332.8L102.4+332.8L102.4+307.2L102.4+307.2Z" opacity="1" fill="#000000"/>
<path d="M435.2+371.2C435.2+364.131+440.931+358.4+448+358.4C455.069+358.4+460.8+364.131+460.8+371.2C460.8+378.269+455.069+384+448+384C440.931+384+435.2+378.269+435.2+371.2Z" opacity="1" fill="#000000"/>
<path d="M384+371.2C384+364.131+389.731+358.4+396.8+358.4C403.869+358.4+409.6+364.131+409.6+371.2C409.6+378.269+403.869+384+396.8+384C389.731+384+384+378.269+384+371.2Z" opacity="1" fill="#000000"/>
<path d="M332.8+371.2C332.8+364.131+338.531+358.4+345.6+358.4C352.669+358.4+358.4+364.131+358.4+371.2C358.4+378.269+352.669+384+345.6+384C338.531+384+332.8+378.269+332.8+371.2Z" opacity="1" fill="#000000"/>
<path d="M281.6+371.2C281.6+364.131+287.331+358.4+294.4+358.4C301.469+358.4+307.2+364.131+307.2+371.2C307.2+378.269+301.469+384+294.4+384C287.331+384+281.6+378.269+281.6+371.2Z" opacity="1" fill="#000000"/>
<path d="M230.4+371.2C230.4+364.131+236.131+358.4+243.2+358.4C250.269+358.4+256+364.131+256+371.2C256+378.269+250.269+384+243.2+384C236.131+384+230.4+378.269+230.4+371.2Z" opacity="1" fill="#000000"/>
</g>
</g>
</svg>
