<?xml version="1.0" encoding="UTF-8" standalone="no"?> <!-- Created with Vectornator for iOS (http://vectornator.io/) --><!DOCTYPE svg PUBLIC "-//W3C//DTD SVG 1.1//EN" "http://www.w3.org/Graphics/SVG/1.1/DTD/svg11.dtd">
<svg height="100%" style="fill-rule:evenodd;clip-rule:evenodd;stroke-linecap:round;stroke-linejoin:round;" xmlns:xlink="http://www.w3.org/1999/xlink" xmlns="http://www.w3.org/2000/svg" xml:space="preserve" width="100%" xmlns:vectornator="http://vectornator.io" version="1.1" viewBox="0 0 512 512">
<metadata>
<vectornator:setting key="DynamicGuides" value="1"/>
<vectornator:setting key="Units" value="Points"/>
<vectornator:setting key="GuidesVisible" value="1"/>
<vectornator:setting key="RulersVisible" value="1"/>
<vectornator:setting key="SnapToGuides" value="1"/>
<vectornator:setting key="GridSpacing" value="36"/>
</metadata>
<defs/>
<g id="Untitled" vectornator:layerName="Untitled">
<path d="M38.4+499.2L38.4+173.047L174.711+64L261.299+64L320+122.701L320+213.223L317.389+216.653C277.803+268.732+256+312.252+256+339.2C256+378.684+277.965+415.155+313.318+434.381L320+438.016L320+499.2L38.4+499.2ZM102.4+192C95.343+192+89.6+197.743+89.6+204.8L89.6+358.4C89.6+365.457+95.343+371.2+102.4+371.2L153.6+371.2C160.657+371.2+166.4+365.457+166.4+358.4L166.4+204.8C166.4+197.743+160.657+192+153.6+192C153.6+192+102.4+192+102.4+192Z" opacity="1" fill="none"/>
<path d="M364.8+448C304.811+448+256+399.189+256+339.2C256+282.906+345.114+181.973+355.277+170.65L364.8+160.035L374.323+170.65C384.486+181.973+473.6+282.906+473.6+339.2C473.6+399.189+424.789+448+364.8+448Z" opacity="1" fill="none"/>
<path d="M166.4+12.8L268.8+12.8L268.8+12.8L268.8+64L268.8+64L166.4+64L166.4+64L166.4+12.8L166.4+12.8Z" opacity="1" fill="none"/>
<g opacity="1">
<path d="M153.6+179.2L102.4+179.2C88.26+179.2+76.8+190.66+76.8+204.8L76.8+358.4C76.8+372.54+88.26+384+102.4+384L153.6+384C167.74+384+179.2+372.54+179.2+358.4L179.2+204.8C179.2+190.66+167.74+179.2+153.6+179.2ZM153.6+358.4L102.4+358.4L102.4+204.8L153.6+204.8L153.6+358.4Z" opacity="1" fill="#000000"/>
<path d="M383.855+162.099C379+156.689+372.07+153.6+364.8+153.6C357.53+153.6+350.601+156.689+345.745+162.099C343.006+165.145+338.398+170.402+332.8+177.015L332.8+128C332.8+121.207+330.103+114.697+325.299+109.901L281.6+66.193L281.6+25.6C281.6+11.46+270.14+0+256+0L179.2+0C165.06+0+153.6+11.46+153.6+25.6L153.6+64.495L35.209+159.206C29.133+164.07+25.6+171.426+25.6+179.2L25.6+486.4C25.6+500.54+37.06+512+51.2+512L307.2+512C321.34+512+332.8+500.54+332.8+486.4L332.8+455.987C343.066+458.803+353.655+460.8+364.8+460.8C431.855+460.8+486.4+406.246+486.4+339.2C486.4+279.407+400.981+181.188+383.855+162.099ZM179.2+25.6L256+25.6L256+51.2L179.2+51.2L179.2+25.6ZM307.2+486.4L51.2+486.4L51.2+179.2L179.2+76.8L256+76.8L307.2+128L307.2+208.905C277.658+247.766+243.2+301.21+243.2+339.2C243.2+385.306+269.286+425.011+307.2+445.619C307.2+445.619+307.2+486.4+307.2+486.4ZM364.8+435.2C311.782+435.2+268.8+392.218+268.8+339.2C268.8+286.182+364.8+179.2+364.8+179.2C364.8+179.2+460.8+286.182+460.8+339.2C460.8+392.218+417.818+435.2+364.8+435.2Z" opacity="1" fill="#000000"/>
</g>
</g>
</svg>
