<?xml version="1.0" encoding="utf-8"?>
<!-- Generator: Adobe Illustrator 23.0.2, SVG Export Plug-In . SVG Version: 6.00 Build 0)  -->
<svg version="1.1" id="Слой_3" xmlns="http://www.w3.org/2000/svg" xmlns:xlink="http://www.w3.org/1999/xlink" x="0px" y="0px"
	 viewBox="0 0 935.43 935.43" style="enable-background:new 0 0 935.43 935.43;" xml:space="preserve">
<path d="M924.47,134.7l-25.48-25.53c-2.14-2.15-2.14-5.63-0.01-7.76l12.77-12.8c10.61-10.63,10.62-27.89,0-38.53l-26.67-26.73
	c-10.62-10.64-27.83-10.63-38.44,0l-12.77,12.8c-2.13,2.14-5.6,2.14-7.73,0L801.04,11c-14.18-14.22-36.65-14.72-50.21-1.13
	l-27.09,27.15c-4.04,4.05-6.81,8.89-8.37,14.06c-0.91,3.04-4.08,4.7-7.09,3.71c-12.28-4.07-26.35-1.22-36.12,8.58l-28.42,28.48
	c-5.54,5.55-8.85,12.48-9.94,19.69c0.12,0.04,0.25,0.09,0.38,0.15l-0.46,0.3c0.03-0.16,0.04-0.3,0.08-0.45
	c-14.56-6.06-31.94-3.14-43.78,8.72l-20.26,20.31c-7.74,7.76-12.12,18.14-12.22,28.33c0.13,0.05,0.26,0.09,0.38,0.15l-0.39,0.29
	c0-0.15,0-0.3,0.01-0.44c-15.32-6.15-33.5-3-45.91,9.44l-24.39,24.44c-9.62,9.64-13.84,23.3-12.34,35.95
	c0.19,1.66-0.38,3.34-1.57,4.53l-81.85,82.04c-2.13,2.13-5.6,2.13-7.73,0l-51.14-51.26c-6.22-6.23-16.3-6.23-22.52,0l-83.41,83.6
	c-6.21,6.23-6.21,16.33,0.01,22.57l18.91,18.95c2.13,2.13,2.13,5.61-0.01,7.76l-49.16,49.27c-13.96,13.99-13.96,36.68,0.01,50.68
	l24.7,24.75c2.13,2.14,2.13,5.62-0.01,7.76L10.21,750.78c-13.34,13.37-13.33,35.05,0,48.4l47.06,47.17
	c2.13,2.14,2.13,5.62-0.01,7.76l-0.09,0.09c-6.18,6.2-6.18,16.25,0.01,22.46c3.09,3.1,7.15,4.64,11.2,4.64s8.1-1.54,11.19-4.64
	l0.1-0.09c2.14-2.15,5.61-2.15,7.75,0l4,4.01c2.14,2.14,2.14,5.62,0,7.76l-15.73,15.77c-4.08,4.09-10.09,4.71-13.41,1.38
	L31.26,874.4c-2.15-2.16-5.65-2.17-7.77,0.01c-8.4,8.61-14.84,12.89-7.36,20.39l34.42,34.5c9.51,9.52,26.69,7.76,38.37-3.95
	l19.71-19.75c2.14-2.15,5.61-2.15,7.75,0l14.23,14.26c15.48,15.51,40.57,15.51,56.04,0L393.7,712.34c2.14-2.14,5.61-2.14,7.75,0
	l27.62,27.68c4.43,4.45,9.9,7.23,15.63,8.34c9.54,1.85,19.8-0.93,27.19-8.34l53.03-53.14c2.14-2.15,5.61-2.15,7.75,0l23.76,23.82
	c3.83,3.83,9.88,4.06,13.97,0.69c0.27-0.2,0.53-0.45,0.77-0.69l87.31-87.51c6.21-6.22,6.21-16.31,0.01-22.53l-52.13-52.25
	c-2.14-2.14-2.14-5.62-0.01-7.76l82.09-82.27c1.21-1.21,2.9-1.79,4.6-1.56c12.62,1.64,25.85-2.4,35.56-12.14l24.38-24.44
	c12.4-12.42,15.54-30.59,9.45-45.94h-0.07l0.04-0.06c0.02,0.02,0.03,0.04,0.03,0.06c10.27-0.01,20.4-4.46,28.24-12.32l20.26-20.31
	c10.78-10.8,14.15-26.21,10.11-39.9c-0.13,0.02-0.26,0.03-0.38,0.04l0.27-0.39c0.04,0.11,0.08,0.24,0.11,0.35
	c3.11-0.25,6.2-0.92,9.16-2.03c4.68-1.7,9.07-4.44,12.82-8.2l28.42-28.49c0.42-0.42,0.83-0.85,1.23-1.3
	c8.52-9.41,11.07-22.33,7.67-33.84c-0.87-2.91,0.7-5.94,3.59-6.83c5.37-1.65,10.42-4.74,14.57-8.9l27.09-27.15
	C939.15,171.43,938.64,148.91,924.47,134.7z M860.9,51.47c4.05-4.06,10.62-4.07,14.67-0.01l7.74,7.76c4.05,4.06,4.04,10.64,0,14.7
	l-7.84,7.85l-22.4-22.45L860.9,51.47z M714.13,57.35c-0.01-0.01,0-0.02,0-0.02c0.33,0.18,0.66,0.36,0.99,0.56l-0.02,0.02l-0.33,0.21
	l-0.66-0.66C714.12,57.42,714.12,57.39,714.13,57.35z M372.71,690.54l-0.27,0.27L161.53,902.2c-0.11,0.11-0.23,0.23-0.35,0.33
	c-0.23,0.22-0.48,0.42-0.73,0.6c-0.12,0.09-0.25,0.18-0.38,0.27c-0.26,0.17-0.52,0.32-0.79,0.47c-0.14,0.07-0.28,0.14-0.41,0.2
	c-0.31,0.14-0.63,0.27-0.95,0.38c-0.17,0.06-0.33,0.11-0.49,0.15c-0.16,0.05-0.33,0.09-0.49,0.12c-0.16,0.04-0.33,0.07-0.5,0.09
	c-0.16,0.03-0.33,0.05-0.5,0.07c-0.67,0.07-1.34,0.07-2.01,0c-0.17-0.02-0.33-0.04-0.5-0.07c-0.14-0.02-0.29-0.05-0.43-0.08
	c-0.19-0.03-0.38-0.08-0.56-0.13c-0.16-0.04-0.32-0.09-0.48-0.15c-0.32-0.11-0.64-0.24-0.95-0.38c-0.14-0.06-0.28-0.13-0.41-0.2
	c-0.27-0.15-0.54-0.3-0.8-0.47c-0.13-0.09-0.25-0.17-0.38-0.27c-0.25-0.18-0.5-0.38-0.73-0.6c-0.12-0.1-0.24-0.22-0.35-0.33
	L35.58,789.18c-5.57-5.59-5.78-14.77-0.42-20.56L242.5,560.8c2.11-2.11,5.52-2.14,7.66-0.08l122.22,122.5
	C374.43,685.31,374.46,688.4,372.71,690.54z M624.84,609.34c1.68,1.68,1.68,4.41,0,6.09l-57.31,57.44c-1.68,1.68-4.4,1.68-6.08,0
	l-25.81-25.86c-3.82-3.83-10.01-3.83-13.83,0l-54.33,54.44c-6.61,6.63-16.04,8.67-24.4,6.12c-3.67-1.11-7.13-3.1-10.06-5.98
	L234.73,502.84l0.01-0.01c-10.93-11.27-10.83-29.29,0.3-40.45l51.28-51.4c3.82-3.82,3.83-10.03,0.01-13.85l-25.82-25.88
	c-1.67-1.68-1.67-4.41,0-6.09l57.31-57.44c1.68-1.68,4.41-1.68,6.08,0L624.84,609.34z M660.79,443.67l-0.04,0.05
	c-0.02,0.03-0.05,0.06-0.08,0.09l-70.89,71.05l-4.73,4.74c-2.14,2.14-5.6,2.14-7.74,0l-165.1-165.32c-1.9-2.16-1.86-5.37,0.1-7.44
	l0.02-0.03c0.02-0.03,0.05-0.06,0.08-0.09l70.9-71.06l4.75-4.76c2.14-2.14,5.61-2.14,7.74,0l165.01,165.29
	C662.78,438.32,662.74,441.59,660.79,443.67z M728.16,402.72l-14.49,14.52c-0.25,0.25-0.5,0.49-0.75,0.71
	c-0.19,0.18-0.38,0.34-0.58,0.5c-0.19,0.17-0.39,0.33-0.59,0.48c-0.14,0.12-0.3,0.23-0.45,0.34c-0.25,0.19-0.51,0.37-0.77,0.54
	c-0.55,0.36-1.12,0.7-1.7,1.01c-0.22,0.12-0.45,0.23-0.67,0.33c-0.22,0.1-0.44,0.2-0.66,0.3c-0.22,0.1-0.45,0.19-0.68,0.28
	c-0.49,0.2-0.99,0.37-1.49,0.52c-0.13,0.04-0.27,0.08-0.41,0.12c-0.13,0.04-0.27,0.08-0.4,0.11c-0.13,0.04-0.25,0.07-0.38,0.1
	c-0.15,0.03-0.29,0.07-0.44,0.09c-0.28,0.06-0.56,0.11-0.83,0.16c-0.27,0.04-0.55,0.08-0.82,0.12c-0.23,0.03-0.46,0.06-0.69,0.08
	c-0.05,0-0.1,0-0.15,0.01c-0.21,0.02-0.42,0.03-0.63,0.04c-0.47,0.03-0.93,0.04-1.4,0.02c-0.11,0.01-0.23,0-0.34,0
	c-0.2-0.01-0.39-0.02-0.58-0.03c-0.83-0.05-1.66-0.16-2.48-0.31c-0.02,0-0.04,0-0.05-0.01c-0.41-0.08-0.81-0.17-1.21-0.27
	c-0.73-0.19-1.46-0.42-2.17-0.7c-0.25-0.09-0.49-0.19-0.74-0.3c-0.25-0.1-0.49-0.21-0.73-0.33s-0.48-0.24-0.71-0.36
	c-0.29-0.15-0.57-0.31-0.85-0.48c-0.23-0.13-0.45-0.27-0.67-0.42c-0.31-0.2-0.61-0.4-0.9-0.61c-0.3-0.21-0.59-0.44-0.87-0.67
	c-0.52-0.42-1.03-0.88-1.52-1.37L514.62,246.11c-0.49-0.49-0.95-1-1.37-1.52c-6.41-7.88-5.95-19.5,1.38-26.85l14.48-14.52
	c8.27-8.28,21.31-8.64,29.11-0.82h0.01l170.74,171.13C736.78,381.37,736.42,394.44,728.16,402.72z M782.18,328.08l-3.87,3.88
	l-7.92,7.94l-3.87,3.88c-8.18,8.2-21.47,8.2-29.67-0.01l-3.86-3.87L591.8,198.38l-3.87-3.87c-8.2-8.21-8.2-21.53-0.01-29.74
	l3.87-3.88l0.09-0.09l11.7-11.73c8.2-8.21,21.49-8.21,29.69,0l74.38,74.56l22.72,22.76l47.95,48.06c0.04,0.04,0.07,0.08,0.11,0.12
	l0.1,0.11l3.65,3.65C790.38,306.55,790.38,319.86,782.18,328.08z M839.48,252.23l-3.87,3.88l-7.92,7.94l-3.87,3.88
	c-8.19,8.2-21.47,8.2-29.67-0.01l-3.86-3.87l-119.1-119.37l-3.84-3.85c-8.2-8.22-8.2-21.54-0.01-29.75l3.82-3.83l8.1-8.11l3.74-3.75
	c8.19-8.22,21.48-8.22,29.68,0l3.71,3.72l0.17,0.16L835.62,218.6c0.07,0.08,0.15,0.15,0.22,0.23l3.64,3.65
	C847.68,230.7,847.68,244.01,839.48,252.23z M894.99,173.29l-16.14,16.17c-0.24,0.24-0.49,0.47-0.73,0.7
	c-0.5,0.46-1.02,0.88-1.56,1.27c-0.53,0.39-1.08,0.75-1.64,1.08c-0.2,0.12-0.39,0.24-0.6,0.33c-0.58,0.33-1.19,0.61-1.8,0.86
	c-0.1,0.05-0.19,0.09-0.29,0.12c-0.12,0.05-0.24,0.1-0.36,0.14c-0.19,0.07-0.39,0.14-0.59,0.21c-0.21,0.07-0.42,0.14-0.63,0.2
	c-0.22,0.07-0.43,0.13-0.64,0.18c-0.43,0.12-0.86,0.22-1.3,0.3c-0.2,0.04-0.4,0.07-0.6,0.11c-0.02,0.01-0.04,0.01-0.07,0.01
	c-0.65,0.1-1.3,0.18-1.96,0.22c-0.44,0.03-0.89,0.04-1.33,0.04c-0.63,0-1.26-0.03-1.88-0.09l-0.36-0.03
	c-0.14-0.01-0.29-0.03-0.43-0.05c-0.15-0.01-0.29-0.03-0.44-0.06c0,0,0,0-0.01,0c-0.31-0.04-0.63-0.1-0.94-0.16c0,0,0,0-0.01-0.01
	c-0.15-0.02-0.31-0.05-0.46-0.09c-0.21-0.04-0.43-0.09-0.64-0.15c-0.01,0-0.03,0-0.05-0.01c-0.01,0-0.02-0.01-0.02-0.01
	c-0.01,0-0.03,0-0.05-0.01c0,0-0.01,0-0.02-0.01c0,0-0.01,0.01-0.02,0c0,0-0.01,0-0.02-0.01c-0.29-0.07-0.59-0.15-0.89-0.24
	c-0.32-0.1-0.64-0.21-0.96-0.32c0,0,0,0-0.01,0c-0.19-0.08-0.38-0.15-0.58-0.22c-0.14-0.05-0.27-0.11-0.41-0.16v-0.01h-0.01
	c-0.33-0.14-0.65-0.28-0.97-0.43h-0.01c-0.16-0.07-0.32-0.15-0.48-0.24c-0.16-0.07-0.32-0.15-0.48-0.24v-0.01
	c-0.26-0.13-0.51-0.27-0.76-0.42c-0.22-0.13-0.44-0.26-0.66-0.4c-0.1-0.06-0.2-0.12-0.3-0.19c-0.06-0.04-0.11-0.08-0.16-0.11
	c-0.12-0.07-0.23-0.15-0.34-0.23c-0.02-0.01-0.04-0.03-0.06-0.04c-0.13-0.09-0.27-0.19-0.4-0.29c-0.02-0.01-0.04-0.03-0.07-0.05
	c-0.06-0.05-0.13-0.1-0.2-0.15c-0.24-0.18-0.47-0.36-0.71-0.55c0,0,0,0-0.01,0v-0.01c-0.02-0.02-0.04-0.04-0.06-0.05
	c-0.26-0.22-0.51-0.44-0.76-0.66c-0.01,0-0.02-0.01-0.03-0.02v-0.01c-0.04-0.04-0.08-0.07-0.11-0.1c-0.06-0.05-0.11-0.1-0.16-0.15
	c-0.19-0.16-0.38-0.35-0.56-0.53v-0.01L745.37,84.59c-7.42-7.44-8.28-18.92-2.44-26.94c0.61-0.84,1.27-1.63,2.03-2.38l16.14-16.18
	c0.76-0.77,1.57-1.46,2.43-2.09c0.23-0.17,0.46-0.33,0.7-0.49c0.35-0.24,0.71-0.47,1.07-0.68c0.36-0.22,0.74-0.42,1.11-0.61
	c0.99-0.51,2.02-0.94,3.07-1.27c0.25-0.09,0.5-0.16,0.75-0.23c1.39-0.4,2.81-0.64,4.24-0.74c0.21-0.02,0.42-0.03,0.64-0.03
	c0.52-0.03,1.04-0.03,1.55-0.01c0.17,0.01,0.35,0.02,0.52,0.03c0.33,0.01,0.66,0.04,0.98,0.09c0.2,0.01,0.39,0.03,0.59,0.07
	c0.12,0,0.23,0.02,0.34,0.04c0.16,0.02,0.32,0.05,0.48,0.08c0.05,0.01,0.11,0.02,0.16,0.03c0.31,0.05,0.61,0.11,0.91,0.19
	c0.1,0.01,0.2,0.04,0.3,0.06c0.65,0.16,1.3,0.35,1.94,0.58c0.47,0.16,0.94,0.35,1.4,0.55c0.23,0.1,0.46,0.21,0.69,0.32
	c0.57,0.27,1.13,0.57,1.68,0.89c0.28,0.17,0.56,0.34,0.83,0.52c0.29,0.19,0.58,0.39,0.86,0.61c0.28,0.2,0.57,0.42,0.84,0.65
	c0.27,0.22,0.54,0.45,0.81,0.69c0.26,0.24,0.52,0.48,0.78,0.74v0.01L894.65,143.2C903.03,151.6,903.19,165.08,894.99,173.29z"/>
<path d="M372.71,690.54l-0.27,0.27L161.53,902.2c-0.11,0.11-0.23,0.23-0.35,0.33c-0.23,0.22-0.48,0.42-0.73,0.6
	c-0.12,0.09-0.25,0.18-0.38,0.27c-0.26,0.17-0.52,0.32-0.79,0.47c-0.14,0.07-0.28,0.14-0.41,0.2c-0.31,0.14-0.63,0.27-0.95,0.38
	c-0.17,0.06-0.33,0.11-0.49,0.15c-0.16,0.05-0.33,0.09-0.49,0.12c-0.16,0.04-0.33,0.07-0.5,0.09c-0.16,0.03-0.33,0.05-0.5,0.07
	c-0.67,0.07-1.34,0.07-2.01,0c-0.17-0.02-0.33-0.04-0.5-0.07c-0.14-0.02-0.29-0.05-0.43-0.08c-0.19-0.03-0.38-0.08-0.56-0.13
	c-0.16-0.04-0.32-0.09-0.48-0.15c-0.32-0.11-0.64-0.24-0.95-0.38c-0.14-0.06-0.28-0.13-0.41-0.2c-0.27-0.15-0.54-0.3-0.8-0.47
	c-0.13-0.09-0.25-0.17-0.38-0.27c-0.25-0.18-0.5-0.38-0.73-0.6c-0.12-0.1-0.24-0.22-0.35-0.33L35.58,789.18
	c-5.57-5.59-5.78-14.77-0.42-20.56L242.5,560.8c2.11-2.11,5.52-2.14,7.66-0.08l122.22,122.5
	C374.43,685.31,374.46,688.4,372.71,690.54z"/>
<path d="M624.83,615.43l-57.31,57.44c-1.68,1.68-4.4,1.68-6.08,0l-25.81-25.87c-3.82-3.83-10.02-3.83-13.83,0l-54.32,54.45
	c-6.61,6.63-16.05,8.66-24.4,6.12c-3.67-1.11-7.13-3.11-10.06-5.99L234.73,502.84l0.01-0.01c-10.93-11.27-10.83-29.29,0.3-40.45
	l51.28-51.4c3.82-3.83,3.83-10.03,0.01-13.86l-25.82-25.87c-1.68-1.68-1.68-4.41,0-6.1l57.31-57.44c1.68-1.68,4.4-1.68,6.08,0
	l300.93,301.62C626.51,611.02,626.51,613.75,624.83,615.43z"/>
</svg>
