<?xml version="1.0" encoding="UTF-8" standalone="no"?> <!-- Created with Vectornator for iOS (http://vectornator.io/) --><!DOCTYPE svg PUBLIC "-//W3C//DTD SVG 1.1//EN" "http://www.w3.org/Graphics/SVG/1.1/DTD/svg11.dtd">
<svg height="100%" style="fill-rule:evenodd;clip-rule:evenodd;stroke-linecap:round;stroke-linejoin:round;" xmlns:xlink="http://www.w3.org/1999/xlink" xmlns="http://www.w3.org/2000/svg" xml:space="preserve" width="100%" xmlns:vectornator="http://vectornator.io" version="1.1" viewBox="0 0 512 512">
<metadata>
<vectornator:setting key="DynamicGuides" value="1"/>
<vectornator:setting key="Units" value="Points"/>
<vectornator:setting key="GuidesVisible" value="1"/>
<vectornator:setting key="RulersVisible" value="1"/>
<vectornator:setting key="SnapToGuides" value="1"/>
<vectornator:setting key="GridSpacing" value="36"/>
</metadata>
<defs/>
<g id="Untitled" vectornator:layerName="Untitled">
<path d="M256+499.2C121.899+499.2+12.8+390.101+12.8+256C12.8+121.899+121.899+12.8+256+12.8C390.101+12.8+499.2+121.899+499.2+256C499.2+390.101+390.101+499.2+256+499.2ZM256+89.6C164.25+89.6+89.6+164.25+89.6+256C89.6+347.75+164.25+422.4+256+422.4C347.75+422.4+422.4+347.75+422.4+256C422.4+164.25+347.75+89.6+256+89.6Z" opacity="1" fill="#000000"/>
<path d="M276.181+240.503C273.169+236.595+269.132+233.659+264.516+232.012L256+228.983L256+89.139L269.858+90.291C331.767+95.437+385.237+134.238+409.404+191.556L414.814+204.39L281.685+247.645L276.181+240.503Z" opacity="1" fill="none"/>
<path d="M230.4+256C230.4+241.862+241.862+230.4+256+230.4C270.138+230.4+281.6+241.862+281.6+256C281.6+270.138+270.138+281.6+256+281.6C241.862+281.6+230.4+270.138+230.4+256Z" opacity="1" fill="#000000"/>
<g opacity="1">
<path d="M147.422+381.841C110.677+350.089+89.6+304.222+89.6+256C89.6+243.61+91.127+230.827+94.14+217.993L97.323+204.442L230.264+247.638L230.503+256.675C230.64+261.701+232.167+266.471+234.932+270.482L240.069+277.94L157.961+390.938L147.422+381.841Z" opacity="1" fill="none"/>
<path d="M271.94+277.931L277.086+270.473C279.842+266.479+281.37+261.709+281.506+256.675L281.745+247.638L414.686+204.442L417.869+217.993C420.873+230.827+422.4+243.61+422.4+256C422.4+304.222+401.323+350.089+364.578+381.841L354.039+390.946L271.94+277.931Z" opacity="1" fill="none"/>
<path d="M256+422.4C225.766+422.4+195.968+414.003+169.856+398.114L157.986+390.895L240.145+277.82L248.815+280.389C251.605+281.217+253.892+281.601+256+281.601C258.116+281.601+260.403+281.217+263.202+280.389L271.872+277.829L354.014+390.896L342.144+398.115C316.032+414.003+286.234+422.4+256+422.4Z" opacity="1" fill="none"/>
<path d="M97.186+204.399L102.596+191.565C126.762+134.247+180.232+95.437+242.142+90.3L256+89.139L256+228.983L247.484+232.004C242.859+233.642+238.831+236.578+235.819+240.495L230.306+247.646L97.186+204.399Z" opacity="1" fill="none"/>
</g>
<g opacity="1">
<path d="M256+0C114.62+0+0+114.611+0+256C0+397.38+114.62+512+256+512C397.38+512+512+397.38+512+256C512+114.611+397.38+0+256+0ZM256+486.4C128.956+486.4+25.6+383.044+25.6+256C25.6+128.956+128.956+25.6+256+25.6C383.044+25.6+486.4+128.956+486.4+256C486.4+383.044+383.044+486.4+256+486.4Z" opacity="1" fill="#000000"/>
<path d="M256+76.8C157.03+76.8+76.8+157.03+76.8+256C76.8+354.97+157.03+435.2+256+435.2C354.97+435.2+435.2+354.97+435.2+256C435.2+157.03+354.97+76.8+256+76.8ZM268.8+103.049C326.878+107.87+375.902+145.042+397.611+196.532L286.328+232.688C281.865+226.885+275.832+222.448+268.801+219.948L268.801+103.049L268.8+103.049ZM256+243.2C263.057+243.2+268.8+248.943+268.8+256C268.8+263.057+263.057+268.8+256+268.8C248.943+268.8+243.2+263.057+243.2+256C243.2+248.943+248.943+243.2+256+243.2ZM243.2+103.049L243.2+219.947C236.177+222.447+230.144+226.893+225.673+232.687L114.39+196.531C136.098+145.041+185.122+107.87+243.2+103.049ZM102.4+256C102.4+243.917+103.945+232.209+106.598+220.919L217.702+257.015C217.907+264.704+220.305+271.829+224.384+277.742L155.785+372.146C123.162+343.962+102.4+302.396+102.4+256ZM256+409.6C226.884+409.6+199.731+401.306+176.503+387.174L245.179+292.659C248.635+293.683+252.219+294.4+255.999+294.4C259.788+294.4+263.372+293.683+266.828+292.659L335.496+387.174C312.269+401.306+285.116+409.6+256+409.6ZM356.207+372.147L287.616+277.734C291.695+271.82+294.084+264.695+294.289+257.007L405.393+220.911C408.055+232.209+409.6+243.917+409.6+256C409.6+302.396+388.838+343.962+356.207+372.147Z" opacity="1" fill="#000000"/>
</g>
</g>
</svg>
