<?xml version="1.0" encoding="UTF-8" standalone="no"?>
<!DOCTYPE svg PUBLIC "-//W3C//DTD SVG 1.1//EN" "http://www.w3.org/Graphics/SVG/1.1/DTD/svg11.dtd">
<!-- Created with Vectornator (http://vectornator.io/) -->
<svg height="100%" stroke-miterlimit="10" style="fill-rule:nonzero;clip-rule:evenodd;stroke-linecap:round;stroke-linejoin:round;" version="1.1" viewBox="0 0 512 512" width="100%" xml:space="preserve" xmlns="http://www.w3.org/2000/svg" xmlns:xlink="http://www.w3.org/1999/xlink">
<defs/>
<g id="Untitled">
<path d="M256 499.2C121.899 499.2 12.8 390.101 12.8 256C12.8 121.899 121.899 12.8 256 12.8C390.101 12.8 499.2 121.899 499.2 256C499.2 390.101 390.101 499.2 256 499.2ZM256 89.6C164.25 89.6 89.6 164.25 89.6 256C89.6 347.75 164.25 422.4 256 422.4C347.75 422.4 422.4 347.75 422.4 256C422.4 164.25 347.75 89.6 256 89.6Z" fill="#4b4848" fill-rule="evenodd" opacity="1" stroke="none"/>
<path d="M230.4 256C230.4 241.862 241.862 230.4 256 230.4C270.138 230.4 281.6 241.862 281.6 256C281.6 270.138 270.138 281.6 256 281.6C241.862 281.6 230.4 270.138 230.4 256Z" fill="#4b4848" fill-rule="evenodd" opacity="1" stroke="none"/>
<g opacity="1"/>
<g opacity="1">
<path d="M256 0C114.62 0 0 114.611 0 256C0 397.38 114.62 512 256 512C397.38 512 512 397.38 512 256C512 114.611 397.38 0 256 0ZM256 486.4C128.956 486.4 25.6 383.044 25.6 256C25.6 128.956 128.956 25.6 256 25.6C383.044 25.6 486.4 128.956 486.4 256C486.4 383.044 383.044 486.4 256 486.4Z" fill="#4b4848" fill-rule="evenodd" opacity="1" stroke="none"/>
<path d="M256 76.8C157.03 76.8 76.8 157.03 76.8 256C76.8 354.97 157.03 435.2 256 435.2C354.97 435.2 435.2 354.97 435.2 256C435.2 157.03 354.97 76.8 256 76.8ZM268.8 103.049C326.878 107.87 375.902 145.042 397.611 196.532L286.328 232.688C281.865 226.885 275.832 222.448 268.801 219.948L268.801 103.049L268.8 103.049ZM256 243.2C263.057 243.2 268.8 248.943 268.8 256C268.8 263.057 263.057 268.8 256 268.8C248.943 268.8 243.2 263.057 243.2 256C243.2 248.943 248.943 243.2 256 243.2ZM243.2 103.049L243.2 219.947C236.177 222.447 230.144 226.893 225.673 232.687L114.39 196.531C136.098 145.041 185.122 107.87 243.2 103.049ZM102.4 256C102.4 243.917 103.945 232.209 106.598 220.919L217.702 257.015C217.907 264.704 220.305 271.829 224.384 277.742L155.785 372.146C123.162 343.962 102.4 302.396 102.4 256ZM256 409.6C226.884 409.6 199.731 401.306 176.503 387.174L245.179 292.659C248.635 293.683 252.219 294.4 255.999 294.4C259.788 294.4 263.372 293.683 266.828 292.659L335.496 387.174C312.269 401.306 285.116 409.6 256 409.6ZM356.207 372.147L287.616 277.734C291.695 271.82 294.084 264.695 294.289 257.007L405.393 220.911C408.055 232.209 409.6 243.917 409.6 256C409.6 302.396 388.838 343.962 356.207 372.147Z" fill="#4b4848" fill-rule="evenodd" opacity="1" stroke="#4b4848" stroke-linecap="round" stroke-linejoin="round" stroke-width="8"/>
</g>
</g>
</svg>
