<?xml version="1.0" encoding="utf-8"?>
<!-- Generator: Adobe Illustrator 23.0.2, SVG Export Plug-In . SVG Version: 6.00 Build 0)  -->
<svg version="1.1" id="Слой_1" xmlns="http://www.w3.org/2000/svg" xmlns:xlink="http://www.w3.org/1999/xlink" x="0px" y="0px"
	 viewBox="0 0 708.7 708.7" style="enable-background:new 0 0 708.7 708.7;" xml:space="preserve">
<style type="text/css">
	.st0{fill:#201600;}
</style>
<path class="st0" d="M608.7,70.9l-0.3-0.4c0-0.1-0.1-0.1-0.1-0.2l-7.4-9l-36.5-44.5l-8.6-10.5c-1.3-1.6-2.9-2.8-4.6-3.8
	c-5.7-3.3-13.1-3-18.5,1.4l-16.1,13.2l-2.1,1.8c-3.4,2.8-5.2,6.7-5.3,10.8c0,0.3,0,0.5,0,0.7c0,0.2,0,0.4,0,0.6c0,0.1,0,0.3,0,0.4
	c0,0.5,0.1,0.9,0.2,1.4c0.1,0.6,0.3,1.2,0.5,1.7l-1.3,1.1l-6.2,5.1l-14.5,11.9l-0.6,0.5l-92.3,74.6l-80.6,65.1L141.3,332.5
	l-41.4,33.4c-0.1,0.1-0.2,0.1-0.2,0c-2.5-1.4-5.2-2.1-8-2.3c-3.9-0.2-7.8,1.2-11.1,3.8L65,380.2c-3.6,3-5.7,7.1-6.1,11.4
	c-0.4,4.3,0.9,8.8,3.7,12.5l52.3,63.7c5.9,7.2,16.4,8.2,23.5,2.3l15.8-12.9c0.3-0.2,0.6-0.5,0.9-0.8c0.5-0.5,1-1,1.4-1.5
	c0.1-0.1,0.2-0.3,0.3-0.4c2.2-3,3.3-6.6,3.1-10.2l7.1-6l0,0l0.2-0.2l0.3-0.3l0.4-0.3c2.5-2.4,5.7-4.6,8.8-7.1c1.3-1,2.6-2.1,3.9-3.2
	l0.1-0.1c1.2-1,2.5-2,3.8-3.1l0.2-0.1c0.7-0.6,1.5-1.2,2.2-1.8c0.1-0.1,0.2-0.2,0.3-0.2c1.5-1.2,3-2.4,4.5-3.7
	c3.1-2.5,6.3-5.1,9.6-7.7c1.3-1.1,2.6-2.1,4-3.2c8.1-6.5,16.6-13.4,25.2-20.3c1.5-1.2,3-2.5,4.6-3.7c0.9-0.7,1.8-1.4,2.7-2.2
	c3.1-2.5,6.2-5,9.3-7.5c0.9-0.7,1.8-1.4,2.6-2.1c3.9-3.2,7.9-6.3,11.7-9.4c0.7-0.6,1.5-1.2,2.2-1.8c0.1-0.1,0.2-0.2,0.3-0.3
	c0.7-0.6,1.4-1.1,2.1-1.7c0.8-0.7,1.6-1.3,2.4-1.9c1-0.8,2-1.6,3-2.4c1.2-1,2.4-2,3.6-2.9c0.8-0.6,1.5-1.2,2.3-1.9
	c0.9-0.7,1.8-1.5,2.7-2.2c0.7-0.5,1.3-1.1,2-1.6c0.4-0.3,0.8-0.6,1.1-0.9c1.3-1,2.6-2.1,3.8-3.1c0,0,0,0,0,0c1.3-1,2.5-2,3.7-3
	c0,0,0.1-0.1,0.1-0.1c0.4-0.4,0.9-0.7,1.3-1c0.8-0.7,1.7-1.4,2.5-2c0.4-0.3,0.8-0.7,1.2-1c0.6-0.5,1.3-1,1.9-1.5
	c0.9-0.8,1.9-1.5,2.8-2.2c0.3-0.2,0.6-0.5,0.9-0.7c0.9-0.7,1.7-1.4,2.6-2.1c1.7-1.3,3.3-2.6,4.7-3.8l0.6-0.5
	c0.1-0.1,0.2-0.1,0.3-0.2c0,0,0.1-0.1,0.1-0.1c0.3-0.3,0.7-0.4,1.1-0.5c0,0,0,0,0,0c1-0.2,2.1,0.2,2.8,1.1c0,0,0,0,0,0
	c6,7.7,17,9.1,24.7,3.1l13.5-10.5c1.2-0.9,2.9-0.7,3.9,0.4l73,88.9c-0.3,0.8-0.7,1.5-1.3,2.1c-0.1,0.1-0.1,0.1-0.2,0.2
	c0,0,0,0-0.1,0.1c-0.1,0.1-0.2,0.2-0.2,0.2L119.3,661.1l-8.9,7.3c-1.9,1.5-3,3.7-3.2,5.9c-0.3,2.3,0.4,4.8,2,6.7l19.9,24.3
	c0.8,1,1.8,1.8,2.8,2.3c3.1,1.6,7,1.3,9.8-1.1l332.9-273.2c0.1-0.1,0.2-0.2,0.3-0.3l2-1.6c11.6-9.5,13.3-26.6,3.8-38.2l-86.7-105.7
	c-1-1.2-0.8-3,0.4-4l16.7-13c5.9-4.6,7-13.1,2.4-19l-2.5-3.2c-0.4-0.5-1-1.3-1.7-2.2l-0.1-0.1l-0.2-0.3c-0.3-0.5-0.5-1-0.4-1.6
	c0.1-0.6,0.3-1.1,0.6-1.5c0.2-0.2,0.4-0.4,0.7-0.5c0,0,0,0,0,0l138.8-111.8l0.2-0.2l22.1-18.1l1.4-1.1c0.5,0.3,1.1,0.6,1.6,0.8
	c0.3,0.1,0.5,0.2,0.8,0.3c0,0,0,0,0,0c0.3,0.1,0.6,0.2,0.9,0.3c4.4,1.2,9.2,0.4,13-2.7l17.6-14.4C613.6,89.1,614.7,78.3,608.7,70.9z
	 M548.6,86.8L149.2,404.2c-0.5,0.4-1,0.8-1.6,1.1c-2.9,1.8-6.3,2.5-9.6,2.2c-4-0.4-7.9-2.4-10.6-5.8c-1.1-1.4-1.9-2.9-2.5-4.4
	c-2.2-6.1-0.4-13.1,5-17.4L529.3,62.5c3.3-2.6,7.3-3.7,11.2-3.3c0.5,0.1,1,0.1,1.5,0.2c0,0,0,0,0,0c3.5,0.7,6.7,2.6,9.1,5.6
	c0.9,1.1,1.6,2.3,2.1,3.6C555.9,74.9,554.2,82.4,548.6,86.8z"/>
</svg>
