<?xml version="1.0" encoding="UTF-8" standalone="no"?> <!-- Created with Vectornator for iOS (http://vectornator.io/) --><!DOCTYPE svg PUBLIC "-//W3C//DTD SVG 1.1//EN" "http://www.w3.org/Graphics/SVG/1.1/DTD/svg11.dtd">
<svg height="100%" style="fill-rule:evenodd;clip-rule:evenodd;stroke-linecap:round;stroke-linejoin:round;" xmlns:xlink="http://www.w3.org/1999/xlink" xmlns="http://www.w3.org/2000/svg" xml:space="preserve" width="100%" xmlns:vectornator="http://vectornator.io" version="1.1" viewBox="0 0 512.006 512.006">
<metadata>
<vectornator:setting key="DynamicGuides" value="1"/>
<vectornator:setting key="Units" value="Points"/>
<vectornator:setting key="GuidesVisible" value="1"/>
<vectornator:setting key="RulersVisible" value="1"/>
<vectornator:setting key="SnapToGuides" value="1"/>
<vectornator:setting key="GridSpacing" value="36"/>
</metadata>
<defs/>
<g id="Untitled" vectornator:layerName="Untitled">
<path d="M49.424+499.169C40.327+499.169+31.922+495.389+24.464+487.922C-2.689+460.743+24.549+433.488+42.572+415.448L258.167+199.683C232.243+150.232+241.015+89.978+281.019+49.94C304.938+26.013+337.006+12.829+371.31+12.829C373.64+12.829+375.944+12.889+378.248+13.008L393.838+27.617L322.021+99.502L336.494+175.662L412.569+190.135L484.403+118.233L499.012+133.858C500.915+170.304+487.466+205.768+462.105+231.147C438.007+255.271+405.947+268.557+371.839+268.557C351.069+268.557+330.751+263.556+312.481+254.016L96.894+469.797C82.465+484.235+67.54+499.169+49.424+499.169Z" opacity="1" fill="#4b4848"/>
<path d="M495.41+110.603C492.423+109.46+489.317+108.896+486.237+108.896C479.564+108.896+473.019+111.507+468.121+116.405L408.311+176.266L347.443+164.686L335.872+103.775L395.691+43.914C402.842+36.755+405.112+26.054+401.494+16.607C397.867+7.161+389.027+0.725999+378.923+0.196998C376.397+0.0689984+373.871+0.000998363+371.345+0.000998363L371.345+0.000998363C333.594+0.000998363+298.3+14.516+271.966+40.876C230.238+82.638+219.384+144.394+242.68+197.045L75.536+364.316L33.509+406.377C15.879+424.024-20.814+460.743+15.401+496.992C27.8+509.399+40.745+512.002+49.423+512.002C72.838+512.002+90.426+494.398+105.948+478.867L315.134+269.51C332.917+277.318+352.203+281.388+371.847+281.388C409.368+281.388+444.645+266.77+471.166+240.232C499.087+212.294+513.901+173.279+511.81+133.198C511.273+123.088+504.856+114.23+495.41+110.603ZM453.05+222.108C430.607+244.568+401.236+255.763+371.838+255.763C350.471+255.763+329.095+249.849+310.355+238.048C230.398+318.074+125.062+423.486+87.831+460.742C75.022+473.559+62.222+486.376+49.414+486.376C44.115+486.376+38.807+484.174+33.499+478.867C15.391+460.742+33.499+442.626+51.607+424.501C88.838+387.244+194.165+281.832+274.131+201.807C246.125+157.254+251.304+97.794+290.063+59.002C312.514+36.534+341.903+25.637+371.334+25.637C373.416+25.637+375.49+25.688+377.572+25.799L308.18+95.243L325.537+186.609L416.835+203.983L486.228+134.53C487.875+166.027+477.089+198.044+453.05+222.108Z" opacity="1" fill="#4b4848"/>
</g>
</svg>
