<?xml version="1.0" encoding="iso-8859-1"?>
<!-- Generator: Adobe Illustrator 19.0.0, SVG Export Plug-In . SVG Version: 6.00 Build 0)  -->
<svg version="1.1" id="Layer_1" xmlns="http://www.w3.org/2000/svg" xmlns:xlink="http://www.w3.org/1999/xlink" x="0px" y="0px"
	 viewBox="0 0 512 512" style="enable-background:new 0 0 512 512;" xml:space="preserve">
<path style="fill:#BDC4D0;" d="M12.8,153.6v-12.8c0-21.171,17.229-38.4,38.4-38.4h409.6c21.171,0,38.4,17.229,38.4,38.4v12.8H12.8z"
	/>
<path style="fill:#FF877F;" d="M51.2,460.8c-21.171,0-38.4-17.229-38.4-38.4V153.6h486.4v268.8c0,21.171-17.229,38.4-38.4,38.4H51.2
	z"/>
<rect x="64" y="51.2" style="fill:#6FB0B6;" width="102.4" height="51.2"/>
<rect x="345.6" y="51.2" style="fill:#FF877F;" width="102.4" height="51.2"/>
<g>
	<path style="fill:#573A32;" d="M460.8,89.6V64c0-14.14-11.46-25.6-25.6-25.6h-76.8c-14.14,0-25.6,11.46-25.6,25.6v25.6H179.2V64
		c0-14.14-11.46-25.6-25.6-25.6H76.8c-14.14,0-25.6,11.46-25.6,25.6v25.6C22.972,89.6,0,112.563,0,140.8v281.6
		c0,28.228,22.972,51.2,51.2,51.2h409.6c28.228,0,51.2-22.972,51.2-51.2V140.8C512,112.563,489.028,89.6,460.8,89.6z M358.4,64h76.8
		v25.6h-76.8V64z M76.8,64h76.8v25.6H76.8V64z M486.4,422.4c0,14.14-11.46,25.6-25.6,25.6H51.2c-14.14,0-25.6-11.46-25.6-25.6v-256
		h460.8V422.4z M25.6,140.8c0-14.14,11.46-25.6,25.6-25.6h409.6c14.14,0,25.6,11.46,25.6,25.6H25.6z"/>
	<polygon style="fill:#573A32;" points="384,358.4 409.6,358.4 409.6,320 448,320 448,294.4 409.6,294.4 409.6,256 384,256 
		384,294.4 345.6,294.4 345.6,320 384,320 	"/>
	<rect x="64" y="294.4" style="fill:#573A32;" width="102.4" height="25.6"/>
</g>
<g>
</g>
<g>
</g>
<g>
</g>
<g>
</g>
<g>
</g>
<g>
</g>
<g>
</g>
<g>
</g>
<g>
</g>
<g>
</g>
<g>
</g>
<g>
</g>
<g>
</g>
<g>
</g>
<g>
</g>
</svg>
