<?xml version="1.0" encoding="iso-8859-1"?>
<!-- Generator: Adobe Illustrator 19.0.0, SVG Export Plug-In . SVG Version: 6.00 Build 0)  -->
<svg version="1.1" id="Layer_1" xmlns="http://www.w3.org/2000/svg" xmlns:xlink="http://www.w3.org/1999/xlink" x="0px" y="0px"
	 viewBox="0 0 512 512" style="enable-background:new 0 0 512 512;" xml:space="preserve">
<path style="fill:#BDC4D0;" d="M225.101,422.4l-51.2-51.2H64V140.8h409.6v128h25.6v153.6H225.101z M396.8,192
	c-14.114,0-25.6,11.486-25.6,25.6c0,14.114,11.486,25.6,25.6,25.6s25.6-11.486,25.6-25.6C422.4,203.486,410.914,192,396.8,192z
	 M311.467,192c-14.114,0-25.6,11.486-25.6,25.6c0,14.114,11.486,25.6,25.6,25.6c14.114,0,25.6-11.486,25.6-25.6
	C337.067,203.486,325.581,192,311.467,192z M226.133,192c-14.114,0-25.6,11.486-25.6,25.6c0,14.114,11.486,25.6,25.6,25.6
	c14.114,0,25.6-11.486,25.6-25.6C251.733,203.486,240.247,192,226.133,192z M140.8,192c-14.114,0-25.6,11.486-25.6,25.6
	c0,14.114,11.486,25.6,25.6,25.6s25.6-11.486,25.6-25.6C166.4,203.486,154.914,192,140.8,192z"/>
<g>
	<circle style="fill:#919CB0;" cx="140.8" cy="217.6" r="25.6"/>
	<circle style="fill:#919CB0;" cx="226.133" cy="217.6" r="25.6"/>
	<circle style="fill:#919CB0;" cx="311.467" cy="217.6" r="25.6"/>
	<circle style="fill:#919CB0;" cx="396.8" cy="217.6" r="25.6"/>
</g>
<g>
	<path style="fill:#573A32;" d="M486.4,256V153.6c0-14.14-11.46-25.6-25.6-25.6H243.2v-25.6H320c7.074,0,12.8-5.726,12.8-12.8
		c0-7.074-5.726-12.8-12.8-12.8H140.8c-7.074,0-12.8,5.726-12.8,12.8c0,7.074,5.726,12.8,12.8,12.8h76.8V128H76.8
		c-14.14,0-25.6,11.46-25.6,25.6v89.6H25.6v-76.8c0-7.074-5.726-12.8-12.8-12.8S0,159.326,0,166.4v179.2
		c0,7.074,5.726,12.8,12.8,12.8s12.8-5.726,12.8-12.8v-76.8h25.6v89.6c0,14.14,11.46,25.6,25.6,25.6h91.793l43.699,43.699
		c4.804,4.804,11.315,7.501,18.108,7.501h256c14.14,0,25.6-11.46,25.6-25.6v-128C512,267.46,500.54,256,486.4,256z M486.4,409.6
		h-256l-51.2-51.2H76.8V153.6h384v128h25.6V409.6z"/>
	<path style="fill:#573A32;" d="M140.8,256c21.171,0,38.4-17.229,38.4-38.4s-17.229-38.4-38.4-38.4s-38.4,17.229-38.4,38.4
		S119.629,256,140.8,256z M140.8,204.8c7.066,0,12.8,5.726,12.8,12.8c0,7.066-5.734,12.8-12.8,12.8c-7.066,0-12.8-5.734-12.8-12.8
		C128,210.526,133.734,204.8,140.8,204.8z"/>
	<path style="fill:#573A32;" d="M226.133,256c21.171,0,38.4-17.229,38.4-38.4s-17.229-38.4-38.4-38.4s-38.4,17.229-38.4,38.4
		S204.962,256,226.133,256z M226.133,204.8c7.074,0,12.8,5.726,12.8,12.8c0,7.066-5.726,12.8-12.8,12.8
		c-7.066,0-12.8-5.734-12.8-12.8C213.333,210.526,219.068,204.8,226.133,204.8z"/>
	<path style="fill:#573A32;" d="M311.467,256c21.171,0,38.4-17.229,38.4-38.4s-17.229-38.4-38.4-38.4
		c-21.171,0-38.4,17.229-38.4,38.4S290.296,256,311.467,256z M311.467,204.8c7.066,0,12.8,5.726,12.8,12.8
		c0,7.066-5.734,12.8-12.8,12.8c-7.074,0-12.8-5.734-12.8-12.8C298.667,210.526,304.401,204.8,311.467,204.8z"/>
	<path style="fill:#573A32;" d="M396.8,256c21.171,0,38.4-17.229,38.4-38.4s-17.229-38.4-38.4-38.4s-38.4,17.229-38.4,38.4
		S375.629,256,396.8,256z M396.8,204.8c7.066,0,12.8,5.726,12.8,12.8c0,7.066-5.734,12.8-12.8,12.8s-12.8-5.734-12.8-12.8
		C384,210.526,389.734,204.8,396.8,204.8z"/>
	<rect x="102.4" y="307.2" style="fill:#573A32;" width="358.4" height="25.6"/>
	<circle style="fill:#573A32;" cx="448" cy="371.2" r="12.8"/>
	<circle style="fill:#573A32;" cx="396.8" cy="371.2" r="12.8"/>
	<circle style="fill:#573A32;" cx="345.6" cy="371.2" r="12.8"/>
	<circle style="fill:#573A32;" cx="294.4" cy="371.2" r="12.8"/>
	<circle style="fill:#573A32;" cx="243.2" cy="371.2" r="12.8"/>
</g>
<g>
</g>
<g>
</g>
<g>
</g>
<g>
</g>
<g>
</g>
<g>
</g>
<g>
</g>
<g>
</g>
<g>
</g>
<g>
</g>
<g>
</g>
<g>
</g>
<g>
</g>
<g>
</g>
<g>
</g>
</svg>
