<?xml version="1.0" encoding="UTF-8" standalone="no"?>
<!DOCTYPE svg PUBLIC "-//W3C//DTD SVG 1.1//EN" "http://www.w3.org/Graphics/SVG/1.1/DTD/svg11.dtd">
<!-- Created with Vectornator (http://vectornator.io/) -->
<svg height="100%" stroke-miterlimit="10" style="fill-rule:nonzero;clip-rule:evenodd;stroke-linecap:round;stroke-linejoin:round;" version="1.1" viewBox="0 0 24 24" width="100%" xml:space="preserve" xmlns="http://www.w3.org/2000/svg" xmlns:xlink="http://www.w3.org/1999/xlink">
<defs/>
<g id="Untitled"/>
<g id="Layer-1">
<g opacity="1">
<path d="M2.50049 7.99977L2.50049 18.5002C2.50049 19.3272 3.17252 20.0005 3.99951 20.0005L20.0005 20.0005C20.8275 20.0005 21.4995 19.3272 21.4995 18.5002L21.4995 7.99977L2.50049 7.99977ZM17 12L17.9998 12L17.9998 13.5002L19.5 13.5002L19.5 14.5L17.9998 14.5L17.9998 16.0002L17 16.0002L17 14.5L15.4998 14.5L15.4998 13.5002L17 13.5002L17 12ZM4.5 13.5002L8.50023 13.5002L8.50023 14.5L4.5 14.5L4.5 13.5002Z" fill="currentColor" fill-rule="evenodd" opacity="1" stroke="none"/>
<path d="M4.5 4L8.5 4L8.5 4L8.5 6L8.5 6L4.5 6L4.5 6L4.5 4L4.5 4Z" fill="currentColor" fill-rule="evenodd" opacity="1" stroke="none"/>
<path d="M15.5 4L19.5 4L19.5 4L19.5 6L19.5 6L15.5 6L15.5 6L15.5 4L15.5 4Z" fill="currentColor" fill-rule="evenodd" opacity="1" stroke="none"/>
<path d="M20 5.5L20 4.5C20 3.94766 19.5523 3.5 19 3.5L16 3.5C15.4477 3.5 15 3.94766 15 4.5L15 5.5L9 5.5L9 4.5C9 3.94766 8.55234 3.5 8 3.5L5 3.5C4.44766 3.5 4 3.94766 4 4.5L4 5.5C2.89734 5.5 2 6.39699 2 7.5L2 18.5C2 19.6027 2.89734 20.5 4 20.5L20 20.5C21.1027 20.5 22 19.6027 22 18.5L22 7.5C22 6.39699 21.1027 5.5 20 5.5ZM16 4.5L19 4.5L19 5.5L16 5.5L16 4.5ZM5 4.5L8 4.5L8 5.5L5 5.5L5 4.5ZM21 18.5C21 19.0523 20.5523 19.5 20 19.5L4 19.5C3.44766 19.5 3 19.0523 3 18.5L3 8.5L21 8.5L21 18.5ZM3 7.5C3 6.94766 3.44766 6.5 4 6.5L20 6.5C20.5523 6.5 21 6.94766 21 7.5L3 7.5Z" fill="currentColor" fill-rule="evenodd" opacity="1" stroke="none"/>
</g>
</g>
</svg>
