<?xml version="1.0" encoding="UTF-8" standalone="no"?>
<!DOCTYPE svg PUBLIC "-//W3C//DTD SVG 1.1//EN" "http://www.w3.org/Graphics/SVG/1.1/DTD/svg11.dtd">
<!-- Created with Vectornator (http://vectornator.io/) -->
<svg height="100%" stroke-miterlimit="10" style="fill-rule:nonzero;clip-rule:evenodd;stroke-linecap:round;stroke-linejoin:round;" version="1.1" viewBox="0 0 24 24" width="100%" xml:space="preserve" xmlns="http://www.w3.org/2000/svg" xmlns:xlink="http://www.w3.org/1999/xlink">
<defs/>
<g id="Layer-1">
<path d="M10.5057 22C10.3064 22 10.1434 21.9275 10.0166 21.7826C9.88977 21.6377 9.84448 21.4656 9.88072 21.2663L10.8862 14.2283L7.00028 14.2283C6.71043 14.2283 6.53362 14.1511 6.46985 13.9967C6.4068 13.8431 6.4568 13.6395 6.61985 13.3859L12.9242 2.32609C12.9785 2.21739 13.0601 2.13587 13.1688 2.08152C13.2775 2.02717 13.3862 2 13.4948 2C13.6941 2 13.8572 2.07246 13.984 2.21739C14.1108 2.36232 14.1561 2.53442 14.1198 2.7337L13.1144 9.77174L17.0003 9.77174C17.2901 9.77174 17.4666 9.84855 17.5296 10.0022C17.5934 10.1565 17.5438 10.3605 17.3807 10.6141L11.0764 21.6739C11.022 21.7826 10.9405 21.8641 10.8318 21.9185C10.7231 21.9728 10.6144 22 10.5057 22Z" fill="currentColor" fill-rule="nonzero" opacity="1" stroke="none"/>
</g>
</svg>
