<?xml version="1.0" encoding="UTF-8" standalone="no"?>
<!DOCTYPE svg PUBLIC "-//W3C//DTD SVG 1.1//EN" "http://www.w3.org/Graphics/SVG/1.1/DTD/svg11.dtd">
<!-- Created with Vectornator (http://vectornator.io/) -->
<svg height="100%" stroke-miterlimit="10" style="fill-rule:nonzero;clip-rule:evenodd;stroke-linecap:round;stroke-linejoin:round;" version="1.1" viewBox="0 0 24 24" width="100%" xml:space="preserve" xmlns="http://www.w3.org/2000/svg" xmlns:xlink="http://www.w3.org/1999/xlink">
<defs/>
<g id="Layer-1">
<g opacity="1">
<path d="M15.8167 5.5367C15.8246 5.54067 15.8286 5.54861 15.8286 5.55656L15.8286 5.54464C15.8246 5.54067 15.8206 5.54067 15.8167 5.5367ZM15.8167 18.4395C15.8206 18.4355 15.8246 18.4355 15.8286 18.4315L15.8286 18.4196C15.8286 18.4236 15.8206 18.4315 15.8167 18.4395ZM15.8286 14.5555L15.8286 14.5555C15.8286 14.5516 15.8286 14.5476 15.8326 14.5397C15.8286 14.5436 15.8286 14.5516 15.8286 14.5555ZM15.8286 9.33724L15.8286 9.33724C15.8286 9.3571 15.8326 9.37298 15.8365 9.38887C15.8326 9.36901 15.8286 9.35312 15.8286 9.33724ZM17.29 10.1236C17.3059 10.1236 17.3178 10.1355 17.3178 10.1514L17.3178 10.1236L17.29 10.1236ZM17.29 13.801L17.3178 13.801L17.3178 13.7732C17.3178 13.7891 17.3019 13.801 17.29 13.801ZM18.2074 10.0402L18.2074 10.0402C18.2074 10.0282 18.2034 10.0203 18.2034 10.0084C18.2074 10.0243 18.2074 10.0441 18.2074 10.06L18.2074 10.0402ZM15.8167 5.5367C15.8246 5.54067 15.8286 5.54861 15.8286 5.55656L15.8286 5.54464C15.8246 5.54067 15.8206 5.54067 15.8167 5.5367ZM15.8167 18.4395C15.8206 18.4355 15.8246 18.4355 15.8286 18.4315L15.8286 18.4196C15.8286 18.4236 15.8206 18.4315 15.8167 18.4395ZM15.8286 14.5555L15.8286 14.5555C15.8286 14.5516 15.8286 14.5476 15.8326 14.5397C15.8286 14.5436 15.8286 14.5516 15.8286 14.5555ZM15.8286 9.33724L15.8286 9.33724C15.8286 9.3571 15.8326 9.37298 15.8365 9.38887C15.8326 9.36901 15.8286 9.35312 15.8286 9.33724ZM17.29 10.1236C17.3059 10.1236 17.3178 10.1355 17.3178 10.1514L17.3178 10.1236L17.29 10.1236ZM17.29 13.801L17.3178 13.801L17.3178 13.7732C17.3178 13.7891 17.3019 13.801 17.29 13.801ZM15.8167 5.5367C15.8246 5.54067 15.8286 5.54861 15.8286 5.55656L15.8286 5.54464C15.8246 5.54067 15.8206 5.54067 15.8167 5.5367ZM15.8167 18.4395C15.8206 18.4355 15.8246 18.4355 15.8286 18.4315L15.8286 18.4196C15.8286 18.4236 15.8206 18.4315 15.8167 18.4395ZM15.8286 14.5555L15.8286 14.5555C15.8286 14.5516 15.8286 14.5476 15.8326 14.5397C15.8286 14.5436 15.8286 14.5516 15.8286 14.5555ZM15.8286 9.33724L15.8286 9.33724C15.8286 9.3571 15.8326 9.37298 15.8365 9.38887C15.8326 9.36901 15.8286 9.35312 15.8286 9.33724ZM17.29 10.1236C17.3059 10.1236 17.3178 10.1355 17.3178 10.1514L17.3178 10.1236L17.29 10.1236ZM17.29 13.801L17.3178 13.801L17.3178 13.7732C17.3178 13.7891 17.3019 13.801 17.29 13.801ZM18.2074 10.0402L18.2074 10.0402C18.2074 10.0282 18.2034 10.0203 18.2034 10.0084C18.2074 10.0243 18.2074 10.0441 18.2074 10.06L18.2074 10.0402ZM18.2074 10.0402L18.2074 10.0402C18.2074 10.0282 18.2034 10.0203 18.2034 10.0084C18.2074 10.0243 18.2074 10.0441 18.2074 10.06L18.2074 10.0402ZM15.8167 5.5367C15.8246 5.54067 15.8286 5.54861 15.8286 5.55656L15.8286 5.54464C15.8246 5.54067 15.8206 5.54067 15.8167 5.5367ZM15.8167 18.4395C15.8206 18.4355 15.8246 18.4355 15.8286 18.4315L15.8286 18.4196C15.8286 18.4236 15.8206 18.4315 15.8167 18.4395ZM15.8286 14.5555L15.8286 14.5555C15.8286 14.5516 15.8286 14.5476 15.8326 14.5397C15.8286 14.5436 15.8286 14.5516 15.8286 14.5555ZM15.8286 9.33724L15.8286 9.33724C15.8286 9.3571 15.8326 9.37298 15.8365 9.38887C15.8326 9.36901 15.8286 9.35312 15.8286 9.33724ZM17.29 10.1236C17.3059 10.1236 17.3178 10.1355 17.3178 10.1514L17.3178 10.1236L17.29 10.1236ZM17.29 13.801L17.3178 13.801L17.3178 13.7732C17.3178 13.7891 17.3019 13.801 17.29 13.801ZM18.2074 10.0402L18.2074 10.0402C18.2074 10.0282 18.2034 10.0203 18.2034 10.0084C18.2074 10.0243 18.2074 10.0441 18.2074 10.06L18.2074 10.0402ZM15.8167 5.5367C15.8246 5.54067 15.8286 5.54861 15.8286 5.55656L15.8286 5.54464C15.8246 5.54067 15.8206 5.54067 15.8167 5.5367ZM15.8167 18.4395C15.8206 18.4355 15.8246 18.4355 15.8286 18.4315L15.8286 18.4196C15.8286 18.4236 15.8206 18.4315 15.8167 18.4395ZM15.8286 14.5555L15.8286 14.5555C15.8286 14.5516 15.8286 14.5476 15.8326 14.5397C15.8286 14.5436 15.8286 14.5516 15.8286 14.5555ZM15.8286 9.33724L15.8286 9.33724C15.8286 9.3571 15.8326 9.37298 15.8365 9.38887C15.8326 9.36901 15.8286 9.35312 15.8286 9.33724ZM17.29 10.1236C17.3059 10.1236 17.3178 10.1355 17.3178 10.1514L17.3178 10.1236L17.29 10.1236ZM17.29 13.801L17.3178 13.801L17.3178 13.7732C17.3178 13.7891 17.3019 13.801 17.29 13.801ZM15.8167 5.5367C15.8246 5.54067 15.8286 5.54861 15.8286 5.55656L15.8286 5.54464C15.8246 5.54067 15.8206 5.54067 15.8167 5.5367ZM15.8167 18.4395C15.8206 18.4355 15.8246 18.4355 15.8286 18.4315L15.8286 18.4196C15.8286 18.4236 15.8206 18.4315 15.8167 18.4395ZM15.8286 14.5555L15.8286 14.5555C15.8286 14.5516 15.8286 14.5476 15.8326 14.5397C15.8286 14.5436 15.8286 14.5516 15.8286 14.5555ZM15.8286 9.33724L15.8286 9.33724C15.8286 9.3571 15.8326 9.37298 15.8365 9.38887C15.8326 9.36901 15.8286 9.35312 15.8286 9.33724ZM17.29 10.1236C17.3059 10.1236 17.3178 10.1355 17.3178 10.1514L17.3178 10.1236L17.29 10.1236ZM17.29 13.801L17.3178 13.801L17.3178 13.7732C17.3178 13.7891 17.3019 13.801 17.29 13.801ZM18.2074 10.0402L18.2074 10.0402C18.2074 10.0282 18.2034 10.0203 18.2034 10.0084C18.2074 10.0243 18.2074 10.0441 18.2074 10.06L18.2074 10.0402ZM18.2074 10.0402L18.2074 10.0402C18.2074 10.0282 18.2034 10.0203 18.2034 10.0084C18.2074 10.0243 18.2074 10.0441 18.2074 10.06L18.2074 10.0402ZM15.8167 5.5367C15.8246 5.54067 15.8286 5.54861 15.8286 5.55656L15.8286 5.54464C15.8246 5.54067 15.8206 5.54067 15.8167 5.5367ZM15.8167 18.4395C15.8206 18.4355 15.8246 18.4355 15.8286 18.4315L15.8286 18.4196C15.8286 18.4236 15.8206 18.4315 15.8167 18.4395ZM15.8286 14.5555L15.8286 14.5555C15.8286 14.5516 15.8286 14.5476 15.8326 14.5397C15.8286 14.5436 15.8286 14.5516 15.8286 14.5555ZM15.8286 9.33724L15.8286 9.33724C15.8286 9.3571 15.8326 9.37298 15.8365 9.38887C15.8326 9.36901 15.8286 9.35312 15.8286 9.33724ZM17.29 10.1236C17.3059 10.1236 17.3178 10.1355 17.3178 10.1514L17.3178 10.1236L17.29 10.1236ZM17.29 13.801L17.3178 13.801L17.3178 13.7732C17.3178 13.7891 17.3019 13.801 17.29 13.801Z" fill="currentColor" fill-rule="nonzero" opacity="1" stroke="none"/>
<path d="M17.429 3.21746C17.429 3.21349 17.429 3.21349 17.429 3.21746C17.4131 3.20554 17.3973 3.19363 17.3814 3.18569C17.2225 3.07846 17.0319 3.01889 16.8254 3.01889C16.2734 3.01889 15.8246 3.46765 15.8246 4.01966L15.8246 4.40488C15.8246 4.42473 15.8008 4.44062 15.7809 4.4287C14.526 3.6265 13.0526 3.13009 11.4721 3.04272C6.16243 2.74884 1.73443 7.16096 2.01242 12.4706C2.25864 17.2044 6.17435 20.9652 10.9677 20.9652C12.7389 20.9652 14.391 20.4529 15.7849 19.5634C15.8048 19.5514 15.8286 19.5634 15.8286 19.5872L15.8286 19.9803C15.8286 20.5324 16.2773 20.9811 16.8333 20.9811C17.0398 20.9811 17.2344 20.9176 17.3933 20.8103C17.4052 20.8024 17.4211 20.7905 17.433 20.7825C20.197 18.8445 22 15.6318 22 11.998C21.996 8.36427 20.1931 5.15545 17.429 3.21746ZM16.1423 14.0035C16.1225 14.0234 16.0986 14.0393 16.0788 14.0591C16.0669 14.071 16.055 14.083 16.043 14.0988C16.0391 14.1028 16.0311 14.1107 16.0272 14.1187C16.0232 14.1266 16.0152 14.1346 16.0113 14.1385C15.9994 14.1505 15.9914 14.1663 15.9795 14.1783C15.9676 14.1941 15.9596 14.2061 15.9517 14.2219C15.9477 14.2299 15.9438 14.2339 15.9398 14.2418C15.9358 14.2458 15.9318 14.2537 15.9318 14.2577C15.9279 14.2656 15.9199 14.2775 15.916 14.2855C15.912 14.2974 15.904 14.3053 15.9001 14.3173C15.8842 14.349 15.8723 14.3848 15.8604 14.4165C15.8524 14.4364 15.8484 14.4602 15.8405 14.4841L15.8405 14.4841C15.8365 14.496 15.8365 14.5079 15.8326 14.5198C15.8326 14.5238 15.8286 14.5317 15.8286 14.5397C15.8286 14.5436 15.8286 14.5516 15.8246 14.5595L15.8246 18.4315C15.8206 18.4355 15.8167 18.4355 15.8127 18.4395C15.6896 18.5308 15.5625 18.6222 15.4354 18.7095C15.4037 18.7333 15.3679 18.7532 15.3322 18.777L15.3282 18.781L15.3282 18.781C15.3004 18.8009 15.2686 18.8167 15.2408 18.8366C15.1495 18.8962 15.0542 18.9518 14.9628 19.0034C14.9509 19.0113 14.943 19.0153 14.9311 19.0233C14.9311 19.0233 14.9271 19.0272 14.9231 19.0272C14.9072 19.0352 14.8914 19.0431 14.8794 19.055C14.8636 19.063 14.8477 19.0709 14.8318 19.0789C14.8199 19.0868 14.808 19.0947 14.7921 19.0987C14.7921 19.0987 14.7881 19.1027 14.7841 19.1027C14.7563 19.1186 14.7325 19.1305 14.7047 19.1464C14.7007 19.1503 14.6928 19.1543 14.6888 19.1543C14.6769 19.1623 14.661 19.1662 14.6491 19.1742L14.6451 19.1781C14.6173 19.194 14.5856 19.2099 14.5578 19.2218C14.5061 19.2496 14.4505 19.2734 14.3989 19.3012C14.3949 19.3052 14.391 19.3052 14.387 19.3052C14.3671 19.3171 14.3433 19.3251 14.3195 19.337C14.2996 19.3489 14.2758 19.3568 14.252 19.3688C14.2162 19.3846 14.1805 19.4005 14.1448 19.4164C14.0415 19.4601 13.9343 19.5038 13.831 19.5435C13.7953 19.5554 13.7595 19.5713 13.7198 19.5832C13.6682 19.6031 13.6166 19.619 13.5689 19.6388C13.5292 19.6507 13.4895 19.6666 13.4498 19.6785C13.4379 19.6825 13.426 19.6865 13.414 19.6904C13.3704 19.7023 13.3267 19.7182 13.283 19.7301C13.2274 19.746 13.1718 19.7619 13.1162 19.7778C13.0844 19.7857 13.0566 19.7937 13.0248 19.8016C12.8739 19.8413 12.727 19.8771 12.5721 19.9089C12.5364 19.9168 12.5006 19.9247 12.4609 19.9287C12.457 19.9287 12.449 19.9287 12.445 19.9327C12.3974 19.9406 12.3458 19.9525 12.2981 19.9605C12.2504 19.9684 12.2028 19.9764 12.1551 19.9843C12.1313 19.9883 12.1075 19.9923 12.0797 19.9962C12.0717 19.9962 12.0598 20.0002 12.0519 20.0002C12.0122 20.0042 11.9764 20.0121 11.9367 20.0161C11.9208 20.0201 11.901 20.0201 11.8851 20.024C11.8454 20.028 11.8057 20.032 11.7659 20.0359C11.7501 20.0359 11.7342 20.0399 11.7143 20.0399C11.7064 20.0399 11.6945 20.0399 11.6865 20.0439C11.6706 20.0439 11.6508 20.0479 11.6349 20.0479C11.615 20.0479 11.5991 20.0518 11.5793 20.0518C11.5515 20.0558 11.5277 20.0558 11.5038 20.0558C11.476 20.0558 11.4522 20.0598 11.4244 20.0598C11.345 20.0637 11.2656 20.0677 11.1861 20.0717C11.1623 20.0717 11.1385 20.0717 11.1147 20.0717C11.063 20.0717 11.0114 20.0717 10.9598 20.0717C6.49999 20.0717 2.8861 16.4578 2.8861 11.998C2.8861 7.53824 6.49999 3.92435 10.9598 3.92435C11.0114 3.92435 11.063 3.92435 11.1147 3.92435C11.1385 3.92435 11.1623 3.92435 11.1861 3.92435C11.2656 3.92435 11.345 3.92832 11.4244 3.93626C11.4482 3.93626 11.476 3.94023 11.5038 3.94023C11.5277 3.94023 11.5555 3.94421 11.5793 3.94421C11.5991 3.94421 11.615 3.94818 11.6349 3.94818C11.6547 3.94818 11.6706 3.95215 11.6865 3.95215C11.6945 3.95215 11.7064 3.95215 11.7143 3.95612C11.7302 3.95612 11.7461 3.96009 11.7659 3.96009C11.8057 3.96406 11.8454 3.96803 11.8851 3.97201C11.901 3.97201 11.9169 3.97598 11.9367 3.97598C11.9764 3.97995 12.0122 3.98392 12.0519 3.99186C12.0598 3.99186 12.0717 3.99583 12.0797 3.99583C12.1035 3.9998 12.1273 4.00378 12.1551 4.00775C12.2028 4.01569 12.2504 4.02363 12.2981 4.03157C12.3497 4.03952 12.3974 4.04746 12.445 4.05937C12.449 4.05937 12.457 4.05937 12.4609 4.06335C12.4967 4.07129 12.5324 4.07526 12.5721 4.0832C12.8144 4.13086 13.0526 4.19043 13.283 4.26191C13.3267 4.27382 13.3704 4.28971 13.414 4.30162C13.418 4.30162 13.426 4.30559 13.4299 4.30559C13.4776 4.32148 13.5213 4.33737 13.5689 4.34928C13.5729 4.34928 13.5729 4.34928 13.5769 4.35325C13.6245 4.36914 13.6722 4.38899 13.7198 4.40488C13.7715 4.42473 13.8191 4.44062 13.8707 4.46048C13.9104 4.47636 13.9502 4.49225 13.9859 4.50813C14.0058 4.51607 14.0256 4.52402 14.0494 4.53196C14.0931 4.55182 14.1408 4.57167 14.1845 4.59153C14.2083 4.60344 14.2361 4.61139 14.2599 4.6233C14.3195 4.6511 14.3791 4.67493 14.4386 4.7067C14.4585 4.71464 14.4783 4.72655 14.4982 4.7345C14.526 4.74641 14.5498 4.76229 14.5776 4.77421C14.5975 4.78612 14.6173 4.79407 14.6412 4.80598C14.661 4.81789 14.6809 4.82584 14.7007 4.83775C14.7246 4.84966 14.7484 4.86158 14.7722 4.87746C14.7881 4.88541 14.804 4.89335 14.8199 4.90526C14.8556 4.92512 14.8914 4.94498 14.9271 4.96483C14.9311 4.9688 14.939 4.9688 14.943 4.97277C14.9708 4.98866 14.9946 5.00454 15.0224 5.01646C15.0621 5.04029 15.1018 5.06411 15.1416 5.08794C15.1535 5.09588 15.1654 5.09986 15.1733 5.1078C15.1972 5.12368 15.225 5.13957 15.2488 5.15545C15.2528 5.15545 15.2567 5.15943 15.2607 5.1634C15.2806 5.17531 15.3004 5.18722 15.3203 5.20311L15.3203 5.20311C15.3203 5.20311 15.3242 5.20311 15.3242 5.20708C15.36 5.22694 15.3917 5.25077 15.4275 5.27459C15.5585 5.36196 15.6817 5.44933 15.8048 5.54464C15.8087 5.54861 15.8127 5.54861 15.8167 5.55258L15.8167 9.34518C15.8167 9.36107 15.8206 9.38092 15.8246 9.39681C15.8524 9.55169 15.9199 9.69069 16.0152 9.80982C16.0391 9.83762 16.0629 9.86542 16.0907 9.88925C16.1026 9.90116 16.1145 9.90911 16.1264 9.92102C16.1344 9.92896 16.1423 9.93294 16.1503 9.94088C16.1542 9.94485 16.1582 9.94882 16.1662 9.95279C16.1741 9.95676 16.182 9.96471 16.19 9.96868C16.1979 9.97265 16.2019 9.98059 16.2098 9.98456C16.2178 9.98853 16.2257 9.99648 16.2337 10.0004L16.2337 10.0004C16.2456 10.0084 16.2535 10.0124 16.2654 10.0203L16.2654 10.0203C16.2694 10.0243 16.2734 10.0243 16.2773 10.0243L16.2813 10.0282C16.2932 10.0362 16.3091 10.0441 16.321 10.0481C16.4362 10.1037 16.5673 10.1355 16.7062 10.1355L17.3059 10.1355L17.3059 13.8129L16.7023 13.8129C16.4958 13.801 16.2972 13.8764 16.1423 14.0035ZM20.9754 12.133C20.9754 12.1767 20.9754 12.2164 20.9714 12.2601C20.9714 12.2919 20.9714 12.3237 20.9675 12.3554C20.9675 12.3634 20.9675 12.3713 20.9675 12.3793C20.9675 12.415 20.9635 12.4507 20.9635 12.4865C20.9635 12.5063 20.9595 12.5262 20.9595 12.5461C20.9595 12.5699 20.9555 12.5977 20.9555 12.6215C20.9555 12.6414 20.9555 12.6573 20.9516 12.6771C20.9516 12.7089 20.9476 12.7367 20.9436 12.7684C20.9317 12.9035 20.9198 13.0385 20.9039 13.1735C20.8999 13.2013 20.896 13.2331 20.892 13.2609C20.888 13.3006 20.8801 13.3443 20.8761 13.384C20.8721 13.4118 20.8682 13.4396 20.8642 13.4674C20.8602 13.4873 20.8602 13.5031 20.8563 13.523C20.8523 13.5548 20.8443 13.5865 20.8404 13.6183C20.8364 13.6342 20.8324 13.6501 20.8324 13.6699C20.8245 13.7136 20.8166 13.7573 20.8086 13.797C20.8007 13.8447 20.7888 13.8963 20.7808 13.944C20.761 14.0432 20.7371 14.1465 20.7133 14.2458C20.7054 14.2855 20.6934 14.3252 20.6855 14.3649C20.6815 14.3768 20.6776 14.3927 20.6736 14.4086C20.6617 14.4483 20.6537 14.488 20.6418 14.5277C20.618 14.623 20.5902 14.7184 20.5584 14.8137C20.5187 14.9447 20.475 15.0758 20.4313 15.2068C20.4194 15.2386 20.4115 15.2664 20.3996 15.2982C20.3876 15.3299 20.3757 15.3617 20.3638 15.3895C20.3519 15.4253 20.336 15.465 20.3201 15.5007C20.3162 15.5086 20.3162 15.5126 20.3122 15.5206C20.2963 15.5563 20.2844 15.592 20.2685 15.6318C20.2645 15.6397 20.2606 15.6476 20.2606 15.6556C20.2407 15.6993 20.2248 15.743 20.205 15.7866C20.205 15.7906 20.201 15.7946 20.201 15.7986C20.1653 15.8859 20.1255 15.9693 20.0858 16.0567C20.066 16.1004 20.0461 16.1401 20.0263 16.1838C20.0223 16.1917 20.0223 16.1957 20.0183 16.1997C19.9985 16.2394 19.9786 16.2791 19.9587 16.3188C19.9151 16.4062 19.8714 16.4935 19.8237 16.5769C19.78 16.6603 19.7324 16.7477 19.6808 16.8311C19.6569 16.8748 19.6331 16.9145 19.6053 16.9582C19.5735 17.0098 19.5457 17.0575 19.514 17.1091C19.4941 17.1409 19.4742 17.1726 19.4544 17.2044C19.4306 17.2401 19.4107 17.2759 19.3869 17.3116C19.2836 17.4665 19.1764 17.6214 19.0652 17.7723C19.0493 17.7961 19.0295 17.8199 19.0136 17.8398C18.9977 17.8597 18.9818 17.8835 18.9659 17.9033C18.9302 17.951 18.8944 17.9987 18.8547 18.0423C18.8309 18.0701 18.8071 18.1019 18.7872 18.1297C18.7832 18.1337 18.7793 18.1416 18.7713 18.1456C18.7435 18.1813 18.7118 18.2171 18.684 18.2528C18.6284 18.3203 18.5688 18.3878 18.5132 18.4514C18.4894 18.4752 18.4695 18.503 18.4457 18.5268C18.4219 18.5546 18.398 18.5824 18.3742 18.6063C18.3543 18.6261 18.3345 18.65 18.3146 18.6698C18.2868 18.6976 18.263 18.7254 18.2352 18.7532C18.2153 18.7731 18.1995 18.7889 18.1836 18.8088C18.0605 18.9319 17.9374 19.0511 17.8103 19.1702C17.7785 19.198 17.7467 19.2258 17.7189 19.2536C17.6792 19.2893 17.6355 19.3171 17.5918 19.341C17.2662 19.5078 16.8651 19.337 16.7539 18.9955L16.7539 18.9955C16.734 18.9359 16.7261 18.8763 16.7261 18.8088L16.7261 15.3061C16.7261 14.9765 16.9922 14.7104 17.3218 14.7104C17.3377 14.7104 17.3536 14.7104 17.3695 14.7104C17.3814 14.7104 17.3973 14.7104 17.4092 14.7064C17.4211 14.7064 17.433 14.7025 17.4449 14.7025C17.4568 14.7025 17.4687 14.6985 17.4807 14.6985C17.6435 14.6628 17.703 14.631 17.7229 14.6191C17.7428 14.6111 17.7626 14.5992 17.7785 14.5873C17.7825 14.5833 17.7904 14.5794 17.7944 14.5754C17.8142 14.5635 17.8301 14.5516 17.846 14.5397C17.854 14.5357 17.8619 14.5277 17.8659 14.5238C17.8738 14.5198 17.8818 14.5119 17.8897 14.5039C17.8976 14.496 17.9056 14.492 17.9135 14.4841C17.9334 14.4682 17.9493 14.4523 17.9652 14.4364C17.9731 14.4285 17.981 14.4205 17.989 14.4086C18.0049 14.3887 18.0208 14.3729 18.0366 14.353C18.0406 14.349 18.0406 14.3451 18.0446 14.3411C18.0605 14.3212 18.0763 14.2974 18.0883 14.2775C18.0883 14.2775 18.0883 14.2736 18.0922 14.2736C18.0922 14.2696 18.0962 14.2696 18.0962 14.2656C18.1002 14.2577 18.1081 14.2458 18.1121 14.2378C18.12 14.2219 18.1319 14.2021 18.1399 14.1862C18.1439 14.1783 18.1478 14.1703 18.1518 14.1624C18.1677 14.1266 18.1796 14.0909 18.1915 14.0552C18.1955 14.0472 18.1955 14.0393 18.1995 14.0274C18.2034 14.0075 18.2114 13.9837 18.2114 13.9598C18.2114 13.9519 18.2114 13.9479 18.2153 13.94C18.2193 13.9162 18.2233 13.8923 18.2233 13.8645L18.2233 13.8089L18.2193 10.1355L18.2193 10.1355L18.2193 10.0799C18.2193 10.0759 18.2193 10.0759 18.2193 10.0719C18.2193 10.056 18.2193 10.0362 18.2153 10.0203C18.2114 10.0004 18.2074 9.97662 18.2034 9.95676C18.2034 9.94485 18.1995 9.93691 18.1955 9.92499C18.1915 9.91308 18.1915 9.90514 18.1875 9.89322C18.1796 9.87337 18.1756 9.85351 18.1677 9.83365C18.1637 9.82174 18.1597 9.8138 18.1558 9.80188C18.1518 9.78997 18.1478 9.78203 18.1439 9.77011C18.1399 9.76217 18.1359 9.75423 18.1319 9.74628C18.1121 9.70657 18.0922 9.67083 18.0684 9.63509C18.0644 9.62714 18.0605 9.62317 18.0565 9.61523C18.0247 9.57552 17.993 9.5358 17.9572 9.50006C17.9493 9.49212 17.9413 9.48418 17.9334 9.47624C17.9254 9.46829 17.9175 9.46035 17.9096 9.45638C17.9016 9.45241 17.8976 9.44446 17.8897 9.44049C17.8619 9.42064 17.8341 9.40078 17.8063 9.38092C17.7984 9.37695 17.7944 9.37298 17.7864 9.36901C17.7745 9.36107 17.7626 9.35312 17.7507 9.34915C17.7428 9.34518 17.7308 9.33724 17.7229 9.33327C17.715 9.3293 17.703 9.32533 17.6951 9.32135C17.6633 9.30944 17.6355 9.29753 17.6038 9.28561C17.5918 9.28164 17.5839 9.27767 17.572 9.27767C17.4965 9.25781 17.4211 9.2459 17.3417 9.2459L17.3377 9.2459C17.0081 9.2459 16.742 8.97982 16.742 8.6502L16.742 5.14751C16.742 5.09986 16.746 5.05617 16.7579 5.01646C16.8452 4.62727 17.298 4.42871 17.6435 4.63124C17.6752 4.6511 17.707 4.67095 17.7348 4.69875L17.7348 4.69875C17.8937 4.84172 18.0525 4.98866 18.2034 5.14354C18.2193 5.1634 18.2392 5.17928 18.2551 5.19914C18.2789 5.22694 18.3067 5.25077 18.3305 5.27856C18.3623 5.31033 18.3901 5.34211 18.4179 5.37388C18.4457 5.40565 18.4735 5.43345 18.5013 5.46522C18.541 5.5089 18.5807 5.55258 18.6164 5.59627C18.676 5.66378 18.7356 5.73526 18.7912 5.80278C18.7952 5.80675 18.7991 5.81469 18.8071 5.81866C18.8309 5.84646 18.8547 5.87426 18.8746 5.90603C18.8865 5.91794 18.8944 5.92986 18.9024 5.94177C18.9262 5.97354 18.95 6.00134 18.9739 6.03311C18.9977 6.06488 19.0255 6.09665 19.0493 6.1324C19.1724 6.29919 19.2916 6.46599 19.4067 6.64072C19.4306 6.67646 19.4544 6.71221 19.4742 6.74795C19.4941 6.77972 19.514 6.81149 19.5338 6.84326C19.5656 6.89489 19.5974 6.94254 19.6252 6.99417C19.649 7.03388 19.6768 7.07757 19.7006 7.12125C19.7483 7.20465 19.7959 7.29202 19.8436 7.37541C19.8912 7.46278 19.9349 7.54618 19.9786 7.63355C19.9985 7.67326 20.0183 7.71298 20.0382 7.75269C20.0421 7.75666 20.0421 7.7646 20.0461 7.76857C20.066 7.81226 20.0858 7.85197 20.1057 7.89566C20.1454 7.97905 20.1851 8.06642 20.2209 8.15379C20.2209 8.15776 20.2248 8.16173 20.2248 8.1657C20.2447 8.20939 20.2606 8.25307 20.2804 8.29676C20.2844 8.3047 20.2884 8.31264 20.2884 8.32058C20.3043 8.35633 20.3162 8.39207 20.3321 8.43178C20.336 8.43972 20.336 8.4437 20.34 8.45164C20.3559 8.48738 20.3678 8.52709 20.3837 8.56283C20.3956 8.59461 20.4075 8.62638 20.4194 8.65815C20.4313 8.68992 20.4432 8.71772 20.4512 8.74949C20.4988 8.88054 20.5425 9.01556 20.5822 9.14662C20.61 9.23796 20.6378 9.33327 20.6617 9.42858C20.6736 9.47226 20.6855 9.51595 20.6974 9.55963C20.7014 9.56758 20.7014 9.57552 20.7054 9.58346C20.7173 9.62317 20.7252 9.66686 20.7371 9.71054C20.7729 9.86145 20.8086 10.0163 20.8364 10.1712C20.8443 10.2109 20.8523 10.2506 20.8563 10.2904C20.8602 10.3023 20.8602 10.3182 20.8642 10.3301C20.8682 10.3618 20.8761 10.3976 20.8801 10.4293C20.8841 10.4492 20.8841 10.4651 20.888 10.4849C20.892 10.5127 20.896 10.5405 20.8999 10.5683C20.9079 10.612 20.9119 10.6517 20.9198 10.6954C20.9238 10.7232 20.9277 10.7471 20.9317 10.7749C20.9476 10.9099 20.9635 11.0489 20.9714 11.1839C20.9754 11.2157 20.9754 11.2435 20.9794 11.2752C20.9833 11.2951 20.9833 11.311 20.9833 11.3308C20.9833 11.3547 20.9873 11.3825 20.9873 11.4063C20.9873 11.4261 20.9913 11.446 20.9913 11.4659C20.9913 11.5016 20.9953 11.5373 20.9953 11.5731C20.9953 11.581 20.9953 11.589 20.9953 11.5969C20.9953 11.6287 20.9992 11.6605 20.9992 11.6922C20.9992 11.7359 21.0032 11.7756 21.0032 11.8193C21.0032 11.8233 21.0032 11.8272 21.0032 11.8312C21.0032 11.8828 21.0032 11.9345 21.0032 11.9861C21.0032 12.0377 21.0032 12.0894 21.0032 12.141C20.9754 12.1251 20.9754 12.1291 20.9754 12.133Z" fill="currentColor" fill-rule="nonzero" opacity="1" stroke="none"/>
<path d="M16.7142 10.1236C16.5752 10.1236 16.4481 10.0918 16.329 10.0362C16.3171 10.0282 16.3012 10.0243 16.2893 10.0163C16.2893 10.0163 16.2853 10.0163 16.2853 10.0124C16.2813 10.0124 16.2773 10.0084 16.2734 10.0084L16.2734 10.0084C16.2615 10.0044 16.2535 9.99648 16.2416 9.98853L16.2416 9.98853C16.2337 9.98456 16.2257 9.97662 16.2178 9.97265C16.2098 9.96868 16.2059 9.96471 16.1979 9.95676C16.19 9.95279 16.182 9.94485 16.1741 9.94088C16.1701 9.93691 16.1662 9.93294 16.1582 9.92896C16.1503 9.92102 16.1423 9.91705 16.1344 9.90911C16.1225 9.89719 16.1106 9.88925 16.0986 9.87734C16.0708 9.85351 16.047 9.82571 16.0232 9.79791C15.9279 9.68274 15.8604 9.53978 15.8326 9.38489C15.8286 9.36901 15.8286 9.34915 15.8246 9.33327L15.8246 5.54464C15.8206 5.54067 15.8167 5.54067 15.8127 5.5367C15.6896 5.44536 15.5625 5.35402 15.4354 5.26665C15.4037 5.24282 15.3679 5.22297 15.3322 5.19914L15.3282 5.19517L15.3282 5.19517C15.3083 5.18325 15.2885 5.17134 15.2686 5.15545C15.2647 5.15148 15.2607 5.15148 15.2567 5.14751C15.2329 5.13163 15.2051 5.11574 15.1813 5.09986C15.1694 5.09191 15.1574 5.08794 15.1495 5.08C15.1098 5.05617 15.0701 5.03234 15.0304 5.00852C15.0026 4.99263 14.9787 4.97675 14.9509 4.96483C14.947 4.96086 14.939 4.95689 14.935 4.95689C14.8993 4.93703 14.8636 4.91718 14.8278 4.89732C14.8119 4.88938 14.7961 4.88143 14.7802 4.86952C14.7563 4.85761 14.7325 4.84172 14.7087 4.82981C14.6888 4.81789 14.669 4.80598 14.6491 4.79804C14.6293 4.78612 14.6094 4.77818 14.5856 4.76627C14.5578 4.75435 14.5339 4.73847 14.5061 4.72655C14.4863 4.71464 14.4664 4.7067 14.4466 4.69875C14.387 4.67095 14.3274 4.64316 14.2679 4.61536C14.244 4.60344 14.2162 4.59153 14.1924 4.58359C14.1487 4.56373 14.1011 4.54387 14.0574 4.52402C14.0375 4.51607 14.0177 4.50813 13.9938 4.50019C13.9541 4.4843 13.9144 4.46842 13.8787 4.45253C13.8271 4.43268 13.7794 4.41282 13.7278 4.39693C13.6801 4.38105 13.6325 4.36119 13.5848 4.34531C13.5808 4.34531 13.5808 4.34531 13.5769 4.34134C13.5292 4.32545 13.4855 4.30957 13.4379 4.29765C13.4339 4.29765 13.426 4.29368 13.422 4.29368C13.3783 4.2778 13.3346 4.26588 13.2909 4.25397C13.0566 4.18248 12.8223 4.12291 12.5801 4.07526C12.5443 4.06732 12.5086 4.05937 12.4689 4.0554C12.4649 4.0554 12.457 4.0554 12.453 4.05143C12.4053 4.04349 12.3537 4.03157 12.306 4.02363C12.2584 4.01569 12.2107 4.00775 12.1631 3.9998C12.1392 3.99583 12.1154 3.99186 12.0876 3.98789C12.0797 3.98789 12.0678 3.98392 12.0598 3.98392C12.0201 3.97995 11.9844 3.972 11.9447 3.96803C11.9288 3.96803 11.9089 3.96406 11.893 3.96406C11.8533 3.96009 11.8136 3.95612 11.7739 3.95215C11.758 3.95215 11.7421 3.94818 11.7223 3.94818C11.7143 3.94818 11.7024 3.94818 11.6945 3.94421C11.6786 3.94421 11.6587 3.94023 11.6428 3.94023C11.623 3.94023 11.6071 3.93626 11.5872 3.93626C11.5594 3.93626 11.5356 3.93229 11.5118 3.93229C11.484 3.93229 11.4602 3.92832 11.4324 3.92832C11.3529 3.92435 11.2735 3.92038 11.1941 3.91641C11.1702 3.91641 11.1464 3.91641 11.1226 3.91641C11.071 3.91641 11.0193 3.91641 10.9677 3.91641C6.50793 3.91641 2.89405 7.5303 2.89405 11.9901C2.89405 16.4498 6.50793 20.0637 10.9677 20.0637C11.0193 20.0637 11.071 20.0637 11.1226 20.0637C11.1464 20.0637 11.1702 20.0637 11.1941 20.0637C11.2735 20.0598 11.3529 20.0598 11.4324 20.0518C11.4562 20.0518 11.484 20.0479 11.5118 20.0479C11.5356 20.0479 11.5634 20.0439 11.5872 20.0439C11.6071 20.0439 11.623 20.0399 11.6428 20.0399C11.6627 20.0399 11.6786 20.0359 11.6945 20.0359C11.7024 20.0359 11.7143 20.0359 11.7223 20.032C11.7381 20.032 11.754 20.028 11.7739 20.028C11.8136 20.024 11.8533 20.0201 11.893 20.0161C11.9089 20.0161 11.9248 20.0121 11.9447 20.0081C11.9844 20.0042 12.0201 20.0002 12.0598 19.9923C12.0678 19.9923 12.0797 19.9883 12.0876 19.9883C12.1114 19.9843 12.1353 19.9803 12.1631 19.9764C12.2107 19.9684 12.2584 19.9605 12.306 19.9525C12.3577 19.9446 12.4053 19.9367 12.453 19.9247C12.457 19.9247 12.4649 19.9247 12.4689 19.9208C12.5046 19.9128 12.5403 19.9089 12.5801 19.9009C12.731 19.8691 12.8819 19.8334 13.0328 19.7937C13.0646 19.7857 13.0963 19.7778 13.1241 19.7699C13.1797 19.754 13.2353 19.7381 13.2909 19.7222C13.3346 19.7103 13.3783 19.6944 13.422 19.6825C13.4339 19.6785 13.4458 19.6745 13.4577 19.6706C13.4974 19.6587 13.5371 19.6428 13.5769 19.6309C13.6285 19.615 13.6801 19.5951 13.7278 19.5753C13.7635 19.5634 13.7993 19.5475 13.839 19.5356C13.9462 19.4958 14.0494 19.4522 14.1527 19.4085C14.1884 19.3926 14.2242 19.3767 14.2599 19.3608C14.2838 19.3489 14.3036 19.341 14.3274 19.329C14.3513 19.3211 14.3711 19.3092 14.3949 19.2973C14.3989 19.2973 14.4029 19.2933 14.4069 19.2933C14.4585 19.2695 14.5141 19.2417 14.5657 19.2139C14.5935 19.198 14.6253 19.1861 14.6531 19.1702C14.6531 19.1702 14.6571 19.1702 14.6571 19.1662C14.669 19.1583 14.6809 19.1543 14.6968 19.1464C14.7007 19.1424 14.7087 19.1424 14.7127 19.1384C14.7405 19.1265 14.7643 19.1106 14.7921 19.0947C14.7961 19.0947 14.7961 19.0947 14.8 19.0908C14.8119 19.0828 14.8238 19.0789 14.8397 19.0709C14.8556 19.063 14.8715 19.055 14.8874 19.0471C14.9033 19.0391 14.9192 19.0312 14.9311 19.0193C14.935 19.0193 14.935 19.0193 14.939 19.0153C14.9509 19.0113 14.9589 19.0034 14.9708 18.9955C15.0661 18.9438 15.1574 18.8843 15.2488 18.8287C15.2766 18.8088 15.3083 18.7929 15.3361 18.7731L15.3361 18.7731C15.3361 18.7731 15.3401 18.7731 15.3401 18.7691C15.3759 18.7492 15.4076 18.7254 15.4434 18.7016C15.5744 18.6142 15.6975 18.5268 15.8206 18.4315C15.8246 18.4276 15.8286 18.4276 15.8326 18.4236L15.8326 14.5516C15.8326 14.5476 15.8326 14.5397 15.8365 14.5317C15.8365 14.5238 15.8405 14.5198 15.8405 14.5119C15.8445 14.4999 15.8445 14.488 15.8484 14.4761L15.8484 14.4761C15.8524 14.4523 15.8604 14.4324 15.8683 14.4086C15.8802 14.3729 15.8921 14.3411 15.908 14.3093C15.912 14.2974 15.9199 14.2895 15.9239 14.2775C15.9279 14.2696 15.9318 14.2577 15.9398 14.2497C15.9438 14.2458 15.9438 14.2378 15.9477 14.2339C15.9517 14.2259 15.9557 14.2219 15.9596 14.214C15.9676 14.1981 15.9795 14.1862 15.9874 14.1703C15.9954 14.1544 16.0073 14.1425 16.0192 14.1306C16.0232 14.1227 16.0311 14.1147 16.0351 14.1107C16.0391 14.1028 16.047 14.0988 16.051 14.0909C16.0629 14.079 16.0748 14.0631 16.0867 14.0512C16.1066 14.0313 16.1264 14.0115 16.1503 13.9956C16.3051 13.8685 16.5037 13.7891 16.7182 13.7891L17.3218 13.7891L17.3218 10.1236L16.7142 10.1236ZM16.0192 12.5778L15.9199 12.6175L14.8755 13.0425L14.8755 13.0425C14.8437 13.1576 14.808 13.2688 14.7683 13.384C14.7563 13.4197 14.7405 13.4555 14.7285 13.4952L14.7285 13.4992C14.7127 13.5349 14.7007 13.5707 14.6849 13.6064C14.6729 13.6342 14.661 13.666 14.6451 13.6938C14.6412 13.7057 14.6332 13.7216 14.6253 13.7335L14.6173 13.7494C14.6054 13.7732 14.5935 13.797 14.5816 13.8208L14.6173 13.8884L14.6173 13.8884L15.1018 14.7779L15.1535 14.8693L15.1535 14.8693L15.086 14.9487L15.086 14.9487L14.5101 15.6357L14.5101 15.6357L14.4426 15.7152L14.4426 15.7152L14.3671 15.6913L14.3592 15.6874L14.3592 15.6874L14.3592 15.6874L14.3592 15.6874C14.3552 15.6874 14.3513 15.6834 14.3473 15.6834L13.3465 15.3617L13.275 15.3379C13.2472 15.3577 13.2194 15.3776 13.1877 15.3975C13.1599 15.4133 13.136 15.4332 13.1082 15.4491C13.1043 15.4531 13.0963 15.457 13.0924 15.461C13.0765 15.4729 13.0566 15.4808 13.0407 15.4928C12.9375 15.5563 12.8342 15.6119 12.727 15.6635C12.7032 15.6754 12.6754 15.6874 12.6476 15.6993C12.6396 15.7032 12.6317 15.7072 12.6277 15.7112C12.6039 15.7231 12.5801 15.735 12.5523 15.743L12.5364 15.8184L12.5364 15.8184L12.5364 15.8184L12.5364 15.8184L12.5364 15.8184L12.5364 15.8184L12.5364 15.8264L12.5125 15.9415L12.3338 16.8152L12.3338 16.8152C12.3338 16.8152 12.3338 16.8152 12.3338 16.8192L12.3338 16.8192L12.3338 16.8311L12.3299 16.847L12.314 16.9185L12.2187 16.9343L12.2187 16.9343L12.2187 16.9343L12.2147 16.9343L12.2147 16.9343L12.2147 16.9343L12.2147 16.9343L12.2147 16.9343L11.4244 17.0773L11.337 17.0932L11.2338 17.1131L11.1782 17.0257L11.1782 17.0257L10.6182 16.1361L10.5785 16.0726L10.5785 16.0726C10.5547 16.0686 10.5269 16.0686 10.5031 16.0646C10.4991 16.0646 10.4991 16.0646 10.4951 16.0646C10.4792 16.0646 10.4634 16.0607 10.4475 16.0607C10.4276 16.0567 10.4078 16.0567 10.3879 16.0527C10.3482 16.0487 10.3045 16.0408 10.2648 16.0329C10.241 16.0289 10.2171 16.0249 10.1973 16.0209C10.1496 16.013 10.098 16.0011 10.0503 15.9892C10.0225 15.9852 9.99474 15.9773 9.96694 15.9693L9.96297 15.9693C9.93517 15.9653 9.91134 15.9574 9.88355 15.9495C9.87163 15.9455 9.85575 15.9415 9.84383 15.9376L9.83986 15.9376C9.81206 15.9296 9.78823 15.9217 9.76441 15.9177L9.70086 15.9693L8.9066 16.6008C8.90263 16.6047 8.89866 16.6047 8.89469 16.6087L8.89469 16.6087L8.89469 16.6087L8.88675 16.6166L8.82321 16.6683L8.82321 16.6683L8.73584 16.6166C8.73584 16.6166 8.73584 16.6166 8.73187 16.6166L8.73187 16.6166L7.95746 16.1679L7.95746 16.1679L7.86612 16.1163L7.87804 16.0249C7.87804 16.0209 7.87804 16.017 7.87804 16.013L7.91378 15.7469L7.92966 15.6238L7.96143 15.4054L8.00115 15.1234L8.021 14.9725C8.021 14.9686 8.021 14.9646 8.021 14.9606L8.02895 14.8931C8.00909 14.8732 7.9932 14.8574 7.97335 14.8375C7.96143 14.8256 7.95349 14.8137 7.94158 14.8018C7.92569 14.7859 7.90981 14.77 7.89789 14.7541C7.87804 14.7342 7.86215 14.7144 7.84626 14.6945C7.83435 14.6786 7.81847 14.6667 7.80655 14.6508C7.77081 14.6072 7.7311 14.5635 7.69933 14.5158C7.69138 14.5039 7.67947 14.492 7.67153 14.4801C7.65564 14.4602 7.63976 14.4404 7.62784 14.4205C7.62387 14.4165 7.62387 14.4126 7.6199 14.4086C7.60799 14.3927 7.59607 14.3729 7.58019 14.357C7.57224 14.3451 7.56033 14.3292 7.55239 14.3173C7.55239 14.3173 7.55239 14.3133 7.54842 14.3133C7.52062 14.2736 7.47693 14.2458 7.42928 14.2458L6.40865 14.218L6.30143 14.214L6.26569 14.1147L5.92018 13.1815L5.99564 13.114L6.77798 12.4071L6.83358 12.3554C6.82961 12.3316 6.82961 12.3038 6.82564 12.28C6.82564 12.276 6.82564 12.272 6.82564 12.2681C6.82167 12.2363 6.82167 12.2006 6.82167 12.1688C6.82167 12.141 6.8177 12.1132 6.8177 12.0854L6.8177 12.0814C6.8177 12.0338 6.8177 11.9821 6.8177 11.9345C6.8177 11.9146 6.8177 11.8948 6.8177 11.8749C6.8177 11.855 6.8177 11.8352 6.82167 11.8153C6.82167 11.8034 6.82167 11.7915 6.82167 11.7756C6.82167 11.7518 6.82564 11.724 6.82564 11.7002L6.82564 11.6962C6.82564 11.6684 6.82961 11.6406 6.83358 11.6088C6.83358 11.6049 6.83358 11.6049 6.83358 11.6009C6.83755 11.5731 6.83755 11.5493 6.84152 11.5215L6.84152 11.5215L6.84152 11.5215L6.78195 11.4698L6.78195 11.4698L6.02344 10.7987L5.94401 10.7272L5.97975 10.6279L6.17435 10.0878L6.21406 9.97662L6.28157 9.78997L6.28157 9.78997L6.31731 9.69069L6.42454 9.68671L7.55239 9.64303L7.55239 9.64303C7.57622 9.61126 7.60004 9.57552 7.62387 9.54375C7.64373 9.51992 7.65961 9.49609 7.67947 9.47226C7.69536 9.45241 7.71521 9.42858 7.7311 9.40872C7.74301 9.39284 7.75493 9.37695 7.76684 9.36504C7.77875 9.34915 7.79464 9.33327 7.80655 9.31738C7.81052 9.31341 7.81052 9.30944 7.81449 9.30944C7.83435 9.28561 7.85818 9.25781 7.88201 9.23399C7.90583 9.21016 7.92966 9.18236 7.95349 9.15853C7.97335 9.13867 7.98923 9.11882 8.00909 9.10293C8.01703 9.09499 8.02895 9.08308 8.03689 9.07513C8.04086 9.07116 8.04086 9.07116 8.04483 9.06719C8.06469 9.04733 8.08454 9.03145 8.1044 9.01159L8.1044 9.01159L8.09249 8.93614L8.09249 8.93217C8.09249 8.93217 8.09249 8.93217 8.09249 8.92819L7.94158 7.93537C7.94158 7.93537 7.94158 7.93537 7.94158 7.9314L7.94158 7.9314L7.92569 7.83211L8.01703 7.78049L8.01703 7.78049L8.79144 7.33173L8.88278 7.2801L8.96617 7.34364L9.79221 7.987L9.85177 8.03465C9.8756 8.02671 9.89943 8.02274 9.92723 8.01479C9.959 8.00685 9.99077 7.99891 10.0265 7.99097C10.0424 7.987 10.0623 7.98302 10.0781 7.97905C10.1457 7.96714 10.2092 7.95125 10.2767 7.94331C10.3045 7.93934 10.3323 7.93537 10.3601 7.9314C10.3919 7.92743 10.4197 7.92345 10.4514 7.91948C10.4594 7.91948 10.4673 7.91551 10.4753 7.91551C10.5031 7.91154 10.5309 7.90757 10.5587 7.90757C10.5626 7.90757 10.5626 7.90757 10.5666 7.90757C10.6024 7.9036 10.6341 7.9036 10.6699 7.89963L10.6699 7.89963L10.7056 7.84006C10.7056 7.84006 10.7056 7.84006 10.7056 7.83609C10.7056 7.83609 10.7056 7.83609 10.7096 7.83211L10.7096 7.83211L10.7096 7.82814L11.2378 6.96637L11.2934 6.87503L11.3966 6.89489L11.3966 6.89489L12.2782 7.04977L12.2782 7.04977L12.3815 7.06565L12.4053 7.16891L12.6277 8.19747L12.6277 8.19747C12.6277 8.19747 12.6277 8.19747 12.6277 8.20145L12.6277 8.20145L12.6277 8.20145L12.6436 8.27293C12.6674 8.28484 12.6913 8.29279 12.7151 8.3047C12.7349 8.31264 12.7508 8.32456 12.7707 8.3325C12.7905 8.34044 12.8064 8.35236 12.8263 8.3603C12.8303 8.36427 12.8382 8.36427 12.8422 8.36824C12.862 8.38015 12.8859 8.39207 12.9097 8.40398C12.9216 8.41192 12.9335 8.4159 12.9454 8.42384C13.001 8.45561 13.0566 8.48738 13.1082 8.51915C13.1321 8.53504 13.1559 8.55092 13.1797 8.56681C13.1916 8.57475 13.2075 8.58269 13.2194 8.59461C13.2274 8.59858 13.2353 8.60652 13.2433 8.61049C13.2592 8.6224 13.275 8.63035 13.2909 8.64226L13.2949 8.64623C13.3148 8.66212 13.3386 8.678 13.3584 8.69389L13.4339 8.67006L13.4339 8.67006L14.387 8.35236L14.4942 8.31661L14.526 8.35236L15.1416 9.08308L15.1416 9.08308L15.1416 9.08308L15.1416 9.08308L15.1416 9.08308L15.1416 9.08308L15.1416 9.08308L15.2051 9.15853L15.1574 9.2459L15.1574 9.2459L15.1574 9.2459L15.1574 9.2459C15.1574 9.2459 15.1574 9.2459 15.1574 9.24987L14.665 10.1792L14.6293 10.2467C14.6412 10.2705 14.6491 10.2943 14.661 10.3182C14.669 10.334 14.6769 10.3499 14.6809 10.3658C14.6888 10.3817 14.6968 10.4015 14.7047 10.4174C14.7087 10.4293 14.7127 10.4373 14.7166 10.4492C14.7246 10.4691 14.7325 10.4929 14.7405 10.5127C14.7643 10.5763 14.7881 10.6438 14.8119 10.7073C14.8199 10.7272 14.8238 10.7431 14.8318 10.7629C14.8358 10.7749 14.8397 10.7868 14.8437 10.7987C14.8477 10.8185 14.8556 10.8344 14.8596 10.8503C14.8636 10.8622 14.8675 10.8741 14.8715 10.89C14.8755 10.9059 14.8794 10.9218 14.8834 10.9416C14.8834 10.9456 14.8834 10.9456 14.8874 10.9496C14.8953 10.9734 14.8993 11.0012 14.9072 11.029L14.9827 11.0568L15.9279 11.4301L15.9279 11.4301L15.9279 11.4301L15.9279 11.4301L15.9279 11.4301L16.0232 11.4659L16.0232 11.4659L16.0232 11.5731L16.0232 12.4666L16.0232 12.5778L16.0192 12.5778Z" fill="currentColor" fill-rule="nonzero" opacity="1" stroke="none"/>
<path d="M12.0439 8.94408C10.372 8.34044 8.52933 9.20221 7.92569 10.8741C7.32205 12.5421 8.18383 14.3887 9.85575 14.9924C11.5237 15.596 13.3704 14.7342 13.974 13.0623C14.5776 11.3944 13.7119 9.54772 12.0439 8.94408ZM10.9479 13.8645C9.89943 13.8645 9.05354 13.0147 9.05354 11.9702C9.05354 10.9258 9.9034 10.0759 10.9479 10.0759C11.9963 10.0759 12.8422 10.9258 12.8422 11.9702C12.8422 13.0147 11.9963 13.8645 10.9479 13.8645Z" fill="currentColor" fill-rule="nonzero" opacity="1" stroke="none"/>
</g>
</g>
</svg>
