<?xml version="1.0" encoding="UTF-8" standalone="no"?>
<!DOCTYPE svg PUBLIC "-//W3C//DTD SVG 1.1//EN" "http://www.w3.org/Graphics/SVG/1.1/DTD/svg11.dtd">
<!-- Created with Vectornator (http://vectornator.io/) -->
<svg height="100%" stroke-miterlimit="10" style="fill-rule:nonzero;clip-rule:evenodd;stroke-linecap:round;stroke-linejoin:round;" version="1.1" viewBox="0 0 24 24" width="100%" xml:space="preserve" xmlns="http://www.w3.org/2000/svg" xmlns:xlink="http://www.w3.org/1999/xlink">
<defs/>
<g id="Layer-1">
<path d="M4.23039 20.0882C3.60948 20.0882 3.08235 19.8719 2.64902 19.4392C2.21634 19.0059 2 18.4788 2 17.8578L2 6.14216C2 5.52124 2.21634 4.99412 2.64902 4.56078C3.08235 4.1281 3.60948 3.91176 4.23039 3.91176L9.03431 3.91176C9.32843 3.91176 9.61046 3.96895 9.88039 4.08333C10.1497 4.19771 10.3905 4.36111 10.6029 4.57353L12 5.97059L19.7696 5.97059C20.3905 5.97059 20.9176 6.18725 21.351 6.62059C21.7837 7.05327 22 7.58007 22 8.20098L22 17.8578C22 18.4788 21.7837 19.0059 21.351 19.4392C20.9176 19.8719 20.3905 20.0882 19.7696 20.0882L4.23039 20.0882Z" fill="currentColor" fill-rule="nonzero" opacity="1" stroke="none"/>
</g>
</svg>
