<?xml version="1.0" encoding="UTF-8" standalone="no"?>
<!DOCTYPE svg PUBLIC "-//W3C//DTD SVG 1.1//EN" "http://www.w3.org/Graphics/SVG/1.1/DTD/svg11.dtd">
<!-- Created with Vectornator (http://vectornator.io/) -->
<svg height="100%" stroke-miterlimit="10" style="fill-rule:nonzero;clip-rule:evenodd;stroke-linecap:round;stroke-linejoin:round;" version="1.1" viewBox="0 0 24 24" width="100%" xml:space="preserve" xmlns="http://www.w3.org/2000/svg" xmlns:xlink="http://www.w3.org/1999/xlink">
<defs/>
<g id="Layer-1">
<path d="M7.50047 5.00048C7.22414 5.00048 7 5.22342 7 5.49975C7 5.77608 7.22414 6.00022 7.50047 6.00022L10.4998 6.00022L10.4998 6.99999L5.00049 6.99999C4.44814 6.99999 3.99951 7.44741 3.99951 7.99976L3.99951 11.4995L2.99976 11.4995L2.99976 8.50023C2.99976 8.2239 2.77682 7.99976 2.50049 7.99976C2.22416 7.99976 2 8.2239 2 8.50023L2 15.4998C2 15.7761 2.22416 16.0002 2.50049 16.0002C2.77682 16.0002 2.99975 15.7761 2.99976 15.4998L2.99976 12.5005L3.99951 12.5005L3.99951 16.0002C3.99951 16.5526 4.44814 17 5.00049 17L8.5857 17L10.2922 18.7066C10.4799 18.8942 10.7349 18.9995 11.0002 18.9995L21.0002 18.9995C21.5526 18.9995 22 18.5521 22 17.9998L22 12.9998C22 12.4474 21.5526 12 21.0002 12L21.0002 7.99976C21.0002 7.44741 20.5528 6.99999 20.0005 6.99999L11.4995 6.99999L11.4995 6.00022L14.5 6.00022C14.7763 6.00022 15.0005 5.77607 15.0005 5.49975C15.0005 5.22342 14.7763 5.00048 14.5 5.00048L7.50047 5.00048ZM7.47973 8.96776C8.31277 8.96776 8.98977 9.64597 8.98977 10.479C8.98977 11.312 8.31277 11.9902 7.47973 11.9902C6.64668 11.9902 5.96852 11.312 5.96852 10.479C5.96852 9.64597 6.64668 8.96776 7.47973 8.96776ZM10.8367 8.96776C11.6697 8.96776 12.3479 9.64597 12.3479 10.479C12.3479 11.312 11.6697 11.9902 10.8367 11.9902C10.0036 11.9902 9.32543 11.312 9.32543 10.479C9.32543 9.64597 10.0036 8.96776 10.8367 8.96776ZM14.1948 8.96776C15.0279 8.96776 15.7061 9.64597 15.7061 10.479C15.7061 11.312 15.0279 11.9902 14.1948 11.9902C13.3618 11.9902 12.6836 11.312 12.6836 10.479C12.6836 9.64597 13.3618 8.96776 14.1948 8.96776ZM17.553 8.96776C18.386 8.96776 19.063 9.64597 19.063 10.479C19.063 11.312 18.386 11.9902 17.553 11.9902C16.7199 11.9902 16.0418 11.312 16.0418 10.479C16.0418 9.64597 16.7199 8.96776 17.553 8.96776ZM5.96852 14.0044L20.0713 14.0044L20.0713 15.0127L5.96852 15.0127L5.96852 14.0044ZM11.508 16.0198C11.7862 16.0198 12.0122 16.2445 12.0122 16.5227C12.0122 16.8009 11.7862 17.0268 11.508 17.0269C11.2299 17.0269 11.0051 16.8009 11.0051 16.5227C11.0051 16.2445 11.2299 16.0198 11.508 16.0198ZM13.5234 16.0198C13.8016 16.0198 14.0264 16.2445 14.0264 16.5227C14.0264 16.8009 13.8016 17.0268 13.5234 17.0269C13.2453 17.0269 13.0193 16.8009 13.0193 16.5227C13.0193 16.2445 13.2453 16.0198 13.5234 16.0198ZM15.5376 16.0198C15.8157 16.0198 16.0418 16.2445 16.0418 16.5227C16.0418 16.8009 15.8157 17.0268 15.5376 17.0269C15.2595 17.0269 15.0347 16.8009 15.0347 16.5227C15.0347 16.2445 15.2595 16.0198 15.5376 16.0198ZM17.553 16.0198C17.8311 16.0198 18.0559 16.2445 18.0559 16.5227C18.0559 16.8009 17.8311 17.0268 17.553 17.0269C17.2748 17.0269 17.0488 16.8009 17.0488 16.5227C17.0488 16.2445 17.2748 16.0198 17.553 16.0198ZM19.5671 16.0198C19.8453 16.0198 20.0713 16.2445 20.0713 16.5227C20.0713 16.8009 19.8453 17.0268 19.5671 17.0269C19.289 17.0269 19.063 16.8009 19.063 16.5227C19.063 16.2445 19.289 16.0198 19.5671 16.0198Z" fill="currentColor" fill-rule="evenodd" opacity="1" stroke="none"/>
</g>
</svg>
