<?xml version="1.0" encoding="UTF-8" standalone="no"?>
<!DOCTYPE svg PUBLIC "-//W3C//DTD SVG 1.1//EN" "http://www.w3.org/Graphics/SVG/1.1/DTD/svg11.dtd">
<!-- Created with Vectornator (http://vectornator.io/) -->
<svg height="100%" stroke-miterlimit="10" style="fill-rule:nonzero;clip-rule:evenodd;stroke-linecap:round;stroke-linejoin:round;" version="1.1" viewBox="0 0 24 24" width="100%" xml:space="preserve" xmlns="http://www.w3.org/2000/svg" xmlns:xlink="http://www.w3.org/1999/xlink">
<defs/>
<g id="Layer-1">
<path d="M18.0625 2.21875L17.4688 2.78125C17.3824 2.86786 17.3146 2.98319 17.2812 3.09375C17.2618 3.15876 17.2206 3.17742 17.1562 3.15625C16.8936 3.06921 16.5839 3.13418 16.375 3.34375L15.75 3.96875C15.6315 4.08744 15.5858 4.22081 15.5625 4.375C15.2511 4.24541 14.8782 4.30887 14.625 4.5625L14.1875 5C14.022 5.16595 13.9084 5.40709 13.9062 5.625C13.5786 5.49348 13.2029 5.54647 12.9375 5.8125L12.4062 6.34375C12.2005 6.5499 12.1242 6.82323 12.1562 7.09375C12.1603 7.12925 12.1505 7.16205 12.125 7.1875L10.375 8.96875C10.3294 9.0143 10.233 9.0143 10.1875 8.96875L9.09375 7.84375C8.96073 7.71052 8.75802 7.71052 8.625 7.84375L6.84375 9.65625C6.71095 9.78948 6.71073 9.99156 6.84375 10.125L7.25 10.5312C7.29555 10.5768 7.29576 10.6415 7.25 10.6875L6.1875 11.75C5.88896 12.0492 5.88875 12.5444 6.1875 12.8438L6.71875 13.375C6.7643 13.4208 6.76451 13.4855 6.71875 13.5312L2.21875 18.0625C1.93347 18.3484 1.93369 18.8083 2.21875 19.0938L3.21875 20.0938C3.2643 20.1395 3.26451 20.2042 3.21875 20.25C3.08659 20.3826 3.08638 20.6172 3.21875 20.75C3.28483 20.8163 3.38214 20.8438 3.46875 20.8438C3.55536 20.8438 3.62142 20.8163 3.6875 20.75C3.73326 20.704 3.82924 20.704 3.875 20.75L3.9375 20.8438C3.98326 20.8895 3.98326 20.9542 3.9375 21L3.625 21.3438C3.53775 21.4312 3.3835 21.4462 3.3125 21.375L2.65625 20.6875C2.61027 20.6413 2.54534 20.6409 2.5 20.6875C2.32036 20.8716 2.18379 20.9646 2.34375 21.125L3.0625 21.875C3.26587 22.0786 3.65647 22.0317 3.90625 21.7812L4.3125 21.375C4.35826 21.329 4.42299 21.329 4.46875 21.375L4.78125 21.6562C5.11229 21.9879 5.66917 21.9879 6 21.6562L10.4062 17.2188C10.452 17.173 10.548 17.173 10.5938 17.2188L11.1562 17.8125C11.251 17.9077 11.3775 17.9763 11.5 18C11.704 18.0396 11.9357 17.971 12.0938 17.8125L13.2188 16.6875C13.2645 16.6415 13.3292 16.6415 13.375 16.6875L13.9062 17.1875C13.9882 17.2694 14.1 17.2908 14.1875 17.2188C14.1933 17.2145 14.2136 17.1926 14.2188 17.1875L16.0625 15.3125C16.1953 15.1795 16.1951 14.9768 16.0625 14.8438L14.9688 13.7188C14.923 13.673 14.9232 13.6083 14.9688 13.5625L16.7188 11.8125C16.7446 11.7866 16.7761 11.7763 16.8125 11.7812C17.0824 11.8163 17.3548 11.7083 17.5625 11.5L18.0938 11C18.3589 10.7344 18.4427 10.3283 18.3125 10C18.5321 9.99979 18.7386 9.91809 18.9062 9.75L19.3438 9.3125C19.5743 9.08154 19.6489 8.73026 19.5625 8.4375C19.629 8.43215 19.6867 8.42999 19.75 8.40625C19.8501 8.3699 19.9511 8.29916 20.0312 8.21875L20.625 7.625C20.634 7.61602 20.6477 7.60337 20.6562 7.59375C20.8385 7.39252 20.8852 7.12114 20.8125 6.875C20.7939 6.81277 20.8444 6.73778 20.9062 6.71875C21.0211 6.68346 21.13 6.62021 21.2188 6.53125L21.7812 5.96875C22.0712 5.67791 22.053 5.17888 21.75 4.875L21.2188 4.34375C21.173 4.29777 21.1732 4.2018 21.2188 4.15625L21.5 3.90625C21.7269 3.67893 21.7271 3.29004 21.5 3.0625L20.9375 2.5C20.7104 2.27246 20.3206 2.27268 20.0938 2.5L19.8125 2.78125C19.7669 2.82701 19.7018 2.82701 19.6562 2.78125L19.125 2.21875C18.8218 1.91465 18.3525 1.92813 18.0625 2.21875ZM18.5625 2.6875C18.5736 2.68686 18.5828 2.68707 18.5938 2.6875C18.5974 2.68771 18.6214 2.68729 18.625 2.6875C18.6321 2.68771 18.6182 2.71768 18.625 2.71875C18.6293 2.71896 18.652 2.71789 18.6562 2.71875C18.6629 2.71982 18.6811 2.71704 18.6875 2.71875C18.7014 2.72217 18.7363 2.71383 18.75 2.71875C18.7601 2.72217 18.7714 2.74572 18.7812 2.75C18.7934 2.75577 18.8007 2.74316 18.8125 2.75C18.8185 2.75364 18.838 2.7774 18.8438 2.78125C18.8497 2.78553 18.8692 2.80758 18.875 2.8125C18.8806 2.81763 18.9007 2.83819 18.9062 2.84375L21.125 5.0625C21.3042 5.24214 21.3004 5.54318 21.125 5.71875L20.7812 6.0625C20.7706 6.07234 20.7615 6.08541 20.75 6.09375C20.7387 6.10209 20.7307 6.11794 20.7188 6.125C20.7145 6.12757 20.692 6.12308 20.6875 6.125C20.6751 6.13206 20.6693 6.11965 20.6562 6.125C20.6541 6.12607 20.6584 6.15561 20.6562 6.15625C20.6537 6.15732 20.6276 6.15539 20.625 6.15625C20.6203 6.15775 20.5982 6.15518 20.5938 6.15625C20.5846 6.15882 20.5719 6.15454 20.5625 6.15625C20.5486 6.15839 20.5454 6.18664 20.5312 6.1875C20.5218 6.18814 20.5094 6.1875 20.5 6.1875C20.4865 6.1875 20.4508 6.15753 20.4375 6.15625C20.4343 6.15604 20.4095 6.15689 20.4062 6.15625C20.4018 6.15539 20.3795 6.15753 20.375 6.15625C20.3688 6.15475 20.3502 6.15817 20.3438 6.15625C20.3397 6.15454 20.3168 6.15775 20.3125 6.15625C20.3095 6.15518 20.3155 6.12607 20.3125 6.125C20.3054 6.12201 20.2881 6.12821 20.2812 6.125C20.2757 6.12222 20.2553 6.09696 20.25 6.09375C20.2487 6.09289 20.2198 6.09439 20.2188 6.09375C20.2175 6.09268 20.2202 6.06357 20.2188 6.0625C20.2136 6.05865 20.1926 6.06656 20.1875 6.0625C20.1862 6.06143 20.1573 6.03232 20.1562 6.03125L17.9375 3.8125C17.7788 3.65339 17.7501 3.39026 17.875 3.21875C17.888 3.20079 17.9212 3.20354 17.9375 3.1875L18.2812 2.84375C18.2975 2.82728 18.2941 2.79472 18.3125 2.78125C18.3174 2.77761 18.3386 2.78467 18.3438 2.78125C18.3512 2.77612 18.3673 2.75449 18.375 2.75C18.3962 2.73909 18.415 2.72581 18.4375 2.71875C18.4428 2.71683 18.4634 2.72025 18.4688 2.71875C18.4985 2.7102 18.5319 2.72089 18.5625 2.71875C18.567 2.71832 18.5578 2.6875 18.5625 2.6875ZM20.4062 3.09375C20.4929 3.00693 20.6321 3.00693 20.7188 3.09375L20.875 3.25C20.9616 3.33682 20.9614 3.50693 20.875 3.59375L20.7188 3.75L20.25 3.28125L20.4062 3.09375ZM16.5938 4.03125C16.7689 3.85546 17.0746 3.85546 17.25 4.03125L17.3125 4.125L19.875 6.6875L19.9375 6.75C20.1129 6.92579 20.1129 7.23046 19.9375 7.40625L19.875 7.46875L19.6875 7.65625L19.625 7.71875C19.4499 7.89411 19.1441 7.89432 18.9688 7.71875L18.9062 7.65625L16.3438 5.09375L16.2812 5C16.1059 4.82421 16.1061 4.55057 16.2812 4.375L16.3438 4.28125L16.5312 4.125L16.5938 4.03125ZM14.9062 5.1875C15.0816 5.01193 15.3559 5.01193 15.5312 5.1875L17.125 6.78125L17.625 7.28125L18.625 8.28125C18.6259 8.28211 18.6554 8.31165 18.6562 8.3125L18.7188 8.375C18.8941 8.55079 18.8941 8.82421 18.7188 9L18.625 9.09375L18.4688 9.28125L18.375 9.34375C18.2001 9.51911 17.9254 9.51932 17.75 9.34375L17.6562 9.28125L14.6562 6.25L14.5625 6.15625C14.3871 5.98068 14.3874 5.70682 14.5625 5.53125L14.6562 5.4375L14.9062 5.1875ZM13.9375 6.3125L17.5938 10C17.7608 10.1677 17.7391 10.4479 17.5625 10.625L17.25 10.9062C17.2447 10.9116 17.2553 10.9328 17.25 10.9375C17.2459 10.9413 17.223 10.9341 17.2188 10.9375C17.2147 10.9411 17.223 10.9655 17.2188 10.9688C17.2134 10.9728 17.1931 10.9651 17.1875 10.9688C17.1757 10.9764 17.1687 10.9934 17.1562 11C17.1515 11.0026 17.1297 10.9979 17.125 11C17.1203 11.0021 17.1299 11.0293 17.125 11.0312C17.1145 11.0355 17.1044 11.028 17.0938 11.0312C17.091 11.0321 17.0655 11.0304 17.0625 11.0312C17.0593 11.0319 17.0345 11.0308 17.0312 11.0312C17.0255 11.0321 17.0058 11.0304 17 11.0312C16.9955 11.0317 16.9732 11.031 16.9688 11.0312C16.9587 11.0319 16.9475 11.0317 16.9375 11.0312C16.9198 11.0302 16.8925 11.0345 16.875 11.0312C16.8662 11.0295 16.8523 11.0334 16.8438 11.0312C16.8281 11.0272 16.8277 11.0372 16.8125 11.0312C16.8072 11.0293 16.7866 11.0024 16.7812 11C16.7761 10.9974 16.7549 11.0026 16.75 11C16.7451 10.9972 16.7235 10.972 16.7188 10.9688C16.7123 10.9643 16.6935 10.9424 16.6875 10.9375C16.6764 10.9285 16.6667 10.9167 16.6562 10.9062L13 7.25C12.9895 7.23952 12.9777 7.22987 12.9688 7.21875C12.8317 7.05024 12.8432 6.81343 13 6.65625L13.3125 6.34375C13.4894 6.16668 13.7707 6.14527 13.9375 6.3125ZM12.4375 7.78125C12.4833 7.73549 12.5482 7.73549 12.5938 7.78125L16.125 11.3125C16.1671 11.3581 16.1667 11.4555 16.125 11.5L14.5938 13L14.5 13.125C14.4542 13.1708 14.3895 13.1708 14.3438 13.125L10.8125 9.5625C10.7719 9.51631 10.7706 9.45052 10.8125 9.40625L12.3438 7.90625L12.4375 7.78125Z" fill="currentColor" fill-rule="nonzero" opacity="1" stroke="none"/>
</g>
</svg>
