<?xml version="1.0" encoding="UTF-8" standalone="no"?>
<!DOCTYPE svg PUBLIC "-//W3C//DTD SVG 1.1//EN" "http://www.w3.org/Graphics/SVG/1.1/DTD/svg11.dtd">
<!-- Created with Vectornator (http://vectornator.io/) -->
<svg height="100%" stroke-miterlimit="10" style="fill-rule:nonzero;clip-rule:evenodd;stroke-linecap:round;stroke-linejoin:round;" version="1.1" viewBox="0 0 24 24" width="100%" xml:space="preserve" xmlns="http://www.w3.org/2000/svg" xmlns:xlink="http://www.w3.org/1999/xlink">
<defs/>
<g id="Layer-1">
<path d="M12 18.5249L7.2752 21.3824C7.04886 21.5333 6.80366 21.5948 6.5396 21.5669C6.27554 21.5382 6.0492 21.4484 5.86059 21.2975C5.67197 21.1466 5.52598 20.958 5.42262 20.7317C5.31851 20.5053 5.29474 20.2601 5.35133 19.9961L6.59618 14.6206L2.43723 10.9991C2.21089 10.8105 2.07433 10.5936 2.02756 10.3484C1.98003 10.1032 1.99398 9.85803 2.06943 9.61283C2.14487 9.38649 2.272 9.19788 2.45081 9.04698C2.63037 8.89609 2.87104 8.80178 3.17283 8.76406L8.66152 8.28309L10.8117 3.21879C10.9249 2.95472 11.0901 2.75668 11.3074 2.62465C11.5239 2.49262 11.7548 2.4266 12 2.4266C12.2452 2.4266 12.4764 2.49262 12.6937 2.62465C12.9103 2.75668 13.0751 2.95472 13.1883 3.21879L15.3385 8.28309L20.8272 8.76406C21.129 8.80178 21.3696 8.89609 21.5492 9.04698C21.728 9.19788 21.8551 9.38649 21.9306 9.61283C22.006 9.85803 22.02 10.1032 21.9724 10.3484C21.9257 10.5936 21.7891 10.8105 21.5628 10.9991L17.4038 14.6206L18.6487 19.9961C18.7053 20.2601 18.6815 20.5053 18.5774 20.7317C18.474 20.958 18.328 21.1466 18.1394 21.2975C17.9508 21.4484 17.7245 21.5382 17.4604 21.5669C17.1963 21.5948 16.9511 21.5333 16.7248 21.3824L12 18.5249Z" fill="currentColor" fill-rule="nonzero" opacity="1" stroke="none"/>
</g>
</svg>
