<?xml version="1.0" encoding="UTF-8" standalone="no"?>
<!DOCTYPE svg PUBLIC "-//W3C//DTD SVG 1.1//EN" "http://www.w3.org/Graphics/SVG/1.1/DTD/svg11.dtd">
<!-- Created with Vectornator (http://vectornator.io/) -->
<svg height="100%" stroke-miterlimit="10" style="fill-rule:nonzero;clip-rule:evenodd;stroke-linecap:round;stroke-linejoin:round;" version="1.1" viewBox="0 0 24 24" width="100%" xml:space="preserve" xmlns="http://www.w3.org/2000/svg" xmlns:xlink="http://www.w3.org/1999/xlink">
<defs/>
<g id="Layer-1">
<path d="M12 22C10.5948 22 9.39379 21.5016 8.39706 20.5049C7.40033 19.5082 6.90196 18.3072 6.90196 16.902C6.90196 16.1013 7.07353 15.3536 7.41667 14.6588C7.7598 13.9647 8.24183 13.3725 8.86275 12.8824L8.86275 5.13725C8.86275 4.27124 9.16928 3.5317 9.78235 2.91863C10.3948 2.30621 11.134 2 12 2C12.866 2 13.6056 2.30621 14.2186 2.91863C14.831 3.5317 15.1373 4.27124 15.1373 5.13725L15.1373 12.8824C15.7582 13.3725 16.2402 13.9647 16.5833 14.6588C16.9265 15.3536 17.098 16.1013 17.098 16.902C17.098 18.3072 16.5997 19.5082 15.6029 20.5049C14.6062 21.5016 13.4052 22 12 22ZM11.0931 11.0441L12.9069 11.0441L12.9069 10.0637L12 10.0637L12 9.03431L12.9069 9.03431L12.9069 7.12255L12 7.12255L12 6.09314L12.9069 6.09314L12.9069 5.13725C12.9069 4.87582 12.8212 4.65915 12.65 4.48725C12.4781 4.31601 12.2614 4.23039 12 4.23039C11.7386 4.23039 11.5222 4.31601 11.351 4.48725C11.1791 4.65915 11.0931 4.87582 11.0931 5.13725L11.0931 11.0441Z" fill="currentColor" fill-rule="nonzero" opacity="1" stroke="none"/>
</g>
</svg>
