<?xml version="1.0" encoding="UTF-8" standalone="no"?>
<!DOCTYPE svg PUBLIC "-//W3C//DTD SVG 1.1//EN" "http://www.w3.org/Graphics/SVG/1.1/DTD/svg11.dtd">
<!-- Created with Vectornator (http://vectornator.io/) -->
<svg height="100%" stroke-miterlimit="10" style="fill-rule:nonzero;clip-rule:evenodd;stroke-linecap:round;stroke-linejoin:round;" version="1.1" viewBox="0 0 24 24" width="100%" xml:space="preserve" xmlns="http://www.w3.org/2000/svg" xmlns:xlink="http://www.w3.org/1999/xlink">
<defs/>
<g id="Layer-1">
<path d="M19.7084 3.9941L19.6999 3.9828C19.6999 3.97998 19.6971 3.97998 19.6971 3.97715L19.4881 3.72303L18.4575 2.46653L18.2147 2.17006C18.178 2.12488 18.1328 2.091 18.0848 2.06276C17.9238 1.96958 17.7149 1.97805 17.5624 2.10229L17.1078 2.47501L17.0485 2.52583C16.9525 2.60489 16.9017 2.71501 16.8989 2.83078C16.8989 2.83925 16.8989 2.8449 16.8989 2.85054C16.8989 2.85619 16.8989 2.86184 16.8989 2.86748C16.8989 2.87031 16.8989 2.87596 16.8989 2.87878C16.8989 2.8929 16.9017 2.90419 16.9045 2.91831C16.9074 2.93525 16.913 2.95219 16.9187 2.96631L16.8819 2.99737L16.7069 3.14137L16.2975 3.47738L16.2805 3.4915L13.6743 5.59789L11.3985 7.43605L6.51091 11.3806L5.34194 12.3237C5.33912 12.3265 5.3363 12.3265 5.3363 12.3237C5.26571 12.2841 5.18947 12.2644 5.11041 12.2587C5.00029 12.2531 4.89017 12.2926 4.79699 12.366L4.35651 12.7275C4.25486 12.8122 4.19557 12.9279 4.18427 13.0493C4.17298 13.1708 4.20968 13.2978 4.28875 13.4023L5.76548 15.2009C5.93207 15.4042 6.22855 15.4324 6.42902 15.2659L6.87515 14.9016C6.88362 14.896 6.89209 14.8875 6.90056 14.879C6.91468 14.8649 6.9288 14.8508 6.94009 14.8367C6.94292 14.8338 6.94574 14.8282 6.94856 14.8254C7.01068 14.7407 7.04174 14.639 7.0361 14.5374L7.23657 14.368L7.23657 14.368L7.24222 14.3623L7.25069 14.3538L7.26198 14.3454C7.33257 14.2776 7.42293 14.2155 7.51046 14.1449C7.54717 14.1167 7.58387 14.0856 7.62058 14.0545L7.6234 14.0517C7.65728 14.0235 7.69399 13.9952 7.7307 13.9642L7.73635 13.9614C7.75611 13.9444 7.7787 13.9275 7.79846 13.9105C7.80129 13.9077 7.80411 13.9049 7.80694 13.9049C7.84929 13.871 7.89164 13.8371 7.934 13.8004C8.02153 13.7298 8.11188 13.6564 8.20506 13.583C8.24177 13.5519 8.27847 13.5237 8.318 13.4926C8.54671 13.3091 8.78672 13.1143 9.02955 12.9195C9.0719 12.8856 9.11426 12.8489 9.15943 12.815C9.18485 12.7952 9.21026 12.7755 9.23567 12.7529C9.3232 12.6823 9.41073 12.6117 9.49826 12.5411C9.52368 12.5213 9.54909 12.5016 9.57168 12.4818C9.6818 12.3914 9.79474 12.3039 9.90204 12.2164C9.9218 12.1994 9.94439 12.1825 9.96416 12.1656C9.96698 12.1627 9.9698 12.1599 9.97263 12.1571C9.99239 12.1401 10.0122 12.126 10.0319 12.1091C10.0545 12.0893 10.0771 12.0724 10.0997 12.0554C10.1279 12.0328 10.1562 12.0103 10.1844 11.9877C10.2183 11.9594 10.2522 11.9312 10.286 11.9058C10.3086 11.8888 10.3284 11.8719 10.351 11.8521C10.3764 11.8324 10.4018 11.8098 10.4272 11.79C10.447 11.7759 10.4639 11.759 10.4837 11.7448C10.495 11.7364 10.5063 11.7279 10.5148 11.7194C10.5515 11.6912 10.5882 11.6601 10.6221 11.6319L10.6221 11.6319C10.6588 11.6037 10.6926 11.5754 10.7265 11.5472L10.7293 11.5444C10.7406 11.5331 10.7548 11.5246 10.7661 11.5161C10.7886 11.4964 10.8141 11.4766 10.8366 11.4597C10.8479 11.4512 10.8592 11.4399 10.8705 11.4314C10.8875 11.4173 10.9072 11.4032 10.9242 11.3891C10.9496 11.3665 10.9778 11.3467 11.0032 11.327C11.0117 11.3213 11.0202 11.3128 11.0286 11.3072C11.0541 11.2874 11.0766 11.2677 11.1021 11.2479C11.1501 11.2112 11.1952 11.1745 11.2348 11.1406L11.2517 11.1265C11.2545 11.1237 11.2574 11.1237 11.2602 11.1208L11.263 11.118C11.2715 11.1095 11.2828 11.1067 11.2941 11.1039L11.2941 11.1039C11.3223 11.0982 11.3534 11.1095 11.3731 11.1349L11.3731 11.1349C11.5425 11.3524 11.8531 11.3919 12.0706 11.2225L12.4517 10.926C12.4856 10.9006 12.5336 10.9062 12.5619 10.9373L14.6231 13.4475C14.6146 13.4701 14.6033 13.4898 14.5864 13.5068C14.5835 13.5096 14.5835 13.5096 14.5807 13.5124C14.5807 13.5124 14.5807 13.5124 14.5779 13.5152C14.5751 13.5181 14.5723 13.5209 14.5723 13.5209L5.88972 20.6589L5.63842 20.865C5.58477 20.9074 5.55371 20.9695 5.54807 21.0316C5.53959 21.0966 5.55936 21.1672 5.60454 21.2208L6.16643 21.9069C6.18902 21.9352 6.21726 21.9578 6.24549 21.9719C6.33302 22.0171 6.44314 22.0086 6.5222 21.9408L15.9219 14.2268C15.9247 14.224 15.9276 14.2211 15.9304 14.2183L15.9869 14.1731C16.3144 13.9049 16.3624 13.4221 16.0942 13.0945L13.6461 10.11C13.6179 10.0761 13.6235 10.0253 13.6574 9.99704L14.1289 9.62997C14.2955 9.50009 14.3266 9.26008 14.1967 9.09349L14.1261 9.00314C14.1148 8.98902 14.0979 8.96643 14.0781 8.94102L14.0753 8.9382L14.0697 8.92973C14.0612 8.91561 14.0555 8.90149 14.0584 8.88455C14.0612 8.86761 14.0668 8.85349 14.0753 8.84219C14.0809 8.83655 14.0866 8.8309 14.0951 8.82808L14.0951 8.82808L18.0142 5.67131L18.0199 5.66566L18.6439 5.15459L18.6834 5.12353C18.6975 5.132 18.7145 5.14047 18.7286 5.14612C18.737 5.14894 18.7427 5.15177 18.7512 5.15459L18.7512 5.15459C18.7596 5.15741 18.7681 5.16024 18.7766 5.16306C18.9008 5.19694 19.0363 5.17435 19.1436 5.08682L19.6406 4.68023C19.8467 4.50799 19.8778 4.20304 19.7084 3.9941ZM18.0114 4.44305L6.73397 13.4051C6.71985 13.4164 6.70574 13.4277 6.68879 13.4362C6.60691 13.487 6.51091 13.5068 6.41773 13.4983C6.30479 13.487 6.19467 13.4305 6.11843 13.3345C6.08737 13.295 6.06478 13.2526 6.04784 13.2103C5.98572 13.038 6.03655 12.8404 6.18902 12.719L17.4664 3.75691C17.5596 3.6835 17.6725 3.65244 17.7827 3.66374C17.7968 3.66656 17.8109 3.66656 17.825 3.66938L17.825 3.66938C17.9238 3.68915 18.0142 3.7428 18.082 3.8275C18.1074 3.85856 18.1271 3.89245 18.1413 3.92915C18.2175 4.10704 18.1695 4.31881 18.0114 4.44305Z" fill="currentColor" fill-rule="nonzero" opacity="1" stroke="none"/>
</g>
</svg>
