<?xml version="1.0" encoding="UTF-8" standalone="no"?>
<!DOCTYPE svg PUBLIC "-//W3C//DTD SVG 1.1//EN" "http://www.w3.org/Graphics/SVG/1.1/DTD/svg11.dtd">
<!-- Created with Vectornator (http://vectornator.io/) -->
<svg height="100%" stroke-miterlimit="10" style="fill-rule:nonzero;clip-rule:evenodd;stroke-linecap:round;stroke-linejoin:round;" version="1.1" viewBox="0 0 24 24" width="100%" xml:space="preserve" xmlns="http://www.w3.org/2000/svg" xmlns:xlink="http://www.w3.org/1999/xlink">
<defs/>
<g id="Layer-1">
<g opacity="1">
<path d="M3.9306 21.4986C3.57525 21.4986 3.24694 21.351 2.95561 21.0593C1.89496 19.9976 2.95893 18.933 3.66295 18.2283L12.0845 9.80008C11.0719 7.86842 11.4146 5.51477 12.9772 3.9508C13.9115 3.01616 15.1642 2.50116 16.5042 2.50116C16.5952 2.50116 16.6852 2.50351 16.7752 2.50815L17.3841 3.07881L14.5788 5.88679L15.1442 8.86177L18.1158 9.42711L20.9218 6.61847L21.4925 7.22881C21.5668 8.65247 21.0415 10.0378 20.0508 11.0291C19.1095 11.9715 17.8572 12.4904 16.5248 12.4904C15.7135 12.4904 14.9198 12.2951 14.2062 11.9224L5.78488 20.3513C5.22125 20.9153 4.63825 21.4986 3.9306 21.4986Z" fill="currentColor" fill-rule="evenodd" opacity="1" stroke="none"/>
<path d="M21.3518 6.32042C21.2351 6.27578 21.1138 6.25374 20.9935 6.25374C20.7328 6.25374 20.4771 6.35574 20.2858 6.54706L17.9495 8.88536L15.5719 8.43302L15.1199 6.05371L17.4565 3.71541C17.7359 3.43576 17.8245 3.01776 17.6832 2.64874C17.5415 2.27976 17.1962 2.02839 16.8015 2.00773C16.7029 2.00273 16.6042 2.00007 16.5055 2.00007L16.5055 2.00007C15.0309 2.00007 13.6522 2.56706 12.6236 3.59674C10.9936 5.22805 10.5696 7.64037 11.4796 9.69703L4.95059 16.231L3.30893 17.874C2.62026 18.5633 1.18696 19.9976 2.60159 21.4136C3.08592 21.8982 3.59158 21.9999 3.93056 21.9999C4.8452 21.9999 5.53223 21.3123 6.13855 20.7056L14.3098 12.5277C15.0044 12.8327 15.7578 12.9917 16.5251 12.9917C17.9908 12.9917 19.3688 12.4206 20.4047 11.384C21.4954 10.2927 22.0741 8.76868 21.9924 7.20303C21.9714 6.80811 21.7207 6.4621 21.3518 6.32042ZM19.6971 10.676C18.8204 11.5534 17.6731 11.9907 16.5248 11.9907C15.6901 11.9907 14.8551 11.7597 14.1231 11.2987C10.9998 14.4247 6.88518 18.5423 5.43086 19.9976C4.93051 20.4983 4.43052 20.9989 3.93021 20.9989C3.72322 20.9989 3.51588 20.9129 3.30854 20.7056C2.6012 19.9976 3.30854 19.29 4.01587 18.582C5.4702 17.1266 9.58449 13.009 12.7081 9.88305C11.6142 8.14271 11.8165 5.82008 13.3305 4.30478C14.2075 3.42713 15.3555 3.00147 16.5051 3.00147C16.5864 3.00147 16.6674 3.00346 16.7488 3.0078L14.0382 5.72043L14.7162 9.28938L18.2825 9.96805L20.9931 7.25506C21.0574 8.4854 20.6361 9.73606 19.6971 10.676Z" fill="currentColor" fill-rule="evenodd" opacity="1" stroke="none"/>
</g>
</g>
</svg>
